<svg width="598" height="355" viewBox="0 0 598 355" fill="none" xmlns="http://www.w3.org/2000/svg">
<path d="M412.131 279.747C373.979 283.767 335.642 285.768 297.279 285.743C258.916 285.768 220.578 283.767 182.427 279.747C183.706 274.688 184.973 269.389 186.228 263.85C201.216 197.714 197.036 190.657 188.93 156.729C180.823 122.801 191.632 111.72 221.635 89.1163C251.639 66.5128 248.576 73.4802 252.35 48.1941C256.124 22.9081 274.499 11.3587 297.234 11.3587C319.968 11.3587 338.352 22.9171 342.117 48.1941C345.882 73.4712 342.82 66.4768 372.832 89.1163C402.844 111.756 413.608 122.774 405.538 156.729C397.467 190.684 393.297 197.75 408.285 263.85C409.57 269.389 410.852 274.688 412.131 279.747Z" fill="url(#paint0_linear_0_1064)"/>
<path d="M342.162 48.1585C345.936 73.4445 342.865 66.4411 372.877 89.0806C397.395 107.57 409.059 118.309 408.114 140.13C407.258 121.343 395.584 110.856 372.877 93.7346C342.865 71.095 345.936 78.0894 342.162 52.8124C338.388 27.5353 320.013 11.3231 297.279 11.3231C320.013 11.3231 338.397 22.8904 342.162 48.1585Z" fill="#FFA2A4"/>
<path d="M221.679 89.0806C251.692 66.4411 248.62 73.4445 252.394 48.1585C256.168 22.8724 274.543 11.3231 297.278 11.3231C274.543 11.3231 256.159 27.5263 252.394 52.8124C248.629 78.0984 251.692 71.095 221.679 93.7346C198.972 110.838 187.299 121.343 186.443 140.13C185.497 118.309 197.162 107.57 221.679 89.0806Z" fill="#0DFC65"/>
<path d="M254.043 99.3155C250.737 96.48 208.898 114.619 207.205 123.071C205.683 130.84 207.385 148.195 212.664 150.653C217.942 153.11 245.846 141.021 249.864 138.32C253.881 135.62 257.331 102.106 254.043 99.3155Z" fill="#2E0066"/>
<path d="M344.684 138.32C348.702 141.021 376.597 153.11 381.884 150.653C387.172 148.195 388.865 130.849 387.343 123.071C385.677 114.61 343.838 96.4801 340.505 99.3157C337.172 102.151 340.676 135.62 344.684 138.32Z" fill="#2E0066"/>
<path d="M376.921 282.88C359.303 284.171 341.408 285.026 323.238 285.446C314.639 285.644 305.986 285.743 297.278 285.743C289.508 285.743 281.774 285.665 274.076 285.509C255.839 285.125 237.854 284.312 220.122 283.069C220.32 282.493 220.518 281.917 220.725 281.332C221.326 279.658 221.926 277.932 222.527 276.156L223.013 274.707C223.373 273.626 223.734 272.528 224.103 271.43L224.779 269.36C224.887 269.008 225.004 268.666 225.112 268.324C225.337 267.631 225.562 266.938 225.778 266.236C225.995 265.534 226.22 264.832 226.445 264.129C226.778 263.076 227.102 262.032 227.418 260.979C227.733 259.926 227.985 259.106 228.264 258.17C228.409 257.657 228.562 257.153 228.706 256.658C229.291 254.651 229.859 252.661 230.381 250.708V250.591C230.642 249.691 230.886 248.718 231.12 247.809L231.174 247.584C231.648 245.748 232.081 243.965 232.471 242.237C232.471 242.102 232.525 241.967 232.561 241.832C232.705 241.211 232.831 240.608 232.957 240.032C233.146 239.131 233.327 238.231 233.48 237.394C233.579 236.827 233.687 236.269 233.777 235.72C233.867 235.171 233.957 234.631 234.029 234.108C234.227 232.794 234.371 231.561 234.461 230.409C236.164 209.173 230.408 171.105 231.759 165.722C233.11 160.339 254.025 149.627 263.771 147.34C273.517 145.054 323.517 145.054 333.263 147.34C343.009 149.627 363.888 160.339 365.275 165.722C366.662 171.105 360.906 209.173 362.572 230.409C362.663 231.561 362.807 232.794 363.005 234.108C363.005 234.37 363.086 234.64 363.122 234.901C363.158 235.162 363.23 235.567 363.293 235.9C363.752 238.6 364.374 241.553 365.095 244.686C365.167 245.001 365.248 245.325 365.329 245.649C365.887 247.917 366.509 250.267 367.175 252.661C367.346 253.273 367.518 253.894 367.698 254.516L367.887 255.182L368.319 256.685C368.842 258.485 369.382 260.286 369.931 262.086L370.58 264.183C370.805 264.886 371.021 265.588 371.247 266.29C371.472 266.992 371.688 267.685 371.913 268.378C372.021 268.72 372.138 269.062 372.246 269.414L372.922 271.484C373.291 272.582 373.651 273.68 374.012 274.761L374.498 276.21C375.099 278.01 375.699 279.736 376.3 281.386L376.921 282.88Z" fill="url(#paint1_linear_0_1064)"/>
<path d="M274.076 285.509C255.839 285.125 237.854 284.312 220.122 283.07C220.32 282.502 220.518 281.917 220.725 281.332C221.326 279.658 221.926 277.932 222.527 276.156L223.013 274.707C223.373 273.627 223.734 272.528 224.103 271.43L224.779 269.36C224.887 269.009 225.004 268.667 225.112 268.325C225.337 267.631 225.562 266.938 225.778 266.236C225.995 265.534 226.22 264.832 226.445 264.13C226.778 263.076 227.102 262.032 227.418 260.979C227.733 259.926 227.985 259.107 228.264 258.171C228.409 257.657 228.562 257.153 228.706 256.658C229.291 254.651 229.85 252.661 230.381 250.708V250.591C230.642 249.691 230.886 248.719 231.12 247.809L231.174 247.584C231.642 245.748 232.075 243.966 232.471 242.237C232.471 242.102 232.525 241.967 232.561 241.832C232.705 241.211 232.831 240.608 232.957 240.032C233.137 239.132 233.318 238.232 233.48 237.394C233.579 236.827 233.687 236.269 233.777 235.72C233.867 235.171 233.957 234.631 234.029 234.109L248.153 224.279C243.406 259.899 238.533 265.561 242.091 272.807C243.622 275.904 258.106 280.873 274.076 285.509Z" fill="url(#paint2_linear_0_1064)"/>
<path d="M376.381 281.332L376.922 282.881C359.304 284.171 341.409 285.026 323.238 285.446C339.136 280.828 353.494 275.886 355.016 272.78C358.574 265.534 353.701 259.872 348.954 224.252L363.078 234.082C363.078 234.343 363.159 234.613 363.195 234.874C363.231 235.135 363.303 235.54 363.366 235.873C363.825 238.574 364.447 241.526 365.167 244.659C365.239 244.983 365.32 245.307 365.402 245.622C365.96 247.89 366.581 250.24 367.248 252.634C367.419 253.256 367.59 253.868 367.77 254.489L367.96 255.155L368.392 256.658C368.914 258.459 369.455 260.259 370.004 262.059L370.653 264.157C370.878 264.859 371.094 265.561 371.319 266.263C371.545 266.965 371.761 267.658 371.986 268.352C372.094 268.694 372.211 269.036 372.319 269.387L372.995 271.457C373.364 272.555 373.724 273.654 374.085 274.734C374.256 275.22 374.418 275.706 374.571 276.183C375.195 277.936 375.799 279.652 376.381 281.332Z" fill="url(#paint3_linear_0_1064)"/>
<path d="M263.05 73.3005C261.036 71.7251 258.631 70.7256 256.093 70.4085C253.555 70.0915 250.979 70.4687 248.638 71.5001C241.432 74.6867 242.558 83.5985 246.837 88.7746C248.103 90.2829 249.678 91.5027 251.455 92.352C253.233 93.2013 255.172 93.6605 257.141 93.6985C260.386 93.786 263.629 93.4531 266.788 92.7083L263.05 73.3005Z" fill="#E537A8"/>
<path d="M246.837 88.7746C247.748 89.8802 248.834 90.8289 250.052 91.5831L249.971 91.5201C247.377 89.2996 245.712 86.1866 245.306 82.7974C245.125 81.1076 245.369 79.3995 246.015 77.8277C246.662 76.2558 247.69 74.87 249.008 73.7956C250.728 72.5705 252.741 71.822 254.844 71.6261C256.641 71.452 258.449 71.4309 260.249 71.5631C258.435 70.709 256.456 70.2609 254.451 70.25C252.445 70.2391 250.462 70.6658 248.638 71.5001C241.432 74.6868 242.558 83.5985 246.837 88.7746Z" fill="white"/>
<path d="M246.837 88.7746C247.748 89.8802 248.834 90.8289 250.052 91.5831L249.971 91.5201C247.377 89.2996 245.712 86.1866 245.306 82.7974C245.125 81.1076 245.369 79.3995 246.015 77.8277C246.662 76.2558 247.69 74.87 249.008 73.7956C250.728 72.5705 252.741 71.822 254.844 71.6261C256.641 71.452 258.449 71.4309 260.249 71.5631C258.435 70.709 256.456 70.2609 254.451 70.25C252.445 70.2391 250.462 70.6658 248.638 71.5001C241.432 74.6868 242.558 83.5985 246.837 88.7746Z" fill="#FFA2A4"/>
<path d="M329.795 73.3005C331.809 71.7251 334.213 70.7256 336.751 70.4085C339.289 70.0915 341.866 70.4687 344.206 71.5001C351.412 74.6867 350.286 83.5985 346.008 88.7746C344.742 90.2838 343.168 91.5042 341.39 92.3536C339.613 93.203 337.673 93.6617 335.703 93.6985C332.459 93.786 329.216 93.4531 326.057 92.7083L329.795 73.3005Z" fill="#E537A8"/>
<path d="M346.017 88.7744C345.106 89.88 344.02 90.8287 342.802 91.5829L342.883 91.5199C345.48 89.3022 347.146 86.1877 347.549 82.7972C347.729 81.1074 347.485 79.3993 346.839 77.8274C346.193 76.2556 345.164 74.8698 343.847 73.7954C342.13 72.5706 340.119 71.8221 338.019 71.6259C336.222 71.4519 334.414 71.4308 332.615 71.5629C334.424 70.7055 336.398 70.2532 338.401 70.2377C340.403 70.2221 342.385 70.6437 344.207 71.4729C351.395 74.6865 350.287 83.5983 346.017 88.7744Z" fill="#FFA2A4"/>
<path d="M298.549 112.629C352.98 112.629 369.707 129.876 357.331 145.522C348.324 156.855 315.582 161.725 303.287 171.159C301.934 172.196 300.277 172.758 298.572 172.758C296.867 172.758 295.209 172.196 293.856 171.159C281.543 161.734 248.82 156.855 239.812 145.522C227.355 129.876 244.136 112.629 298.549 112.629Z" fill="url(#paint4_linear_0_1064)"/>
<path d="M298.549 112.629C352.98 112.629 369.707 129.876 357.331 145.522C348.324 156.855 315.582 161.725 303.287 171.159C301.934 172.196 300.277 172.758 298.572 172.758C296.867 172.758 295.209 172.196 293.856 171.159C281.543 161.734 248.82 156.855 239.812 145.522C227.355 129.876 244.136 112.629 298.549 112.629Z" fill="url(#paint5_linear_0_1064)"/>
<path d="M353.71 144.603C365.131 129.525 348.918 114.708 299.162 114.582V112.629C353.098 112.764 369.707 129.93 357.331 145.522C351.071 153.398 333.345 158.124 318.987 163.525C332.255 157.737 348.126 151.976 353.71 144.603Z" fill="#FFA2A4"/>
<path d="M297.954 112.629V114.582C248.197 114.699 231.975 129.525 243.397 144.603C248.981 151.976 264.852 157.737 278.12 163.507C263.708 158.178 246.036 153.416 239.776 145.504C227.4 129.93 244.009 112.764 297.954 112.629Z" fill="#0DFC65"/>
<path d="M298.558 139.446C308.925 139.446 317.329 136.117 317.329 132.01C317.329 127.904 308.925 124.575 298.558 124.575C288.191 124.575 279.787 127.904 279.787 132.01C279.787 136.117 288.191 139.446 298.558 139.446Z" fill="#2E0066"/>
<path d="M298.711 137.078C300.059 137.082 301.395 136.819 302.642 136.306C303.889 135.793 305.022 135.039 305.977 134.087C306.931 133.136 307.689 132.005 308.205 130.761C308.722 129.516 308.988 128.182 308.988 126.834V108.723H288.452V126.834C288.452 128.18 288.717 129.513 289.233 130.757C289.748 132 290.504 133.13 291.457 134.081C292.41 135.032 293.541 135.787 294.786 136.301C296.03 136.815 297.364 137.079 298.711 137.078Z" fill="#E537A8"/>
<path d="M301.783 122.612C297.804 122.716 293.828 122.345 289.938 121.505V127.464C290.006 129.416 290.829 131.266 292.235 132.623C293.64 133.98 295.518 134.738 297.473 134.738C299.427 134.738 301.305 133.98 302.711 132.623C304.116 131.266 304.94 129.416 305.007 127.464V122.279C303.94 122.458 302.863 122.569 301.783 122.612Z" fill="#FF96CE"/>
<path d="M263.403 41.4608L296.919 36.7258L330.435 41.4608C330.435 41.4608 331.795 69.0603 331.12 84.0213C330.435 99.3244 326.202 118.534 296.892 118.534C267.582 118.534 263.376 99.3154 262.664 84.0213C262.043 69.0603 263.403 41.4608 263.403 41.4608Z" fill="#E537A8"/>
<path d="M272.958 49.9947C272.499 56.557 268.094 62.2011 265.464 67.9983C262.131 75.3707 263.032 83.5804 265.167 91.2229C268.283 102.421 276.336 112.827 287.496 116.077C296.503 118.732 306.628 116.392 314.167 110.784C321.706 105.176 326.714 96.543 328.84 87.3791C330.965 78.2153 330.335 68.5834 328.02 59.4735C328.02 55.7828 324.075 54.0725 321.499 52.2721L310.879 44.6206C306.105 49.7619 299.605 52.9698 292.618 53.6337C285.631 54.2976 278.644 52.3713 272.985 48.2213C273.013 48.8124 273.004 49.4047 272.958 49.9947Z" fill="#FF96CE"/>
<path d="M280.209 91.0339C280.211 92.1848 279.871 93.3104 279.232 94.268C278.594 95.2257 277.685 95.9725 276.621 96.4137C275.558 96.855 274.387 96.9709 273.258 96.7468C272.128 96.5227 271.09 95.9687 270.276 95.1549C269.462 94.3411 268.907 93.3041 268.683 92.1752C268.459 91.0463 268.575 89.8763 269.016 88.8134C269.458 87.7504 270.205 86.8423 271.163 86.204C272.122 85.5657 273.248 85.226 274.4 85.2278C275.94 85.2278 277.418 85.8395 278.508 86.9283C279.597 88.0172 280.209 89.494 280.209 91.0339Z" fill="#FFAEE1"/>
<path d="M313.627 91.0339C313.625 92.1848 313.965 93.3104 314.604 94.268C315.243 95.2257 316.151 95.9725 317.215 96.4137C318.278 96.855 319.449 96.9709 320.579 96.7468C321.708 96.5227 322.746 95.9687 323.56 95.1549C324.374 94.3411 324.929 93.3041 325.153 92.1752C325.377 91.0463 325.261 89.8763 324.82 88.8134C324.378 87.7504 323.631 86.8423 322.673 86.204C321.715 85.5657 320.588 85.226 319.437 85.2278C317.896 85.2278 316.418 85.8395 315.329 86.9283C314.239 88.0172 313.627 89.494 313.627 91.0339Z" fill="#FFAEE1"/>
<path d="M307.43 71.3562C307.43 71.9348 307.601 72.5004 307.923 72.9815C308.245 73.4626 308.702 73.8376 309.237 74.059C309.772 74.2805 310.36 74.3384 310.928 74.2255C311.496 74.1127 312.018 73.834 312.427 73.4249C312.836 73.0157 313.115 72.4944 313.228 71.9269C313.341 71.3594 313.283 70.7712 313.062 70.2366C312.84 69.702 312.465 69.2451 311.983 68.9236C311.502 68.6022 310.936 68.4306 310.357 68.4306C309.581 68.4306 308.836 68.7388 308.287 69.2875C307.738 69.8361 307.43 70.5802 307.43 71.3562Z" fill="#000626"/>
<path d="M286.407 71.3562C286.407 71.9348 286.235 72.5004 285.914 72.9815C285.592 73.4626 285.135 73.8376 284.6 74.059C284.065 74.2805 283.476 74.3384 282.909 74.2255C282.341 74.1127 281.819 73.834 281.41 73.4249C281 73.0157 280.721 72.4944 280.608 71.9269C280.496 71.3594 280.554 70.7712 280.775 70.2366C280.997 69.702 281.372 69.2451 281.853 68.9236C282.335 68.6022 282.901 68.4306 283.48 68.4306C284.256 68.4306 285.001 68.7388 285.55 69.2875C286.099 69.8361 286.407 70.5802 286.407 71.3562Z" fill="#000626"/>
<path d="M271.752 59.5276L289.092 67.3412C289.092 67.3412 289.506 55.2338 271.752 59.5276Z" fill="#000626"/>
<path d="M323.228 56.62L304.673 60.8329C304.673 60.8329 306.673 48.8875 323.228 56.62Z" fill="#000626"/>
<path d="M297.143 91.9788C296.989 91.9811 296.837 91.9439 296.702 91.8708C293.459 90.0705 294.729 84.8674 295.495 81.7798C295.612 81.2937 295.72 80.8796 295.801 80.5016C296.975 75.2654 297.234 69.8658 296.567 64.5414C296.533 64.3026 296.596 64.0604 296.741 63.8679C296.887 63.6755 297.103 63.5486 297.341 63.5152C297.58 63.4817 297.823 63.5445 298.015 63.6897C298.208 63.8349 298.335 64.0506 298.368 64.2893C299.063 69.8178 298.794 75.4246 297.576 80.8616C297.495 81.2487 297.377 81.6988 297.251 82.2119C296.612 84.8044 295.54 89.1433 297.594 90.3135C297.698 90.3716 297.789 90.4496 297.863 90.5432C297.936 90.6368 297.99 90.7441 298.022 90.8588C298.054 90.9735 298.063 91.0933 298.048 91.2114C298.033 91.3295 297.995 91.4435 297.936 91.5468C297.854 91.6821 297.737 91.7934 297.598 91.8692C297.458 91.9451 297.302 91.9829 297.143 91.9788Z" fill="#E537A8"/>
<path d="M308.987 90.8267C303.673 95.9307 295.476 98.8203 289.009 98.2441C289.009 98.2441 293.107 105.986 303.042 102.853C312.59 99.8465 308.987 90.8267 308.987 90.8267Z" fill="#FDFDFD"/>
<path d="M232.857 163.822C225.966 175.174 192.982 228.635 184.353 234.847C175.724 241.058 119.833 221.146 85.3893 228.806C50.9454 236.467 33.9035 300.632 108.007 308.247C182.11 315.863 208.33 301.046 222.346 286.13C236.361 271.214 248.8 230.022 249.539 214.061C250.277 198.101 232.857 163.822 232.857 163.822Z" fill="url(#paint6_linear_0_1064)"/>
<path d="M364.248 163.822C371.139 175.174 404.123 228.635 412.752 234.847C421.381 241.058 477.299 221.146 511.716 228.806C546.133 236.467 563.202 300.632 489.134 308.247C415.067 315.863 388.811 301.046 374.796 286.13C360.78 271.214 348.341 229.995 347.648 214.034C346.954 198.074 364.248 163.822 364.248 163.822Z" fill="url(#paint7_linear_0_1064)"/>
<path d="M494.629 235.378C483.91 236.44 473.011 239.581 464.851 246.594C461.004 249.87 457.912 253.939 455.785 258.52C453.658 263.102 452.547 268.089 452.529 273.14C452.664 283.213 457.933 293.205 466.49 298.543C477.299 305.295 491.206 304.097 503.618 301.199C512.679 299.083 521.687 296.131 529.388 290.91C537.089 285.689 543.421 277.992 545.466 268.927C552.348 238.384 516.264 233.217 494.629 235.378Z" fill="url(#paint8_linear_0_1064)"/>
<path d="M540.215 287.543C537.855 283.411 535.036 279.612 531.091 276.912C523.164 271.511 512.085 271.376 502.853 271.322C493.152 271.259 483.172 271.511 473.93 274.77C465.923 277.596 459.996 282.943 455.348 289.947C453.223 293.16 451.367 296.536 449.494 299.912C443.08 295.321 438.379 288.083 438.532 280.261C439.108 250.555 482.388 243.857 504.627 241.301C516.193 239.978 527.524 241.958 536.964 251.266C545.304 259.484 548.574 273.14 543.017 283.438C542.224 284.897 541.285 286.273 540.215 287.543Z" fill="#E537A8"/>
<path d="M522.011 242.966C549.312 248.007 560.743 256.424 568.111 262.941C575.479 269.459 596.204 296.491 583.711 306.447C571.218 316.403 547.781 282.322 545.061 278.218C542.341 274.113 506.879 262.914 506.879 262.914L522.011 242.966Z" fill="#E537A8"/>
<path d="M503.591 246.972C528.668 256.478 545.421 268.901 546.673 273.374C547.925 277.848 556.888 307.077 543.593 312.082C530.298 317.087 525.038 303.846 521.309 287.579L518.516 276.921L489.459 258.738L503.591 246.972Z" fill="#E537A8"/>
<path d="M518.516 276.921C522.785 290.289 529.325 329.42 514.589 334.182C499.853 338.944 495.439 303.981 491.098 290.451C486.756 276.921 476.154 275.67 469.039 290.55C461.923 305.43 445.899 334.065 428.091 331.139C410.284 328.213 426.407 306.456 432.469 293.376C438.531 280.297 437.72 262.266 454.924 254.894C472.128 247.521 511.517 255.011 518.516 276.921Z" fill="#E537A8"/>
<path d="M510.021 240.941C535.593 238.663 567.983 246.162 580.575 250.348C593.168 254.533 600.04 261.96 595.888 271.304C591.735 280.648 551.013 271.907 551.013 271.907L510.021 240.941Z" fill="#E537A8"/>
<path d="M520.092 320.337C523.055 311.848 522.236 302.378 520.831 293.673C519.615 286.112 518.39 277.695 511.661 272.924C506.68 269.386 498.898 269.458 495.079 274.229C489.917 280.702 493.502 288.884 495.484 295.834C497.979 304.592 499.159 314.341 502.609 322.74C503.87 325.81 505.932 328.411 509.508 328.6C510.849 328.617 512.178 328.361 513.417 327.849C514.656 327.337 515.777 326.579 516.714 325.621C518.239 324.149 519.397 322.338 520.092 320.337Z" fill="#FE50B3"/>
<path d="M543.358 309.876C550.563 306.6 547.528 287.498 545.772 276.741C544.015 265.984 526.226 259.106 522.1 262.338C517.975 265.57 520.101 273.419 523.064 281.539C526.028 289.658 529.811 315.998 543.358 309.876Z" fill="#FE50B3"/>
<path d="M546.674 260.979C554.591 257.891 574.668 269.72 581.136 283.429C587.603 297.139 586.36 303.395 578.704 305.619C571.047 307.842 555.131 286.715 551.033 279.226C546.935 271.736 541.864 262.86 546.674 260.979Z" fill="#FE50B3"/>
<path d="M561.345 249.106C581.242 252.4 593.862 260.979 592.97 268.225C592.078 275.472 571.289 266.866 567.254 262.005C563.219 257.144 561.345 249.106 561.345 249.106Z" fill="#FE50B3"/>
<path d="M451.519 274.94C465.876 280.026 439.728 332.552 428.739 327.151C417.75 321.75 431.955 303.548 435.441 292.854C438.926 282.16 443.196 271.97 451.519 274.94Z" fill="#FE50B3"/>
<path d="M580.288 286.742C582.044 290.109 583.26 294.015 582.315 297.697C581.369 301.379 577.649 304.512 573.938 303.701C571.362 303.134 569.497 300.956 567.93 298.831C564.426 294.087 550.987 276.579 559.571 271.763C566.858 267.667 577.514 281.449 580.288 286.742Z" fill="#FF96CE"/>
<path d="M587.963 261.312C589.269 262.509 590.422 264.211 590.044 265.948C589.612 267.865 587.468 268.927 585.54 269.008C582.838 269.116 580.226 267.91 577.902 266.506C574.758 264.616 571.678 259.431 576.623 257.405C579.911 256.037 585.639 259.205 587.963 261.312Z" fill="#FF96CE"/>
<path d="M541.476 276.327C542.971 278.082 543.511 280.441 543.889 282.718C544.96 289.109 545.178 295.614 544.538 302.063C544.34 304.025 543.953 306.186 542.403 307.401C541.609 307.933 540.68 308.23 539.723 308.257C538.767 308.284 537.822 308.041 536.999 307.554C535.351 306.539 533.99 305.12 533.045 303.431C529.58 297.907 527.898 291.453 528.226 284.942C528.253 282.779 528.758 280.649 529.703 278.703C531.811 274.661 538.062 272.321 541.476 276.327Z" fill="#FF96CE"/>
<path d="M512.977 284.915C515.04 287.075 515.986 290.064 516.697 293.016C518.254 299.444 518.981 306.045 518.859 312.658C518.778 316.502 517.886 321.102 514.355 322.506C513.399 322.837 512.379 322.942 511.376 322.812C510.373 322.683 509.413 322.322 508.573 321.759C506.898 320.611 505.536 319.064 504.609 317.258C500.853 310.489 501.06 302.306 501.376 294.565C501.574 288.524 505.348 276.912 512.977 284.915Z" fill="#FF96CE"/>
<path d="M446.06 300.389C445.553 307.177 442.821 313.609 438.287 318.69C437.203 320.041 435.792 321.094 434.189 321.75C433.375 322.059 432.49 322.125 431.639 321.941C430.789 321.758 430.01 321.332 429.397 320.715C428.316 319.446 428.325 317.591 428.55 315.935C429.379 309.742 432.36 304.08 435.288 298.561C438.863 291.801 446.745 290.838 446.06 300.389Z" fill="#FF96CE"/>
<path d="M102.477 235.378C113.195 236.44 124.094 239.581 132.255 246.594C136.101 249.87 139.194 253.939 141.32 258.52C143.447 263.102 144.558 268.089 144.577 273.14C144.442 283.213 139.172 293.205 130.615 298.543C119.807 305.295 105.899 304.097 93.4873 301.199C84.4259 299.083 75.4186 296.131 67.7174 290.91C60.0161 285.689 53.684 277.992 51.6393 268.927C44.7577 238.384 80.841 233.217 102.477 235.378Z" fill="url(#paint9_linear_0_1064)"/>
<path d="M145.595 345.362C117.348 355.642 86.1464 356.461 56.6745 350.763C47.7122 349.026 38.6599 346.613 31.1027 341.473C23.5456 336.333 17.6728 327.997 17.5107 318.869C17.4567 315.548 18.7087 311.596 21.9243 310.768C25.1399 309.94 27.8871 312.568 30.22 314.747C42.6952 326.575 59.2596 333.65 76.2744 336.162C93.2892 338.673 110.736 336.873 127.4 332.606C134.065 330.905 145.748 326.125 151.99 331.148C158.88 336.693 151.152 343.354 145.595 345.362Z" fill="#0DFC65"/>
<path d="M110.999 269.891C157.665 284.294 158.881 321.111 155.63 331.004C152.378 340.897 99.6223 357.613 53.1806 344.255C6.73891 330.896 11.4587 286.535 49.8029 276.795C88.147 267.055 108.053 268.982 110.999 269.891Z" fill="url(#paint10_linear_0_1064)"/>
<path d="M113.953 295.285C110.134 297.238 109.116 302.099 108.179 306.285C106.668 313.084 104.276 319.657 101.063 325.837C99.1269 329.573 96.749 333.3 93.128 335.469C89.5071 337.638 84.3729 337.773 81.4185 334.749C78.6443 331.886 78.6623 327.439 78.0768 323.497C77.4913 319.554 75.1764 315.008 71.1862 314.972C68.0156 314.972 65.6557 317.807 62.7373 319.032C57.8644 321.075 52.0547 318.06 49.2264 313.631C46.3981 309.202 45.7135 303.729 45.1461 298.49C39.7802 303.657 33.1275 307.293 25.8794 309.022C23.7447 309.526 21.3758 309.832 19.4392 308.833C14.9355 306.537 16.0074 299.885 18.1421 295.33C22.7876 285.449 29.486 276.671 37.7913 269.58C46.0965 262.489 55.8181 257.247 66.3087 254.204C76.7993 251.161 87.8182 250.387 98.6317 251.932C109.445 253.477 119.805 257.307 129.022 263.167C141.632 271.196 158.629 286.94 157.611 303.333C156.711 318.231 143.83 327.97 133.436 313.469C129.292 307.725 124.699 289.794 113.953 295.285Z" fill="#2E0066"/>
<path d="M61.8459 318.824C61.9065 310.908 63.6054 303.089 66.8359 295.861C68.3402 292.503 70.619 288.947 74.24 288.272C81.671 286.877 84.0489 296.05 83.7607 301.505C83.3463 309.607 80.0677 317.231 76.4738 324.352C75.5605 326.399 74.3192 328.284 72.7988 329.933C72.0284 330.75 71.0826 331.382 70.0327 331.781C68.9827 332.18 67.8559 332.336 66.7369 332.237C61.4676 331.454 61.8189 322.776 61.8459 318.824Z" fill="url(#paint11_linear_0_1064)"/>
<path d="M56.892 287.543C59.2519 283.411 62.0712 279.612 66.0164 276.912C73.9429 271.511 85.0219 271.376 94.2543 271.322C103.955 271.259 113.935 271.511 123.177 274.77C131.184 277.596 137.111 282.943 141.759 289.947C143.885 293.16 145.74 296.536 147.614 299.912C154.027 295.321 158.729 288.083 158.576 280.261C157.999 250.555 114.719 243.857 92.4799 241.301C80.9145 239.978 69.5833 241.958 60.1436 251.266C51.8029 259.484 48.5332 273.14 54.0907 283.438C54.8836 284.897 55.8221 286.273 56.892 287.543Z" fill="#E537A8"/>
<path d="M75.0949 242.966C47.7937 248.007 36.3634 256.424 28.9954 262.941C21.6275 269.459 0.937667 296.491 13.4218 306.447C25.9059 316.403 49.352 282.322 52.0722 278.218C54.7924 274.113 90.2542 262.914 90.2542 262.914L75.0949 242.966Z" fill="#E537A8"/>
<path d="M93.5148 246.972C68.4384 256.478 51.6758 268.901 50.4328 273.374C49.1898 277.848 40.2185 307.077 53.5133 312.082C66.8081 317.087 72.0954 303.846 75.7974 287.543L78.5897 276.885L107.647 258.738L93.5148 246.972Z" fill="#E537A8"/>
<path d="M78.5902 276.921C74.3208 290.289 67.7815 329.42 82.5174 334.182C97.2534 338.944 101.694 303.981 106.008 290.451C110.323 276.921 120.952 275.67 128.067 290.55C135.183 305.43 151.198 334.065 169.015 331.139C186.831 328.213 170.699 306.456 164.637 293.376C158.575 280.297 159.386 262.266 142.182 254.894C124.978 247.521 85.6069 255.011 78.5902 276.921Z" fill="#E537A8"/>
<path d="M87.0836 240.941C61.5118 238.663 29.1215 246.162 16.5293 250.348C3.93709 254.533 -2.93549 261.96 1.21689 271.304C5.36926 280.648 46.0913 271.907 46.0913 271.907L87.0836 240.941Z" fill="#E537A8"/>
<path d="M77.013 320.337C74.0496 311.848 74.8693 302.378 76.2744 293.673C77.4904 286.112 78.7154 277.695 85.4439 272.924C90.4249 269.386 98.2072 269.458 102.026 274.229C107.188 280.702 103.603 288.884 101.621 295.834C99.126 304.592 97.946 314.341 94.4962 322.74C93.2352 325.81 91.1725 328.411 87.5966 328.6C86.2563 328.617 84.9266 328.361 83.688 327.849C82.4495 327.337 81.3277 326.579 80.3908 325.621C78.8656 324.149 77.7085 322.338 77.013 320.337Z" fill="#FE50B3"/>
<path d="M53.7476 309.877C46.4967 306.6 49.5772 287.543 51.3787 276.741C53.1801 265.939 70.9245 259.107 75.0499 262.338C79.1752 265.57 77.0495 273.419 74.0861 281.539C71.1227 289.659 67.2946 315.998 53.7476 309.877Z" fill="#FE50B3"/>
<path d="M50.4773 260.979C42.5599 257.891 22.4826 269.72 16.0153 283.429C9.54806 297.139 10.7911 303.395 18.4473 305.619C26.1035 307.842 42.0194 286.715 46.1178 279.226C50.2161 271.736 55.2422 262.86 50.4773 260.979Z" fill="#FE50B3"/>
<path d="M35.7597 249.106C15.8535 252.4 3.24325 260.979 4.13497 268.225C5.0267 275.472 25.8156 266.839 29.8509 262.005C33.8861 257.171 35.7597 249.106 35.7597 249.106Z" fill="#FE50B3"/>
<path d="M145.586 274.94C131.228 280.026 157.376 332.552 168.365 327.151C179.354 321.75 165.149 303.548 161.664 292.854C158.178 282.16 153.899 271.97 145.586 274.94Z" fill="#FE50B3"/>
<path d="M16.818 286.742C15.0166 290.109 13.8456 294.015 14.7914 297.697C15.7372 301.379 19.4572 304.512 23.1682 303.701C25.7443 303.134 27.6088 300.956 29.1761 298.831C32.6799 294.087 46.1188 276.579 37.5349 271.763C30.2479 267.667 19.5923 281.449 16.818 286.742Z" fill="#FF96CE"/>
<path d="M9.14338 261.312C7.83732 262.509 6.68438 264.211 7.06269 265.948C7.49504 267.865 9.63878 268.927 11.5663 269.008C14.2685 269.116 16.8807 267.91 19.2045 266.506C22.3481 264.616 25.4286 259.431 20.4836 257.405C17.1959 256.037 11.4673 259.205 9.14338 261.312Z" fill="#FF96CE"/>
<path d="M55.6301 276.327C54.1348 278.082 53.5944 280.441 53.2161 282.718C52.1453 289.109 51.9272 295.614 52.5676 302.063C52.7657 304.025 53.153 306.186 54.7023 307.401C55.497 307.933 56.4261 308.23 57.3824 308.257C58.3387 308.284 59.2832 308.041 60.1067 307.554C61.7548 306.539 63.1159 305.12 64.0609 303.431C67.5255 297.907 69.2078 291.453 68.8798 284.942C68.8523 282.779 68.3479 280.649 67.4026 278.703C65.2949 274.661 59.0438 272.321 55.6301 276.327Z" fill="#FF96CE"/>
<path d="M84.1299 284.915C82.0582 287.075 81.1215 290.064 80.4099 293.016C78.8497 299.456 78.1231 306.069 78.2481 312.694C78.3292 316.538 79.2209 321.138 82.7518 322.542C83.7078 322.873 84.7277 322.978 85.7311 322.848C86.7345 322.719 87.6941 322.358 88.5345 321.795C90.2089 320.647 91.571 319.1 92.4977 317.294C96.2538 310.525 96.0466 302.342 95.7313 294.601C95.5152 288.524 91.7771 276.912 84.1299 284.915Z" fill="#FF96CE"/>
<path d="M151.046 300.389C151.553 307.177 154.285 313.609 158.819 318.689C159.907 320.054 161.328 321.117 162.944 321.777C163.758 322.085 164.643 322.152 165.493 321.968C166.344 321.784 167.123 321.358 167.736 320.742C168.817 319.472 168.808 317.618 168.583 315.962C167.754 309.768 164.773 304.106 161.845 298.588C158.242 291.801 150.361 290.838 151.046 300.389Z" fill="#FF96CE"/>
<path d="M396.943 251.464C398.105 240.365 408.653 234.946 408.653 234.946C408.653 234.946 373.957 187.866 367.859 175.534C361.761 163.201 359.275 159.51 347.592 152.813C354.654 156.252 361.572 160.528 364.22 163.786C364.594 164.249 364.898 164.765 365.121 165.317C373.668 179.314 404.392 228.815 412.679 234.783C421.317 240.995 477.226 221.083 511.643 228.743C517.33 230.057 522.598 232.775 526.964 236.647C499.041 222.064 456.887 233.127 430.162 237.088C399.853 241.571 396.943 251.464 396.943 251.464Z" fill="#FFA2A4"/>
<path d="M200.161 251.464C198.999 240.365 188.452 234.946 188.452 234.946C188.452 234.946 223.148 187.866 229.246 175.534C235.344 163.201 237.83 159.51 249.512 152.813C242.45 156.252 235.533 160.528 232.885 163.786C232.51 164.249 232.206 164.765 231.984 165.317C223.436 179.314 192.712 228.815 184.425 234.783C175.787 240.995 119.879 221.083 85.4619 228.743C79.8219 230.057 74.5972 232.751 70.2576 236.584C98.1802 222.001 140.334 233.064 167.059 237.025C197.297 241.571 200.161 251.464 200.161 251.464Z" fill="#0DFC65"/>
<path d="M356.51 168.116C350.489 178.687 347.699 190.789 348.485 202.926C344.927 191.053 348.44 177.559 356.51 168.116Z" fill="#2E0066"/>
<path d="M240.595 168.116C246.622 178.685 249.419 190.787 248.639 202.926C252.179 191.053 248.639 177.559 240.595 168.116Z" fill="#2E0066"/>
<path d="M280.912 84.4087C278.255 84.4105 275.657 83.6246 273.447 82.1505C271.237 80.6764 269.515 78.5803 268.497 76.1274C267.479 73.6745 267.213 70.9751 267.731 68.3708C268.248 65.7664 269.528 63.374 271.406 61.4964C273.285 59.6188 275.679 58.3404 278.285 57.8228C280.891 57.3052 283.592 57.5717 286.046 58.5887C288.501 59.6057 290.598 61.3273 292.073 63.5359C293.548 65.7445 294.334 68.3407 294.333 70.996C294.326 74.5511 292.909 77.9585 290.394 80.4723C287.879 82.9861 284.469 84.4015 280.912 84.4087ZM280.912 61.202C278.974 61.202 277.079 61.7764 275.467 62.8526C273.856 63.9288 272.6 65.4584 271.858 67.248C271.116 69.0376 270.922 71.0069 271.3 72.9067C271.678 74.8065 272.612 76.5517 273.982 77.9214C275.353 79.2911 277.099 80.2239 279 80.6018C280.901 80.9797 282.871 80.7857 284.662 80.0444C286.453 79.3031 287.983 78.0478 289.06 76.4372C290.137 74.8266 290.712 72.9331 290.712 70.996C290.709 68.3992 289.676 65.9095 287.839 64.0732C286.001 62.237 283.51 61.2044 280.912 61.202Z" fill="#FEFEFE"/>
<path d="M313.536 84.4087C310.879 84.4105 308.281 83.6246 306.071 82.1505C303.861 80.6764 302.138 78.5803 301.121 76.1274C300.103 73.6745 299.836 70.9751 300.354 68.3708C300.872 65.7664 302.151 63.374 304.03 61.4964C305.909 59.6188 308.303 58.3404 310.909 57.8228C313.515 57.3052 316.216 57.5717 318.67 58.5887C321.125 59.6057 323.222 61.3273 324.697 63.5359C326.172 65.7445 326.958 68.3407 326.956 70.996C326.949 74.5511 325.533 77.9585 323.018 80.4723C320.502 82.9861 317.093 84.4015 313.536 84.4087ZM313.536 61.202C311.597 61.202 309.703 61.7764 308.091 62.8526C306.479 63.9288 305.223 65.4584 304.482 67.248C303.74 69.0376 303.546 71.0069 303.924 72.9067C304.302 74.8065 305.235 76.5517 306.606 77.9214C307.977 79.2911 309.723 80.2239 311.624 80.6018C313.525 80.9797 315.495 80.7857 317.286 80.0444C319.077 79.3031 320.607 78.0478 321.684 76.4372C322.761 74.8266 323.336 72.9331 323.336 70.996C323.333 68.3992 322.3 65.9095 320.463 64.0732C318.625 62.237 316.134 61.2044 313.536 61.202Z" fill="#FEFEFE"/>
<path d="M292.504 73.3635C292.137 73.3627 291.779 73.2496 291.477 73.0395C291.28 72.9051 291.112 72.733 290.982 72.5331C290.852 72.3332 290.764 72.1096 290.721 71.8751C290.678 71.6407 290.682 71.4 290.733 71.1672C290.784 70.9344 290.881 70.7141 291.018 70.519L291.279 70.1409C291.949 69.1671 292.842 68.368 293.884 67.8104C294.926 67.2528 296.087 66.953 297.269 66.9362H297.422C298.577 66.9313 299.716 67.1976 300.749 67.7136C301.782 68.2295 302.678 68.9808 303.367 69.9068C303.657 70.29 303.783 70.7727 303.718 71.2488C303.652 71.7248 303.399 72.1553 303.016 72.4453C302.632 72.7354 302.149 72.8614 301.673 72.7955C301.197 72.7297 300.766 72.4774 300.476 72.0943C300.115 71.6041 299.64 71.2088 299.093 70.9423C298.545 70.6757 297.941 70.5459 297.332 70.564C296.726 70.5745 296.131 70.7295 295.597 71.016C295.063 71.3025 294.605 71.7123 294.261 72.2113L293.999 72.5984C293.831 72.8377 293.607 73.0325 293.347 73.1658C293.086 73.2991 292.797 73.367 292.504 73.3635Z" fill="#FEFEFE"/>
<path d="M262.528 71.905C262.528 71.905 256.547 55.7018 253.169 43.4864C249.791 31.2709 247.152 21.0899 264.852 19.6676C266.338 10.8008 274.039 3.20331 283.01 2.56418C290.153 2.01507 297.206 5.26472 304.349 4.60759C309.014 4.17551 313.356 2.11409 317.86 0.889845C322.363 -0.334399 327.615 -0.622452 331.371 2.16811C334.973 4.86865 336.424 9.6756 339.973 12.4122C342.756 14.5636 346.422 15.1127 349.836 15.9499C353.249 16.787 356.897 18.2813 358.492 21.423C361.194 26.761 356.744 34.1605 360.392 38.9135C362.049 41.0649 364.968 41.9741 366.526 44.1975C368.084 46.4209 367.922 49.2205 367.238 51.741C366.553 54.2615 365.346 56.62 364.815 59.1765C364.283 61.733 364.545 64.6856 366.409 66.513C368.274 68.3403 371.985 68.1873 373.029 65.7928C371.727 68.184 369.751 70.1404 367.346 71.419C366.174 72.0499 364.86 72.3727 363.529 72.3569C362.197 72.3412 360.892 71.9874 359.735 71.3289C358.212 70.3657 357.14 68.7814 355.537 67.9713C353.114 66.738 350.205 67.5572 347.584 68.2773C344.963 68.9975 341.891 69.5286 339.729 67.8812C337.342 66.0809 337.27 62.5522 337.378 59.5546C337.487 56.557 337.315 53.0283 334.838 51.3269C332.695 49.8506 329.839 50.4267 327.245 50.4808C324.2 50.4773 321.214 49.6354 318.616 48.0474C316.018 46.4594 313.909 44.1868 312.518 41.479C310.104 44.1269 307.191 46.2719 303.944 47.7905C300.698 49.3091 297.184 50.1714 293.603 50.3277C286.298 50.7958 279.02 49.3645 271.841 47.9423C268.59 56.1429 265.752 63.6774 262.528 71.905Z" fill="url(#paint12_linear_0_1064)"/>
<path d="M324.301 46.6819L331.623 71.5989L337.064 43.7743L324.301 46.6819Z" fill="url(#paint13_linear_0_1064)"/>
<path d="M475.624 246.504C485.141 244.061 494.826 242.331 504.601 241.328C506.402 241.118 508.203 241.001 510.005 240.977H509.951C535.523 238.699 567.913 246.198 580.505 250.384C591.89 254.165 598.583 260.592 596.718 268.684C596.057 264.707 594.024 261.086 590.972 258.449C586.297 254.381 580.163 252.508 574.164 250.888C557.726 246.432 540.891 243.002 523.831 242.255C515.787 241.757 507.715 242.013 499.719 243.02L475.624 246.504Z" fill="#FFA2A4"/>
<path d="M121.456 246.504C111.939 244.061 102.253 242.331 92.479 241.328C90.6775 241.118 88.8761 241.001 87.0746 240.977H87.1286C61.5569 238.699 29.1666 246.198 16.5743 250.384C5.14407 254.129 -1.54837 260.538 0.307139 268.639C0.968798 264.662 3.00176 261.041 6.05381 258.404C10.7286 254.336 16.8626 252.463 22.8615 250.843C39.2998 246.387 56.1345 242.957 73.1943 242.21C81.2381 241.712 89.3109 241.968 97.3069 242.975L121.456 246.504Z" fill="#FFA2A4"/>
<path d="M254.736 26.6712C253.82 27.9407 253.167 29.3812 252.817 30.9074C252.468 32.4335 252.428 34.0142 252.701 35.556C253.277 38.6309 254.312 41.6017 255.772 44.3687C254.884 40.5154 255.309 36.4761 256.979 32.8914C256.979 35.592 256.979 38.2385 256.979 40.912C257.295 38.2467 258.37 35.7282 260.078 33.6566C258.812 41.5934 259.118 49.7013 260.978 57.5204C263.312 51.1455 265.309 44.6522 266.959 38.0675L262.618 43.4235C263.22 38.6238 264.205 33.8797 265.563 29.2367C263.057 28.8705 260.498 29.1525 258.132 30.0559C260.834 28.6966 262.564 26.2931 265.689 25.1859C262.149 23.0885 257.502 23.2325 254.736 26.6712Z" fill="url(#paint14_linear_0_1064)"/>
<path d="M267.824 22.6564C268.57 21.2521 269.614 20.0279 270.884 19.0699C272.154 18.112 273.618 17.4435 275.174 17.1113C273.763 19.3018 272.351 21.4892 270.94 23.6736C275.288 21.0769 280.111 19.3752 285.127 18.6686L271.616 28.4986C274.843 25.5745 278.755 23.5086 282.99 22.4908C287.226 21.4731 291.65 21.5362 295.855 22.6744C299.349 23.6646 303.186 25.375 306.411 23.7006C308.618 22.5574 309.915 20.0549 312.203 19.1007C315.256 17.8315 318.634 19.7939 321.273 21.8013C323.912 23.8087 326.93 26.0681 330.172 25.402C331.83 25.0689 333.235 24.0067 334.82 23.4486C335.874 23.1295 336.981 23.0235 338.076 23.1368C339.171 23.2501 340.233 23.5804 341.199 24.1084C342.165 24.6364 343.016 25.3515 343.702 26.2119C344.389 27.0724 344.897 28.0609 345.197 29.1197C345.366 26.6754 344.698 24.2462 343.303 22.231C341.909 20.2158 339.87 18.7342 337.522 18.0295C335.523 17.4804 333.163 17.4174 331.812 15.8511C330.1 13.8797 331.028 10.8011 330.235 8.31657C329.272 5.29196 325.732 3.63563 322.588 3.88768C319.445 4.13973 316.562 5.89508 314.04 7.83047C311.518 9.76585 309.158 11.9713 306.303 13.3936C299.944 16.5532 292.378 15.338 285.397 14.0417C290.986 11.745 297.186 11.3962 302.997 13.0515C296.92 9.72797 289.866 8.65069 283.073 10.0089L291.648 6.86728C285.775 3.59962 281.497 4.51781 276.453 8.42459C271.156 12.5474 270.652 17.2464 267.824 22.6564Z" fill="url(#paint15_linear_0_1064)"/>
<path d="M287.37 29.6865C292.044 29.9835 296.611 31.8379 301.25 30.9737C304.483 30.3706 307.393 28.5522 310.626 27.9311C313.701 27.4278 316.855 27.9932 319.563 29.5331C322.271 31.073 324.369 33.4941 325.507 36.3928C321.723 33.4582 317.4 30.3616 312.617 30.9917C308.78 31.5228 305.763 34.3764 302.475 36.4378C299.187 38.4992 294.566 39.6875 291.666 37.0859C296.685 39.6036 302.456 40.1899 307.879 38.7333C304.426 40.3616 300.678 41.2738 296.862 41.4145C293.046 41.5553 289.241 40.9219 285.676 39.5524C289.93 42.5114 294.838 44.3956 299.98 45.0435C295.759 46.1167 291.349 46.2198 287.082 45.3451C282.815 44.4705 278.802 42.6408 275.345 39.9935L286.334 37.293L275.048 36.6088L289.414 32.7921C284.334 34.1423 279.065 32.252 273.931 33.0351C277.326 32.522 280.515 30.3346 284.055 29.7945C285.153 29.6464 286.264 29.6103 287.37 29.6865Z" fill="url(#paint16_linear_0_1064)"/>
<path d="M355.44 33.4854C354.962 35.7989 353.953 38.1124 354.944 40.1378C356.25 42.8383 360.285 42.4422 362.681 44.2336C364.888 45.8989 365.249 49.1306 364.609 51.8221C363.969 54.5136 362.555 56.9711 361.907 59.6447C361.258 62.3182 361.492 65.5588 363.627 67.3142C362.161 67.0343 360.818 66.3062 359.784 65.2307C358.75 64.1551 358.075 62.7851 357.854 61.31C357.776 59.4876 357.989 57.6646 358.484 55.9089C358.973 54.1308 358.904 52.2454 358.286 50.5078C357.529 48.8425 355.485 47.6273 353.782 48.3744C355.584 48.9145 356.367 51.1199 356.124 52.9833C355.881 54.8467 354.935 56.521 354.386 58.3214C353.836 60.1218 353.773 62.2822 355.079 63.6325C352.521 63.5784 351.26 60.4278 351.305 57.8803C351.35 55.3328 351.981 52.5512 350.63 50.3818C349.729 48.9595 348.18 48.1314 346.865 47.0872C345.045 45.5927 343.672 43.6257 342.898 41.4023C342.124 39.1789 341.979 36.7853 342.478 34.4846C342.637 36.3518 343.204 38.1615 344.137 39.7866C345.071 41.4117 346.349 42.8128 347.882 43.8915C346.945 42.6112 346.287 41.1482 345.952 39.5974C345.617 38.0466 345.612 36.4426 345.937 34.8897C346.63 38.1862 348.448 41.1393 351.08 43.2434C349.11 39.9778 348.142 36.2062 348.297 32.3962L351.44 37.2212C350.594 35.9249 351.557 33.5304 351.611 32.1982C351.829 29.4963 351.27 26.7884 349.999 24.3936C350.314 24.9517 352.701 25.7349 353.314 26.374C354.364 27.4397 355.111 28.7668 355.476 30.2178C355.72 31.2947 355.708 32.4141 355.44 33.4854Z" fill="url(#paint17_linear_0_1064)"/>
<g style="mix-blend-mode:overlay">
<path d="M313.564 10.4585C310.218 13.7226 306.037 16.0016 301.479 17.045C296.922 18.0884 292.165 17.8558 287.731 16.3727C292.234 19.2263 297.161 20.3695 302.287 18.8392C307.412 17.3089 311.357 15.3285 313.564 10.4585Z" fill="#F8E8D8"/>
</g>
<g style="mix-blend-mode:overlay">
<path d="M258.429 25.6808C256.975 26.1764 255.744 27.173 254.957 28.4923C254.17 29.8115 253.878 31.3676 254.133 32.8822C254.847 30.1208 256.338 27.6217 258.429 25.6808Z" fill="#F8E8D8"/>
</g>
<g style="mix-blend-mode:overlay">
<path d="M361.987 46.4029C362.968 48.3113 362.392 50.6338 361.653 52.6592C360.915 54.6846 359.987 56.773 360.347 58.8974C358.6 55.5037 360.771 51.0028 358.861 47.6992C357.96 46.1509 356.348 45.2057 354.952 44.0985C353.556 42.9912 352.25 41.3979 352.421 39.5976C352.025 43.8104 360.383 43.2703 361.987 46.4029Z" fill="#F8E8D8"/>
</g>
<g style="mix-blend-mode:overlay">
<path d="M305.6 30.353C303.205 31.8362 300.479 32.7051 297.667 32.8825C294.854 33.06 292.041 32.5405 289.477 31.3702C290.522 32.4062 291.771 33.214 293.145 33.7424C294.519 34.2708 295.987 34.5083 297.458 34.4398C300.603 34.1949 303.526 32.7277 305.6 30.353Z" fill="#F8E8D8"/>
</g>
<defs>
<linearGradient id="paint0_linear_0_1064" x1="188.939" y1="145.234" x2="430.217" y2="153.237" gradientUnits="userSpaceOnUse">
<stop stop-color="#DC2670"/>
<stop offset="0.03" stop-color="#CB2272"/>
<stop offset="0.11" stop-color="#A11978"/>
<stop offset="0.2" stop-color="#7D117D"/>
<stop offset="0.29" stop-color="#600B81"/>
<stop offset="0.38" stop-color="#490684"/>
<stop offset="0.48" stop-color="#390386"/>
<stop offset="0.6" stop-color="#300188"/>
<stop offset="0.76" stop-color="#2D0088"/>
<stop offset="0.78" stop-color="#2D0688"/>
<stop offset="0.82" stop-color="#2D1588"/>
<stop offset="0.85" stop-color="#2D2F88"/>
<stop offset="0.89" stop-color="#2D5488"/>
<stop offset="0.93" stop-color="#2D8288"/>
<stop offset="0.98" stop-color="#2DBA88"/>
<stop offset="1" stop-color="#FCA311"/>
</linearGradient>
<linearGradient id="paint1_linear_0_1064" x1="302.178" y1="142.614" x2="293.767" y2="465.851" gradientUnits="userSpaceOnUse">
<stop stop-color="#FF0098"/>
<stop offset="0.14" stop-color="#B70087"/>
<stop offset="0.2" stop-color="#92007E"/>
<stop offset="0.25" stop-color="#770078"/>
<stop offset="0.31" stop-color="#620073"/>
<stop offset="0.34" stop-color="#5A0071"/>
<stop offset="0.45" stop-color="#48006D"/>
<stop offset="0.6" stop-color="#390069"/>
<stop offset="0.76" stop-color="#300067"/>
<stop offset="1" stop-color="#2D0066"/>
</linearGradient>
<linearGradient id="paint2_linear_0_1064" x1="249.837" y1="325.603" x2="241.974" y2="206.734" gradientUnits="userSpaceOnUse">
<stop stop-color="#AD009C"/>
<stop offset="0.08" stop-color="#8E008F"/>
<stop offset="0.17" stop-color="#700082"/>
<stop offset="0.27" stop-color="#570078"/>
<stop offset="0.38" stop-color="#440070"/>
<stop offset="0.51" stop-color="#37006A"/>
<stop offset="0.68" stop-color="#2F0067"/>
<stop offset="1" stop-color="#2D0066"/>
</linearGradient>
<linearGradient id="paint3_linear_0_1064" x1="352.467" y1="320.184" x2="345.414" y2="213.611" gradientUnits="userSpaceOnUse">
<stop stop-color="#AD009C"/>
<stop offset="0.08" stop-color="#8E008F"/>
<stop offset="0.17" stop-color="#700082"/>
<stop offset="0.27" stop-color="#570078"/>
<stop offset="0.38" stop-color="#440070"/>
<stop offset="0.51" stop-color="#37006A"/>
<stop offset="0.68" stop-color="#2F0067"/>
<stop offset="1" stop-color="#2D0066"/>
</linearGradient>
<linearGradient id="paint4_linear_0_1064" x1="301.891" y1="76.6398" x2="292.778" y2="238.313" gradientUnits="userSpaceOnUse">
<stop stop-color="#FF0098"/>
<stop offset="0.02" stop-color="#F50096"/>
<stop offset="0.11" stop-color="#C7008B"/>
<stop offset="0.21" stop-color="#9D0081"/>
<stop offset="0.31" stop-color="#7B0078"/>
<stop offset="0.41" stop-color="#5E0072"/>
<stop offset="0.53" stop-color="#48006D"/>
<stop offset="0.65" stop-color="#390069"/>
<stop offset="0.79" stop-color="#300067"/>
<stop offset="1" stop-color="#2D0066"/>
</linearGradient>
<linearGradient id="paint5_linear_0_1064" x1="298.099" y1="169.79" x2="299.529" y2="62.831" gradientUnits="userSpaceOnUse">
<stop stop-color="#FF0098"/>
<stop offset="0.02" stop-color="#F50096"/>
<stop offset="0.11" stop-color="#C7008B"/>
<stop offset="0.21" stop-color="#9D0081"/>
<stop offset="0.31" stop-color="#7B0078"/>
<stop offset="0.41" stop-color="#5E0072"/>
<stop offset="0.53" stop-color="#48006D"/>
<stop offset="0.65" stop-color="#390069"/>
<stop offset="0.79" stop-color="#300067"/>
<stop offset="1" stop-color="#2D0066"/>
</linearGradient>
<linearGradient id="paint6_linear_0_1064" x1="155.394" y1="138.311" x2="145.57" y2="515.829" gradientUnits="userSpaceOnUse">
<stop stop-color="#FF0098"/>
<stop offset="0.14" stop-color="#B70087"/>
<stop offset="0.2" stop-color="#92007E"/>
<stop offset="0.25" stop-color="#770078"/>
<stop offset="0.31" stop-color="#620073"/>
<stop offset="0.34" stop-color="#5A0071"/>
<stop offset="0.38" stop-color="#48006D"/>
<stop offset="0.43" stop-color="#390069"/>
<stop offset="0.49" stop-color="#300067"/>
<stop offset="0.57" stop-color="#2D0066"/>
</linearGradient>
<linearGradient id="paint7_linear_0_1064" x1="446.818" y1="145.891" x2="436.994" y2="523.409" gradientUnits="userSpaceOnUse">
<stop stop-color="#FF0098"/>
<stop offset="0.14" stop-color="#B70087"/>
<stop offset="0.2" stop-color="#92007E"/>
<stop offset="0.25" stop-color="#770078"/>
<stop offset="0.31" stop-color="#620073"/>
<stop offset="0.34" stop-color="#5A0071"/>
<stop offset="0.38" stop-color="#48006D"/>
<stop offset="0.43" stop-color="#390069"/>
<stop offset="0.49" stop-color="#300067"/>
<stop offset="0.57" stop-color="#2D0066"/>
</linearGradient>
<linearGradient id="paint8_linear_0_1064" x1="546.331" y1="269.224" x2="452.529" y2="269.224" gradientUnits="userSpaceOnUse">
<stop stop-color="#AD009C"/>
<stop offset="0.05" stop-color="#9D0095"/>
<stop offset="0.17" stop-color="#7B0087"/>
<stop offset="0.3" stop-color="#5E007B"/>
<stop offset="0.43" stop-color="#480072"/>
<stop offset="0.58" stop-color="#39006B"/>
<stop offset="0.75" stop-color="#300067"/>
<stop offset="1" stop-color="#2D0066"/>
</linearGradient>
<linearGradient id="paint9_linear_0_1064" x1="50.7746" y1="269.224" x2="144.577" y2="269.224" gradientUnits="userSpaceOnUse">
<stop stop-color="#AD009C"/>
<stop offset="0.05" stop-color="#9D0095"/>
<stop offset="0.17" stop-color="#7B0087"/>
<stop offset="0.3" stop-color="#5E007B"/>
<stop offset="0.43" stop-color="#480072"/>
<stop offset="0.58" stop-color="#39006B"/>
<stop offset="0.75" stop-color="#300067"/>
<stop offset="1" stop-color="#2D0066"/>
</linearGradient>
<linearGradient id="paint10_linear_0_1064" x1="91.3446" y1="356.965" x2="78.6688" y2="191.484" gradientUnits="userSpaceOnUse">
<stop stop-color="#AD009C"/>
<stop offset="0.05" stop-color="#9D0095"/>
<stop offset="0.17" stop-color="#7B0087"/>
<stop offset="0.3" stop-color="#5E007B"/>
<stop offset="0.43" stop-color="#480072"/>
<stop offset="0.58" stop-color="#39006B"/>
<stop offset="0.75" stop-color="#300067"/>
<stop offset="1" stop-color="#2D0066"/>
</linearGradient>
<linearGradient id="paint11_linear_0_1064" x1="83.7877" y1="310.21" x2="61.8369" y2="310.21" gradientUnits="userSpaceOnUse">
<stop stop-color="#AD009C"/>
<stop offset="0.05" stop-color="#9D0095"/>
<stop offset="0.17" stop-color="#7B0087"/>
<stop offset="0.3" stop-color="#5E007B"/>
<stop offset="0.43" stop-color="#480072"/>
<stop offset="0.58" stop-color="#39006B"/>
<stop offset="0.75" stop-color="#300067"/>
<stop offset="1" stop-color="#2D0066"/>
</linearGradient>
<linearGradient id="paint12_linear_0_1064" x1="274.408" y1="100.27" x2="346.371" y2="-3.13928" gradientUnits="userSpaceOnUse">
<stop stop-color="#000626"/>
<stop offset="0.09" stop-color="#0A0535"/>
<stop offset="0.27" stop-color="#1A034B"/>
<stop offset="0.46" stop-color="#25015A"/>
<stop offset="0.68" stop-color="#2B0063"/>
<stop offset="1" stop-color="#2D0066"/>
</linearGradient>
<linearGradient id="paint13_linear_0_1064" x1="291.172" y1="111.936" x2="363.135" y2="8.51804" gradientUnits="userSpaceOnUse">
<stop stop-color="#000626"/>
<stop offset="0.09" stop-color="#0A0535"/>
<stop offset="0.27" stop-color="#1A034B"/>
<stop offset="0.46" stop-color="#25015A"/>
<stop offset="0.68" stop-color="#2B0063"/>
<stop offset="1" stop-color="#2D0066"/>
</linearGradient>
<linearGradient id="paint14_linear_0_1064" x1="195.477" y1="-32.5337" x2="289.1" y2="69.5138" gradientUnits="userSpaceOnUse">
<stop stop-color="#FF0098"/>
<stop offset="0.02" stop-color="#F50096"/>
<stop offset="0.11" stop-color="#C7008B"/>
<stop offset="0.21" stop-color="#9D0081"/>
<stop offset="0.31" stop-color="#7B0078"/>
<stop offset="0.41" stop-color="#5E0072"/>
<stop offset="0.53" stop-color="#48006D"/>
<stop offset="0.65" stop-color="#390069"/>
<stop offset="0.79" stop-color="#300067"/>
<stop offset="1" stop-color="#2D0066"/>
</linearGradient>
<linearGradient id="paint15_linear_0_1064" x1="155.701" y1="-140.051" x2="369.599" y2="93.0911" gradientUnits="userSpaceOnUse">
<stop stop-color="#FF0098"/>
<stop offset="0.02" stop-color="#F50096"/>
<stop offset="0.11" stop-color="#C7008B"/>
<stop offset="0.21" stop-color="#9D0081"/>
<stop offset="0.31" stop-color="#7B0078"/>
<stop offset="0.41" stop-color="#5E0072"/>
<stop offset="0.53" stop-color="#48006D"/>
<stop offset="0.65" stop-color="#390069"/>
<stop offset="0.79" stop-color="#300067"/>
<stop offset="1" stop-color="#2D0066"/>
</linearGradient>
<linearGradient id="paint16_linear_0_1064" x1="207.979" y1="-63.1491" x2="337.283" y2="77.7989" gradientUnits="userSpaceOnUse">
<stop stop-color="#FF0098"/>
<stop offset="0.02" stop-color="#F50096"/>
<stop offset="0.11" stop-color="#C7008B"/>
<stop offset="0.21" stop-color="#9D0081"/>
<stop offset="0.31" stop-color="#7B0078"/>
<stop offset="0.41" stop-color="#5E0072"/>
<stop offset="0.53" stop-color="#48006D"/>
<stop offset="0.65" stop-color="#390069"/>
<stop offset="0.79" stop-color="#300067"/>
<stop offset="1" stop-color="#2D0066"/>
</linearGradient>
<linearGradient id="paint17_linear_0_1064" x1="256.359" y1="-60.8625" x2="397.626" y2="93.1185" gradientUnits="userSpaceOnUse">
<stop stop-color="#FF0098"/>
<stop offset="0.02" stop-color="#F50096"/>
<stop offset="0.11" stop-color="#C7008B"/>
<stop offset="0.21" stop-color="#9D0081"/>
<stop offset="0.31" stop-color="#7B0078"/>
<stop offset="0.41" stop-color="#5E0072"/>
<stop offset="0.53" stop-color="#48006D"/>
<stop offset="0.65" stop-color="#390069"/>
<stop offset="0.79" stop-color="#300067"/>
<stop offset="1" stop-color="#2D0066"/>
</linearGradient>
</defs>
</svg>
