<svg width="199" height="566" viewBox="0 0 199 566" fill="none" xmlns="http://www.w3.org/2000/svg">
<path d="M143.937 13.6196C143.801 17.676 133.703 35.0556 132.686 37.5366C131.669 40.0176 123.084 36.2961 122.104 37.9336C121.124 39.571 128.691 45.3766 136.755 61.0443C144.818 76.7119 143.416 84.8993 141.456 87.3679C139.496 89.8365 136.804 76.2033 136.134 76.7491C135.465 77.295 136.916 89.6132 134.088 93.4464C131.259 97.2796 125.838 94.8482 123.345 95.3196C120.851 95.791 114.029 97.5153 110.034 96.4981C106.04 95.4809 98.609 97.8254 99.8991 101.981C101.189 106.137 118.321 124.794 121.286 126.791C124.25 128.789 125.789 125.377 132.214 126.791C138.64 128.206 148.267 142.608 148.341 147.235C148.416 151.862 156.541 157.42 172.891 170.805C189.241 184.19 199.897 216.914 198.941 227.248C197.986 237.581 189.402 232.731 188.137 238.065C186.871 243.399 192.379 279.374 188.137 295.699C186.998 300.352 184.691 304.638 181.435 308.152C178.18 311.667 174.082 314.293 169.529 315.783L127.314 151.502L87.2087 141.107L88.6973 57.3724L106.598 22.514L143.937 13.6196Z" fill="#95CFFF"/>
<path d="M147.348 150.733C148.589 156.464 175.582 170.023 192.106 205.316C206.421 235.82 182.864 232.607 182.864 232.607L142.336 148.686L147.348 150.733Z" fill="#B82F11"/>
<path d="M141.021 147.483C141.021 147.483 163.598 169.242 172.033 190.665C180.469 212.089 186.597 239.355 188.011 272.031C189.425 304.706 178.608 314.779 168.734 316.689C158.859 318.599 141.244 317.148 127.139 312.099C113.035 307.05 141.021 147.483 141.021 147.483Z" fill="url(#paint0_linear_0_1808)"/>
<path d="M150.771 176.598C156.974 189.338 163.176 186.956 160.224 174.576C157.271 162.195 148.811 155.794 142.336 148.686C135.86 141.578 150.771 176.598 150.771 176.598Z" fill="#700011"/>
<path fill-rule="evenodd" clip-rule="evenodd" d="M145.015 313.153C140.598 299.222 165.942 257.926 174.874 253.46C183.805 248.994 188.519 284.87 181.92 303.08C175.32 321.291 145.015 313.153 145.015 313.153Z" fill="#81181B"/>
<path style="mix-blend-mode:multiply" opacity="0.8" fill-rule="evenodd" clip-rule="evenodd" d="M135.737 314.133C135.737 314.133 151.863 318.252 160.311 317.458C165.284 317.029 170.026 315.163 173.957 312.087C173.957 312.087 151.305 314.568 147.335 311.045C143.366 307.522 171.314 256.264 171.314 256.264C171.314 256.264 156.019 271.224 151.342 281.731C151.342 281.731 164.169 256.053 169.516 245C174.862 233.947 155.523 200.85 155.523 200.85L135.737 314.133Z" fill="url(#paint1_linear_0_1808)"/>
<path style="mix-blend-mode:multiply" opacity="0.8" fill-rule="evenodd" clip-rule="evenodd" d="M156.13 164.466C156.13 164.466 181.895 186.038 191.323 209.881C200.751 233.723 182.863 232.607 182.863 232.607C182.863 232.607 178.806 191.583 156.13 164.466Z" fill="url(#paint2_linear_0_1808)"/>
<path fill-rule="evenodd" clip-rule="evenodd" d="M60.1772 504.961C59.8817 509.163 59.3557 513.346 58.6018 517.49C57.5101 522.986 64.8788 531.136 69.5803 532.376C74.2818 533.617 76.155 524.077 76.4651 521.882C76.7753 519.686 77.4079 504.961 77.4079 504.961H60.1772Z" fill="url(#paint3_linear_0_1808)"/>
<path fill-rule="evenodd" clip-rule="evenodd" d="M136.357 505.346C139.063 511.22 140.338 517.652 140.078 524.115L158.686 522.117C158.686 522.117 155.151 501.55 154.22 493.97C153.29 486.391 136.357 505.346 136.357 505.346Z" fill="url(#paint4_linear_0_1808)"/>
<path d="M99.4275 351.225C99.4275 351.225 98.9809 353.854 98.3854 358.829C98.3234 359.275 98.2738 359.747 98.2118 360.231C97.7528 364.126 97.2318 369.224 96.7356 375.427C96.7356 375.539 96.7356 375.675 96.7356 375.811C95.7432 388.303 94.8996 405.199 95.0112 425.692C95.0112 434.835 95.0857 443.456 95.0857 451.383C95.0857 483.823 94.6887 504.911 94.6887 504.911C76.9991 515.481 55.501 506.549 53.479 504.911C51.4569 503.274 55.0296 428.285 54.8683 423.273C54.7939 420.792 54.4218 418.311 54.0868 415.83C53.6613 413.172 53.4621 410.483 53.4914 407.792C53.6774 402.619 56.1212 402.83 56.7539 386.17C57.1881 374.497 60.2273 352.676 61.9889 340.668C62.3362 338.274 62.6463 336.276 62.8696 334.837L63.0557 333.597L63.1549 333.001L63.2542 332.332L84.6406 324.243L98.1125 319.145L98.4723 327.729L98.8196 336.214L99.4275 351.225Z" fill="url(#paint5_linear_0_1808)"/>
<path d="M166.886 502.74C155.362 513.905 125.515 511.535 123.394 508.149C122.435 506.033 121.663 503.837 121.086 501.587C115.184 480.628 110.695 459.297 107.652 437.737C103.93 408.585 104.364 388.378 99.4271 363.617C99.1046 361.98 98.7448 360.379 98.3851 358.829C95.606 346.655 90.9612 334.985 84.6154 324.231L84.144 323.499C84.144 323.499 120.578 290.836 125.515 296.208C130.452 301.579 131.395 327.717 135.439 354.747C139.483 381.778 151.653 418.013 156.18 436.782C160.708 455.551 166.886 502.74 166.886 502.74Z" fill="url(#paint6_linear_0_1808)"/>
<path fill-rule="evenodd" clip-rule="evenodd" d="M86.8097 557.608H4.08008C4.50185 554.309 15.0214 548.528 25.5285 542.635C33.046 538.418 40.5387 534.15 44.3346 530.689C45.6496 529.449 46.8157 528.208 47.9197 527.055C54.2587 519.996 56.7149 513.781 58.5881 517.528C58.5881 517.528 63.9223 528.965 69.914 530.144C75.9056 531.322 76.1165 518.768 76.1165 518.768C76.1165 518.768 77.6671 518.16 78.1385 520.393C78.4859 522.08 76.6499 524.958 78.0021 531.558C78.522 533.96 79.2697 536.307 80.235 538.567C80.3094 538.777 80.4087 538.988 80.4955 539.199C85.7553 551.406 86.8097 557.608 86.8097 557.608Z" fill="url(#paint7_linear_0_1808)"/>
<path fill-rule="evenodd" clip-rule="evenodd" d="M172.06 556.194C161.242 552.088 131.979 558.551 131.979 558.551C133.515 554.154 134.656 549.629 135.39 545.029C136.209 540.067 137.387 533.195 138.33 528.58C138.564 526.886 138.98 525.223 139.571 523.618C139.571 523.618 140.513 524.201 142.052 522.564C143.59 520.926 153.923 509.166 159.915 524.089L160.51 525.578C166.341 540.154 172.06 556.194 172.06 556.194Z" fill="url(#paint8_linear_0_1808)"/>
<path fill-rule="evenodd" clip-rule="evenodd" d="M4.08129 557.608C4.08129 557.608 0 563.575 0 564.828C0 566.081 59.7058 562.347 89.3168 564.828C89.3168 564.828 88.7709 559.965 86.8357 557.608C84.9005 555.251 4.08129 557.608 4.08129 557.608Z" fill="#ABA2D7"/>
<path fill-rule="evenodd" clip-rule="evenodd" d="M131.977 558.551C130.997 559.494 130.377 565.088 130.377 565.088H174.453C174.453 565.088 174.142 558.39 172.108 556.194C170.074 553.998 147.509 553.378 131.977 558.551Z" fill="#ABA2D7"/>
<path fill-rule="evenodd" clip-rule="evenodd" d="M42.1908 556.765L4.09473 557.571C4.5165 554.271 15.036 548.49 25.5431 542.598C25.5927 542.598 38.1964 547.957 42.1908 556.765Z" fill="#E1E3FF"/>
<path fill-rule="evenodd" clip-rule="evenodd" d="M86.8101 557.608H68.2025L67.9543 556.566C67.9543 556.566 74.2561 544.099 80.2478 538.529C80.3222 538.74 80.4215 538.951 80.5083 539.162C85.7557 551.406 86.8101 557.608 86.8101 557.608Z" fill="#E1E3FF"/>
<path fill-rule="evenodd" clip-rule="evenodd" d="M135.104 557.608C135.104 557.608 142.907 542.251 155.126 540.378C167.345 538.504 172.059 556.194 172.059 556.194C172.059 556.194 160.051 551.976 135.104 557.608Z" fill="#E1E3FF"/>
<path style="mix-blend-mode:multiply" opacity="0.8" fill-rule="evenodd" clip-rule="evenodd" d="M125.825 302.262C125.825 302.262 125.043 324.876 114.859 329.553C108.917 332.295 102.739 334.515 98.794 336.14C95.9781 337.381 94.291 338.274 94.6631 338.956C95.5067 340.519 98.0125 356.695 98.2482 358.196C98.2509 358.234 98.2509 358.271 98.2482 358.308C98.2482 358.308 98.2482 358.953 98.2482 360.169C95.8667 381.905 94.7896 403.765 95.0229 425.631C95.0229 434.773 95.0973 443.395 95.0973 451.321C94.0181 475.288 92.7528 495.372 91.4998 498.783C88.1132 508 75.9562 509.948 74.3063 508.038C72.6565 506.127 80.1864 500.148 86.8479 461.829C93.5095 423.509 98.149 360.988 89.8251 386.492C81.5013 411.997 57.8448 470.636 57.1129 468.999C56.381 467.361 56.4058 459.075 64.4567 439.14C72.5076 419.205 92.1325 354.289 87.4433 349.277C82.7542 344.265 61.9633 340.718 61.9633 340.718L62.844 334.887L63.0301 333.647L63.1294 333.051L63.2286 332.381C63.2286 332.381 72.061 331.786 87.4433 331.538C87.8167 331.538 88.1897 331.513 88.5598 331.463C92.0929 330.935 95.4747 329.667 98.4839 327.742C111.881 319.815 125.825 302.262 125.825 302.262Z" fill="url(#paint9_linear_0_1808)"/>
<path style="mix-blend-mode:multiply" opacity="0.5" d="M96.302 346.684C96.302 346.684 109.65 393.389 120.939 416.587C132.227 439.784 133.79 450.428 133.79 450.428C133.79 450.428 125.479 446.905 116.547 417.529C107.615 388.154 96.302 346.684 96.302 346.684Z" fill="url(#paint10_linear_0_1808)"/>
<path style="mix-blend-mode:multiply" opacity="0.5" d="M103.435 392.67C103.435 392.67 111.957 454.187 127.55 480.052C143.144 505.916 160.064 502.145 161.478 502.604C162.892 503.063 140.787 513.471 130.217 504.961C119.648 496.451 105.32 430.109 103.435 392.67Z" fill="url(#paint11_linear_0_1808)"/>
<path style="mix-blend-mode:multiply" opacity="0.8" fill-rule="evenodd" clip-rule="evenodd" d="M59.1472 514.389C61.5616 517.492 64.9614 519.679 68.786 520.591C75.063 522.005 76.961 514.389 76.961 514.389V510.047C76.961 510.047 65.2381 509.724 59.9412 507.69L59.1472 514.389Z" fill="url(#paint12_linear_0_1808)"/>
<path style="mix-blend-mode:multiply" opacity="0.8" fill-rule="evenodd" clip-rule="evenodd" d="M139.446 515.431C139.446 515.431 151.256 516.473 156.95 511.969L156.392 508.521C156.392 508.521 145.091 511.486 137.784 511.002L139.446 515.431Z" fill="url(#paint13_linear_0_1808)"/>
<path style="mix-blend-mode:multiply" opacity="0.6" fill-rule="evenodd" clip-rule="evenodd" d="M5.3104 555.487C7.05952 557.77 41.0991 549.93 56.8288 543.975C72.5585 538.021 74.6922 552.659 77.3841 554.569C80.076 556.48 86.812 556.566 86.812 556.566C86.812 556.566 23.6948 556.753 4.09473 557.571L5.3104 555.487Z" fill="url(#paint14_linear_0_1808)"/>
<path style="mix-blend-mode:multiply" opacity="0.8" fill-rule="evenodd" clip-rule="evenodd" d="M136.356 541.68C141.492 533.456 137.969 554.606 136.877 558.601C135.786 562.595 130.377 565.138 130.377 565.138C130.967 561.885 131.796 558.68 132.858 555.549C134.992 548.751 136.356 541.68 136.356 541.68Z" fill="url(#paint15_linear_0_1808)"/>
<path fill-rule="evenodd" clip-rule="evenodd" d="M49.1619 332.319C47.5244 332.319 45.1675 339.886 45.5644 342.467C45.9614 345.047 52.0647 349.674 53.1564 353.979C54.248 358.283 52.3748 360.255 52.3748 360.255C52.3748 360.255 51.6926 366.26 47.6485 365.565C43.6044 364.87 39.0518 347.329 39.0518 347.329L46.2839 323.512L49.7077 329.379L49.1619 332.319Z" fill="#EA594D"/>
<path fill-rule="evenodd" clip-rule="evenodd" d="M65.2892 215.029C65.2892 215.029 65.1404 225.735 64.4085 237.718C64.029 245.91 63.1507 254.071 61.7786 262.156C59.7938 272.08 54.4224 286.867 51.0358 297.2C49.2122 302.746 47.9717 307.013 48.133 308.576C48.5548 312.595 56.6057 317.26 58.2804 319.257C58.4327 319.406 58.5402 319.595 58.5905 319.803C58.7145 321.266 56.953 329.503 57.4244 334.192C57.4763 334.715 57.5675 335.234 57.6973 335.743C58.7394 340.184 61.9771 345.369 61.7662 346.635C61.5553 347.9 58.4788 351.2 57.5361 351.597C56.5933 351.994 51.3335 350.071 50.093 345.494C49.2619 342.305 49.9317 340.817 50.1798 338.708C50.3143 337.602 50.285 336.481 50.093 335.383C49.8102 333.02 48.9589 330.759 47.612 328.796C47.612 328.796 47.612 328.883 47.612 328.933C47.0413 330.719 42.3646 345.345 42.5011 346.647C42.6375 347.95 50.6512 353.718 50.1798 358.345C49.7084 362.972 46.8925 368.133 44.6968 367.202C42.5011 366.272 32.6266 351.522 32.9491 348.868C34.3595 341.275 34.9253 333.549 34.6362 325.831C34.3137 311.727 33.8547 274.102 34.6362 267.217C35.1324 262.789 36.8692 258.534 38.5066 253.038C39.5572 249.573 40.3573 246.037 40.9008 242.457C41.2233 240.311 41.5583 237.234 41.8808 233.662C43.3198 218.205 44.6596 193.407 44.6596 193.407L65.2892 215.029Z" fill="url(#paint16_linear_0_1808)"/>
<path style="mix-blend-mode:multiply" opacity="0.8" fill-rule="evenodd" clip-rule="evenodd" d="M64.4559 237.755C64.0763 245.947 63.1981 254.108 61.826 262.193C59.8412 272.117 54.4697 286.904 51.0832 297.238C50.19 297.238 49.5573 295.799 49.5201 291.73C49.3713 277.315 45.2404 243.71 38.5044 253.113C39.5549 249.647 40.355 246.111 40.8986 242.531C41.2211 240.385 41.5561 237.308 41.8786 233.736L63.4635 232.644L64.4559 237.755Z" fill="url(#paint17_linear_0_1808)"/>
<path fill-rule="evenodd" clip-rule="evenodd" d="M38.666 359.945C39.311 356.67 45.1538 363.183 46.2455 364.56C47.3371 365.937 44.3723 366.408 43.7644 366.545C43.1566 366.681 38.5047 360.727 38.666 359.945Z" fill="#FFC79F"/>
<path fill-rule="evenodd" clip-rule="evenodd" d="M83.2011 133.118C83.2011 133.118 75.6836 129.992 74.7409 123.095C74.1216 119.166 74.9599 115.147 77.0978 111.794L83.2011 133.118Z" fill="#EA594D"/>
<path fill-rule="evenodd" clip-rule="evenodd" d="M85.038 94.1659C90.0001 103.036 107.367 95.8778 117.527 92.2555C127.687 88.6332 132.103 92.2555 131.867 78.7215C131.632 65.1876 106.61 41.5062 106.61 41.5062L59.7068 45.7736L84.3806 92.913L85.038 94.1659Z" fill="#3B0020"/>
<path d="M52.3363 36.6805C52.3363 36.6805 38.3186 53.08 36.6687 64.654C35.0188 76.228 39.8072 82.8771 40.8988 82.2196C41.9905 81.5622 40.1173 58.0917 48.5776 44.4461C48.5776 44.4461 44.9677 68.8717 54.3708 80.6318C63.7739 92.3918 52.3363 36.6805 52.3363 36.6805Z" fill="url(#paint18_linear_0_1808)"/>
<path fill-rule="evenodd" clip-rule="evenodd" d="M75.6833 103.172C75.6833 103.172 76.9239 127.089 82.3945 134.693C87.8652 142.297 99.4267 119.72 99.8981 108.915C99.8981 108.915 96.9209 94.6495 96.3006 88.4965C95.6804 82.3436 75.6833 103.172 75.6833 103.172Z" fill="#EA594D"/>
<g style="mix-blend-mode:multiply" opacity="0.68">
<path fill-rule="evenodd" clip-rule="evenodd" d="M121.892 330.794C121.892 330.794 113.531 348.57 116.583 365.689C119.634 382.808 143.03 389.668 143.03 389.668C143.03 389.668 137.659 367.265 133.826 351.299C129.993 335.334 121.892 330.794 121.892 330.794Z" fill="#6D65A9"/>
</g>
<path fill-rule="evenodd" clip-rule="evenodd" d="M99.8993 83.6835C98.8993 85.193 97.8228 86.6505 96.674 88.0501L96.5995 88.137C88.2509 98.3215 74.6673 108.357 67.7081 106.31C65.8406 105.651 64.1977 104.477 62.9693 102.924C57.3746 96.5848 53.343 83.5719 52.3506 77.5926C51.11 70.0255 53.591 65.8822 54.385 60.4488C55.1789 55.0153 52.3506 40.3401 52.3506 36.6682C52.3506 32.9963 60.327 13.8924 80.1752 11.3618C93.1013 9.72429 110.022 19.822 112.428 27.3023C114.835 34.7826 107.466 72.246 99.8993 83.6835Z" fill="url(#paint19_linear_0_1808)"/>
<path d="M140.798 87.3556C139.731 88.0255 139.148 81.2647 135.836 67.0733C131.605 48.813 124.435 48.9742 124.435 48.9742C130.638 56.4173 133.677 65.5226 134.905 73.1642C134.905 73.1642 134.905 73.2386 134.905 73.2758C135.984 80.0738 135.649 85.6809 134.905 87.6781C133.255 91.9827 124.981 96.6098 127.065 90.4941C128.014 87.5379 128.557 84.4664 128.678 81.364C128.733 80.2813 128.733 79.1965 128.678 78.1138C128.678 78.1138 128.678 78.6348 128.678 79.4908C128.678 82.1083 128.194 87.889 125.266 91.5113C121.384 96.3369 107.639 96.92 112.092 93.9923C112.344 93.8185 112.573 93.6144 112.774 93.3845C117.476 88.4225 125.998 63.7735 112.067 58.2284C97.4045 52.3856 86.2275 27.3645 86.2275 27.3645C99.6112 28.0294 112.373 33.2164 122.426 42.077C139.855 57.3725 141.852 86.6982 140.798 87.3556Z" fill="url(#paint20_linear_0_1808)"/>
<path fill-rule="evenodd" clip-rule="evenodd" d="M106.411 61.3789C106.411 61.3789 113.321 55.4369 120.057 58.0419C126.793 60.647 122.029 72.5435 116.335 77.7909C110.641 83.0382 106.213 82.6413 104.141 81.5124C102.069 80.3835 102.317 75.5827 102.317 75.5827C102.317 75.5827 103.521 65.026 106.411 61.3789Z" fill="url(#paint21_linear_0_1808)"/>
<path d="M94.6641 41.4565C94.6641 41.4565 102.033 50.9588 102.268 57.3723C102.504 63.7857 101.301 65.6589 101.537 67.5445C101.772 69.4301 105.072 60.1014 112.106 58.1786L94.6641 41.4565Z" fill="url(#paint22_linear_0_1808)"/>
<path style="mix-blend-mode:multiply" opacity="0.3" d="M107.069 68.3136C107.069 68.3136 113.272 62.4212 118.432 63.5004C123.593 64.5797 120.529 71.7498 118.432 74.7643C116.908 76.7535 114.947 78.3662 112.701 79.4782C112.701 79.4782 117.589 74.9627 119.114 71.725C120.64 68.4873 120.851 65.7209 118.333 65.0014C115.815 64.2819 116.559 70.286 114.909 74.0076C113.259 77.7291 110.456 77.8407 108.26 76.9103C106.064 75.98 110.518 74.8139 112.8 70.8194C115.083 66.825 111.088 65.7458 107.069 68.3136Z" fill="url(#paint23_linear_0_1808)"/>
<g style="mix-blend-mode:multiply" opacity="0.68">
<path d="M110.864 65.4601C114.424 64.4057 115.987 67.7799 115.156 71.7991C115.056 72.4776 114.823 73.1298 114.471 73.7183C114.119 74.3068 113.654 74.8202 113.103 75.2292C112.553 75.6381 111.927 75.9346 111.262 76.1016C110.596 76.2687 109.905 76.3031 109.226 76.2029C107.986 75.7191 113.556 71.0176 113.605 68.3505C113.655 65.6834 109.164 66.589 108.854 66.8247C108.544 67.0604 110.864 65.4601 110.864 65.4601Z" fill="#EB657C"/>
</g>
<path fill-rule="evenodd" clip-rule="evenodd" d="M69.1948 8.32276C69.1948 8.32276 78.97 2.66604 99.8975 0.557169C120.825 -1.5517 142.435 6.93339 143.849 11.1883C145.263 15.4433 138.366 26.0745 132.25 34.0882C126.134 42.1019 117.562 31.7436 114.176 30.0193C110.789 28.295 70.0384 9.01745 70.0384 9.01745L69.1948 8.32276Z" fill="url(#paint24_linear_0_1808)"/>
<path fill-rule="evenodd" clip-rule="evenodd" d="M48.5788 41.4567C46.8297 41.7916 51.556 22.204 55.9474 14.8353C60.3388 7.46671 93.0883 1.89682 108.83 12.5032C124.572 23.1095 123.952 32.0536 121.235 34.2493C118.519 36.445 122.414 42.0273 122.414 42.0273C122.414 42.0273 108.855 28.2949 83.6232 27.9724C58.3912 27.6498 53.454 34.0881 52.4988 35.5519C51.8413 36.4823 53.4292 40.5139 48.5788 41.4567Z" fill="url(#paint25_linear_0_1808)"/>
<path d="M45.4392 156.935C42.7845 162.27 35.0189 210.873 30.3174 225.238C30.3174 225.238 31.3842 229.22 37.2518 230.473L36.9045 234.889C36.9045 234.889 54.3709 250.805 65.3494 249.701C76.3279 248.597 57.038 182.589 57.038 182.589L45.4392 156.935Z" fill="url(#paint26_linear_0_1808)"/>
<path d="M139.855 301.393C136.332 303.266 135.86 294.831 128.33 298.974C120.8 303.117 112.824 323.027 97.3176 331.475C81.8112 339.923 61.1195 333.609 60.7101 331.475C60.5117 330.446 61.0823 329.379 61.3428 325.707C61.6281 321.725 61.5537 314.716 59.7178 301.393C57.8818 288.07 57.2988 265.418 57.1251 246.5V246.438C56.9762 228.55 57.2119 214.024 57.2119 214.024C49.6572 195.528 43.1073 162.939 45.4519 156.96C47.7965 150.981 73.6611 123.466 74.1325 119.038C74.3759 116.494 75.1628 114.032 76.4398 111.818V114.969C76.4398 114.969 75.0381 132.671 85.3715 131.579C95.705 130.488 99.1288 105.256 99.1288 105.256C99.1288 105.256 99.0295 104.747 99.8731 105.256C100.493 105.628 101.176 109.188 104.959 114.063C106.554 116.095 108.34 117.969 110.293 119.658C118.902 127.176 133.168 132.969 140.996 147.483C148.824 161.997 143.44 299.532 139.855 301.393Z" fill="url(#paint27_linear_0_1808)"/>
<g style="mix-blend-mode:multiply" opacity="0.68">
<path fill-rule="evenodd" clip-rule="evenodd" d="M78.2756 335.755C86.9592 335.036 107.279 323.139 111.571 317.57C115.863 312 122.351 304.569 122.351 304.569L121.222 307.707C121.222 307.707 109.797 320.621 104.264 328.995C98.7317 337.368 78.2756 335.755 78.2756 335.755Z" fill="#6D4CA9"/>
</g>
<path style="mix-blend-mode:multiply" opacity="0.5" fill-rule="evenodd" clip-rule="evenodd" d="M125.826 285.304L124.585 293.888C124.585 293.888 115.418 299.297 108.136 312.496C100.854 325.695 77.5825 338.931 63.4779 328.064C62.6476 327.409 61.9273 326.626 61.3442 325.744C61.6295 321.762 61.5551 314.753 59.7191 301.43C57.8832 288.107 57.3001 265.455 57.1265 246.538V246.438L57.7467 211.903C57.6723 220.884 57.2257 301.529 66.7652 319.182C76.8754 337.889 98.4975 324.045 110.716 305.536C122.936 287.028 125.826 285.304 125.826 285.304Z" fill="url(#paint28_linear_0_1808)"/>
<path fill-rule="evenodd" clip-rule="evenodd" d="M154.716 256.871C154.289 258.82 153.721 260.736 153.016 262.602C148.551 274.139 134.409 312.471 135.029 313.364C135.649 314.257 137.969 314.704 139.991 320.658C142.013 326.613 143.613 339.477 143.613 339.477C149.493 339.378 152.545 342.032 151.838 345.171C151.131 348.309 148.898 348.198 148.898 348.198C148.898 348.198 148.427 350.679 147.136 351.1C145.846 351.522 140.673 350.778 136.679 351.225C133.547 351.461 130.4 351.419 127.276 351.1C127.276 351.1 134.099 355.703 133.392 359.561C132.685 363.419 129.434 366.458 126.457 363.171C123.778 360.231 118.443 355.728 117.401 353.358L117.253 352.936C117.241 352.838 117.241 352.738 117.253 352.639C117.633 349.344 117.84 346.031 117.873 342.715C117.873 335.842 116.632 323.288 116.632 321.204C116.632 319.12 125.874 296.394 126.556 274.573C126.767 267.13 127.028 260.283 127.276 254.564C127.76 243.635 128.194 236.701 128.194 236.701C132.598 234.604 149.617 235.522 154.567 235.832L155.932 235.919C155.932 235.919 156.006 236.564 156.081 237.718C156.47 244.135 156.012 250.575 154.716 256.871Z" fill="url(#paint29_linear_0_1808)"/>
<path fill-rule="evenodd" clip-rule="evenodd" d="M64.458 189.636C64.458 189.636 67.9314 223.129 68.7254 240.931L74.6922 241.477V218.75L77.7935 217.733L78.7115 224.705L88.0277 223.216V216.269L90.7444 215.587L91.4639 241.477L99.7878 240.708L100.495 185.865L84.1945 188.73L84.3062 205.824H80.1753L78.7487 189.226L64.458 189.636Z" fill="url(#paint30_linear_0_1808)"/>
<g style="mix-blend-mode:multiply" opacity="0.3">
<path fill-rule="evenodd" clip-rule="evenodd" d="M58.0194 218.142C56.7789 204.1 55.3895 193.766 68.1172 203.318C80.8448 212.87 90.7193 212.213 104.601 194.064C118.482 175.916 116.435 225.772 108.831 243.61C101.226 261.449 87.283 274.449 77.818 270.777C68.3529 267.105 58.0194 218.142 58.0194 218.142Z" fill="#A965A6"/>
</g>
<path style="mix-blend-mode:multiply" opacity="0.8" fill-rule="evenodd" clip-rule="evenodd" d="M156.702 238.636L155.536 258.149C155.536 258.149 155.263 257.653 154.717 256.908C153.597 255.236 152.299 253.689 150.847 252.294C147.82 249.391 127.712 240.112 127.277 254.601H127.215C127.699 243.672 128.133 236.738 128.133 236.738C132.537 234.641 149.557 235.559 154.507 235.869L156.02 237.755L156.702 238.636Z" fill="url(#paint31_linear_0_1808)"/>
<path style="mix-blend-mode:multiply" opacity="0.8" fill-rule="evenodd" clip-rule="evenodd" d="M117.539 207.449C117.539 207.449 113.532 248.386 99.8992 271.956C86.2659 295.526 77.8057 295.637 77.8057 295.637C77.8057 295.637 89.789 274.028 101.065 249.738C107.543 236.046 113.048 221.915 117.539 207.449Z" fill="url(#paint32_linear_0_1808)"/>
<g style="mix-blend-mode:multiply" opacity="0.68">
<path fill-rule="evenodd" clip-rule="evenodd" d="M106.858 205.278C106.858 205.278 107.317 246.885 126.707 269.053C126.707 269.053 128.89 238.834 128.084 225.238C127.277 211.642 114.909 213.131 114.909 213.131L106.858 205.278Z" fill="#6D4CA9"/>
</g>
<path d="M147.347 150.733C147.086 152.366 146.266 153.856 145.027 154.951C145.027 154.951 141.083 145.374 137.088 143.141C133.094 140.908 121.594 155.187 117.835 179.637C114.077 204.088 116.595 211.89 114.858 215.004C113.121 218.118 105.703 210.65 104.301 190.715C103.876 184.03 104.055 177.321 104.835 170.668C108.432 137.807 119.299 128.317 129.583 127.25C139.147 126.308 147.136 144.32 147.446 148.562C147.51 149.287 147.477 150.017 147.347 150.733Z" fill="url(#paint33_linear_0_1808)"/>
<path d="M109.066 210.799C110.939 197.153 119.089 224.444 126.433 231.887C133.777 239.33 113.668 228.315 109.066 210.799Z" fill="#420011"/>
<path d="M141.021 147.483C146.901 148.873 157.483 214.806 168.759 232.607C167.168 233.565 165.33 234.035 163.474 233.959V239.827C151.501 243.752 138.749 244.68 126.333 242.531L125.204 238.81C121.742 239.202 118.237 238.966 114.859 238.115C114.859 238.115 115.169 218.999 118.469 186.249C121.768 153.5 141.021 147.483 141.021 147.483Z" fill="url(#paint34_linear_0_1808)"/>
<path d="M74.5784 41.4566C74.5784 41.4566 76.1538 36.8667 79.6769 35.5766C83.1999 34.2865 91.9083 38.988 93.7815 42.0273C95.6547 45.0665 85.4825 41.8412 80.6196 41.4566C75.7568 41.0721 74.5784 41.4566 74.5784 41.4566Z" fill="url(#paint35_linear_0_1808)"/>
<path d="M64.1726 41.4565C64.1726 41.4565 63.0685 37.0775 59.7067 36.4945C56.9032 35.9735 53.0204 38.3056 52.8095 39.1244C52.7473 40.731 52.8512 42.3398 53.1196 43.9251C53.2933 45.1284 58.0568 38.0327 64.1726 41.4565Z" fill="url(#paint36_linear_0_1808)"/>
<g style="mix-blend-mode:multiply" opacity="0.68">
<path d="M75.8459 53.204C75.7218 54.8167 75.8459 62.297 81.7259 62.1357C87.6059 61.9744 89.0201 54.8415 87.8292 51.1696C87.0725 48.8622 76.6274 43.3172 75.8459 53.204Z" fill="#EB657C"/>
</g>
<g style="mix-blend-mode:multiply" opacity="0.68">
<path d="M65.1143 55.1643C65.6973 60.3 62.5217 64.5674 59.1599 63.8479C55.7981 63.1284 53.4907 59.1216 55.4383 52.5593C57.1502 47.0142 64.1715 46.9398 65.1143 55.1643Z" fill="#EB657C"/>
</g>
<path fill-rule="evenodd" clip-rule="evenodd" d="M86.2773 59.1212L85.9672 59.4313C82.3201 62.6443 77.2216 61.4286 76.4029 57.3349C75.795 54.308 75.5469 48.4776 81.0548 47.9938C82.1936 47.9425 83.322 48.2312 84.2962 48.8233C85.2704 49.4153 86.0464 50.2839 86.5254 51.3184C87.9024 53.8987 88.0265 57.2604 86.2773 59.1212Z" fill="#FFEAEA"/>
<path fill-rule="evenodd" clip-rule="evenodd" d="M64.7927 57.5085C64.6897 58.2664 64.4343 58.9956 64.042 59.6522C63.6497 60.3088 63.1287 60.8793 62.5102 61.3292C60.7362 62.7434 58.2428 63.2396 56.3076 60.9199C52.9334 56.8882 55.6749 49.6809 59.3965 49.2839C60.2081 49.196 61.0275 49.352 61.7501 49.7321C62.4726 50.1121 63.0655 50.6989 63.4529 51.4176C64.4803 53.2752 64.9457 55.3912 64.7927 57.5085Z" fill="#FFEAEA"/>
<path d="M86.2763 59.1216C85.5147 59.7178 84.5988 60.0844 83.6362 60.1785C82.6736 60.2727 81.7041 60.0903 80.8414 59.653C79.9787 59.2156 79.2586 58.5413 78.7656 57.7092C78.2726 56.8771 78.027 55.9217 78.0577 54.9549C78.0885 53.9882 78.3942 53.0503 78.9391 52.2512C79.484 51.4521 80.2455 50.8249 81.1342 50.4432C82.0229 50.0616 83.0021 49.9412 83.9568 50.0963C84.9115 50.2514 85.8021 50.6754 86.5244 51.3188C87.9013 53.8991 88.0254 57.2608 86.2763 59.1216Z" fill="url(#paint37_linear_0_1808)"/>
<g style="mix-blend-mode:multiply" opacity="0.77">
<path d="M86.2658 55.1642C86.2658 55.785 86.0817 56.3917 85.7368 56.9079C85.392 57.424 84.9018 57.8263 84.3283 58.0638C83.7548 58.3014 83.1238 58.3635 82.515 58.2424C81.9062 58.1213 81.347 57.8224 80.908 57.3835C80.4691 56.9445 80.1702 56.3853 80.0491 55.7765C79.928 55.1677 79.9901 54.5367 80.2277 53.9632C80.4652 53.3897 80.8675 52.8995 81.3836 52.5547C81.8997 52.2098 82.5065 52.0257 83.1273 52.0257C83.9596 52.0257 84.7579 52.3564 85.3465 52.945C85.9351 53.5336 86.2658 54.3318 86.2658 55.1642Z" fill="#BD4F81"/>
</g>
<path d="M64.7922 57.5088C64.6892 58.2667 64.4338 58.996 64.0415 59.6526C63.6493 60.3092 63.1282 60.8797 62.5097 61.3296C62.3984 61.3419 62.286 61.3419 62.1747 61.3296C59.917 61.3296 58.0811 59.0471 58.0811 56.2311C58.0811 53.4152 59.917 51.145 62.1747 51.145C62.6003 51.1479 63.0213 51.2321 63.4152 51.3931C64.4602 53.254 64.9388 55.3797 64.7922 57.5088Z" fill="url(#paint38_linear_0_1808)"/>
<g style="mix-blend-mode:multiply" opacity="0.77">
<path d="M64.6926 56.2557C64.5892 56.7333 64.3523 57.1717 64.0094 57.5199C63.6666 57.8681 63.2319 58.1118 62.756 58.2226C62.2801 58.3334 61.7825 58.3069 61.3211 58.1459C60.8597 57.985 60.4535 57.6964 60.1497 57.3136C59.846 56.9309 59.6571 56.4697 59.6052 55.9839C59.5533 55.498 59.6403 55.0073 59.8563 54.569C60.0723 54.1307 60.4084 53.7627 60.8253 53.5079C61.2423 53.2531 61.723 53.1219 62.2116 53.1297C62.9491 53.2289 63.6194 53.61 64.082 54.1928C64.5446 54.7757 64.7634 55.515 64.6926 56.2557Z" fill="#BD4F81"/>
</g>
<path d="M76.2794 52.4476C76.2794 52.4476 76.4531 49.3712 80.7949 48.6393C85.1367 47.9074 87.2208 53.0431 87.2208 53.0431C87.0046 51.4175 86.2378 49.9151 85.0482 48.7864C83.8585 47.6577 82.318 46.9709 80.6833 46.8405C74.8033 46.3319 76.2794 52.4476 76.2794 52.4476Z" fill="#9D1D36"/>
<path d="M64.4441 53.8743C64.4441 53.8743 63.675 47.6718 58.4649 47.5229C53.2547 47.374 55.1403 53.8743 55.1403 53.8743C55.1403 53.8743 55.2519 49.731 58.4649 49.5325C63.0672 49.2596 64.4441 53.8743 64.4441 53.8743Z" fill="#9D1D36"/>
<path style="mix-blend-mode:multiply" opacity="0.3" d="M65.1763 45.7983C65.1763 45.7983 66.1687 56.2186 64.1715 62.5328C62.1743 68.847 58.2915 67.6685 57.8201 71.4273C57.3487 75.186 59.1722 78.9696 60.698 79.4782C62.2239 79.9868 64.7545 81.1157 66.9006 80.7187C69.0467 80.3217 70.6222 77.7787 73.5994 77.7167C74.2316 77.6959 74.8516 77.5369 75.4157 77.2507C75.9798 76.9646 76.4744 76.5583 76.8647 76.0605C77.2549 75.5626 77.5313 74.9853 77.6744 74.3692C77.8175 73.753 77.8239 73.113 77.6931 72.4941C77.3466 70.9303 76.4087 69.5612 75.0756 68.6733C75.7341 69.2925 76.2436 70.0528 76.5659 70.8972C76.8881 71.7417 77.0148 72.6481 76.9364 73.5486C76.5642 76.4265 73.3141 76.7243 70.1384 77.605C66.9626 78.4858 62.3231 78.4238 60.7973 77.7167C59.2715 77.0096 58.0062 72.0103 58.949 70.1371C59.8917 68.264 63.8118 66.8622 65.1515 62.4832C66.4913 58.1042 65.1763 45.7983 65.1763 45.7983Z" fill="url(#paint39_linear_0_1808)"/>
<path style="mix-blend-mode:multiply" opacity="0.2" d="M75.0993 67.8049C75.0993 67.8049 78.2998 71.6629 76.9601 74.7889C75.6203 77.915 71.8616 78.5105 67.7679 79.4905C63.6742 80.4705 60.3248 79.3664 58.9727 77.0095C57.6205 74.6525 57.5709 71.0674 59.6177 69.2687C61.6646 67.4699 64.5798 66.0558 64.8031 62.0861C65.0264 58.1165 64.9271 55.5238 66.8127 54.5686C68.6983 53.6134 75.0993 67.8049 75.0993 67.8049Z" fill="url(#paint40_linear_0_1808)"/>
<path style="mix-blend-mode:multiply" opacity="0.8" d="M70.4619 78.833C70.4619 78.833 70.6728 77.8903 72.3227 77.0963C72.7236 76.8558 73.1824 76.7287 73.65 76.7287C74.1176 76.7287 74.5764 76.8558 74.9774 77.0963C74.9774 77.0963 74.1834 79.1556 70.4619 78.833Z" fill="url(#paint41_linear_0_1808)"/>
<path style="mix-blend-mode:multiply" opacity="0.8" d="M58.0816 74.3178C58.0816 74.3178 58.7762 76.4267 62.1752 78.1262C65.5742 79.8257 72.0001 76.8856 74.5803 76.315C77.1606 75.7444 77.2971 72.5935 77.2971 72.5935C77.2971 72.5935 78.3515 81.8353 71.5287 84.3411C64.7059 86.8469 64.9044 80.8801 61.4433 79.5155C60.4327 79.0775 59.5742 78.3502 58.976 77.4253C58.3778 76.5004 58.0666 75.4192 58.0816 74.3178Z" fill="url(#paint42_linear_0_1808)"/>
<g style="mix-blend-mode:multiply" opacity="0.3">
<path d="M74.9508 68.4253C72.4698 67.1847 72.2713 72.6678 70.3237 71.4273C68.3761 70.1868 70.0384 65.7582 70.3237 64.2323C70.609 62.7065 74.9508 68.4253 74.9508 68.4253Z" fill="#EB657C"/>
</g>
<g style="mix-blend-mode:multiply" opacity="0.5">
<path d="M53.4789 64.6542C50.3776 73.0028 63.1301 68.0904 65.1769 62.5329C67.2237 56.9754 68.6379 46.4062 64.1721 41.4442C59.7062 36.4822 54.0619 42.2009 53.6277 43.305C53.1936 44.409 54.9675 53.9361 54.8062 58.1911C54.7941 60.4119 54.343 62.6084 53.4789 64.6542Z" fill="#EB657C"/>
</g>
<g style="mix-blend-mode:multiply" opacity="0.3">
<path d="M63.7134 40.1909C62.3985 36.1841 76.9497 37.499 76.9621 37.4866C76.9745 37.4742 72.2357 53.6629 71.4914 53.0426C70.7471 52.4224 68.1917 53.8242 63.7134 40.1909Z" fill="#EB657C"/>
</g>
<path style="mix-blend-mode:multiply" opacity="0.3" d="M77.2967 40.1912C73.7985 40.9479 69.6304 56.8016 76.9618 65.2619C84.2932 73.7222 96.1401 61.8257 95.7927 53.1297C95.4454 44.4337 89.9251 37.462 77.2967 40.1912Z" fill="url(#paint43_linear_0_1808)"/>
<path d="M62.1733 86.1271C62.1733 86.1271 63.724 88.0251 70.46 87.3677C74.6298 86.8666 78.536 85.0654 81.6246 82.2195C81.6246 82.2195 75.6701 89.8735 70.46 90.4565C65.2498 91.0396 64.1706 87.9755 64.1706 87.9755L62.1733 86.1271Z" fill="#C9383C"/>
<path style="mix-blend-mode:multiply" opacity="0.5" d="M80.4587 80.3466C81.4139 77.5182 83.2747 81.5871 82.9398 84.6512C82.6048 87.7152 82.4063 84.0557 80.4587 80.3466Z" fill="url(#paint44_linear_0_1808)"/>
<g style="mix-blend-mode:multiply" opacity="0.68">
<path d="M96.5861 88.1495C88.2374 98.3341 74.6538 108.37 67.6946 106.323C65.8271 105.664 64.1842 104.49 62.9558 102.936C62.9558 102.936 76.2045 101.696 82.3946 99.0412C88.2126 96.5726 95.6681 89.0675 96.5861 88.1495Z" fill="#EB657C"/>
</g>
<g style="mix-blend-mode:multiply" opacity="0.3">
<path d="M101.064 65.3239C94.8618 58.2654 88.0638 78.8827 85.4835 90.5931C82.9033 102.304 92.1451 92.5655 97.4669 84.9736C102.789 77.3817 101.064 65.3239 101.064 65.3239Z" fill="#EB657C"/>
</g>
<g style="mix-blend-mode:multiply" opacity="0.3">
<path d="M86.265 27.315C78.5118 27.1909 85.3966 35.5768 88.8452 37.971C91.188 39.6321 93.4406 41.4168 95.5936 43.3176L86.265 27.315Z" fill="#EB657C"/>
</g>
<path style="mix-blend-mode:multiply" opacity="0.8" d="M76.0918 109.772C76.9601 123.182 87.2564 125.601 93.186 115.416C99.1156 105.231 96.7959 92.2805 96.7959 92.2805L96.2997 88.559C96.2997 88.559 86.5989 102.019 75.8188 105.07L76.0918 109.772Z" fill="url(#paint45_linear_0_1808)"/>
<g style="mix-blend-mode:multiply" opacity="0.68">
<path d="M48.5649 37.2884C48.5649 37.2884 49.1355 26.9922 74.6156 23.7048C100.096 20.4175 116.619 36.1099 117.562 36.3704C118.505 36.6309 122.785 42.2877 122.785 42.2877C122.785 42.2877 94.5258 27.4015 73.2883 30.1679C52.0507 32.9342 52.9687 38.715 51.6414 40.675C51.2728 41.2111 50.7162 41.589 50.0819 41.7337C49.4477 41.8785 48.7822 41.7796 48.2175 41.4565C48.2501 40.0615 48.3661 38.6696 48.5649 37.2884Z" fill="#BD4A7C"/>
</g>
<g style="mix-blend-mode:multiply" opacity="0.68">
<path d="M69.1948 8.32239C69.1948 8.32239 83.3863 4.31554 101.336 10.0715C119.287 15.8275 123.169 30.0809 123.343 32.7729C123.517 35.4648 120.564 34.708 120.564 34.708C120.564 34.708 125.526 38.8141 130.054 36.1594C134.582 33.5048 141.914 18.8915 142.149 17.7131C142.385 16.5346 132.684 23.99 127.983 24.3126C123.281 24.6351 133.193 20.2933 132.883 14.0287C132.572 7.76416 110.727 8.94264 95.7914 7.56568C80.8556 6.18871 74.2933 5.9158 69.1948 8.32239Z" fill="#BD4A7C"/>
</g>
<path fill-rule="evenodd" clip-rule="evenodd" d="M104.986 114.039C101.14 127.275 93.4984 145.808 82.9541 140.635C72.4097 135.462 74.1217 119.001 74.1217 119.001C74.3651 116.457 75.152 113.995 76.429 111.781V114.932C76.429 114.932 75.0272 132.634 85.3607 131.542C95.6941 130.451 99.1179 105.219 99.1179 105.219C99.1179 105.219 99.0187 104.71 99.8622 105.219C100.52 105.603 101.264 109.164 104.986 114.039Z" fill="url(#paint46_linear_0_1808)"/>
<path style="mix-blend-mode:multiply" opacity="0.5" fill-rule="evenodd" clip-rule="evenodd" d="M120.565 34.7079C120.565 34.7079 116.323 23.6302 108.83 16.857C101.338 10.0838 92.9393 11.0514 90.2226 14.1899C87.5058 17.3284 96.9213 20.5289 106.572 27.3145C116.224 34.1001 120.305 36.3702 120.305 36.3702L120.565 34.7079Z" fill="url(#paint47_linear_0_1808)"/>
<g style="mix-blend-mode:multiply" opacity="0.3">
<path fill-rule="evenodd" clip-rule="evenodd" d="M109.387 17.3781C104.363 15.7158 110.628 26.2353 113.642 31.0237C116.657 35.8121 120.341 36.3951 120.341 36.3951C119.266 32.302 117.594 28.3895 115.379 24.7839C111.409 17.9487 109.387 17.3781 109.387 17.3781Z" fill="#BD337C"/>
</g>
<path style="mix-blend-mode:multiply" opacity="0.8" fill-rule="evenodd" clip-rule="evenodd" d="M147.348 150.733C147.087 152.365 146.267 153.856 145.028 154.951C145.028 154.951 141.083 145.374 137.089 143.141C133.094 140.908 121.595 155.187 117.836 179.637C114.077 204.087 116.596 211.89 114.859 215.004C113.122 218.118 105.704 210.65 104.302 190.715C104.501 191.707 107.937 207.846 111.745 203.318C115.554 198.79 112.068 190.442 118.58 167.877C125.093 145.312 133.219 133.254 139.012 136.194C144.805 139.134 147.348 150.733 147.348 150.733Z" fill="url(#paint48_linear_0_1808)"/>
<path style="mix-blend-mode:multiply" opacity="0.6" fill-rule="evenodd" clip-rule="evenodd" d="M60.0537 143.811C60.0537 143.811 59.756 167.864 72.1735 181.411C83.2017 193.444 93.1878 187.39 93.1878 187.39C93.1878 187.39 81.7379 197.885 70.4616 190.69C56.6051 181.808 60.0537 143.811 60.0537 143.811Z" fill="url(#paint49_linear_0_1808)"/>
<path fill-rule="evenodd" clip-rule="evenodd" d="M111.721 450.428C111.721 450.428 129.287 462.66 141.741 462.3C154.196 461.94 156.838 451.768 156.838 451.768C157.104 458.033 154.955 464.16 150.834 468.887C143.85 477.112 131.929 465.736 126.632 460.923C121.335 456.11 127.438 462.771 126.632 463.739C125.826 464.707 111.721 450.428 111.721 450.428Z" fill="url(#paint50_linear_0_1808)"/>
<g style="mix-blend-mode:multiply" opacity="0.8">
<path fill-rule="evenodd" clip-rule="evenodd" d="M130.726 461.865C130.726 461.865 141.494 467.274 143.305 467.038C145.116 466.803 142.598 464.93 143.925 464.557C145.252 464.185 149.098 466.282 149.805 465.264C150.512 464.247 147.771 464.719 151.219 461.89C153.069 460.547 154.529 458.736 155.449 456.643C155.449 456.643 154.531 468.924 146.381 470.177C138.231 471.43 130.726 461.865 130.726 461.865Z" fill="#6D65A9"/>
</g>
<path style="mix-blend-mode:multiply" opacity="0.8" fill-rule="evenodd" clip-rule="evenodd" d="M125.204 238.797C125.204 238.797 124.385 171.512 125.204 162.654C126.023 153.797 117.947 177.615 118.555 193.444C119.163 209.273 125.204 238.797 125.204 238.797Z" fill="url(#paint51_linear_0_1808)"/>
<path style="mix-blend-mode:multiply" opacity="0.8" fill-rule="evenodd" clip-rule="evenodd" d="M163.473 233.959C163.473 233.959 142.93 169.105 142.385 154.926C141.839 140.747 150.721 186.199 159.752 209.409L168.795 232.607L163.473 233.959Z" fill="url(#paint52_linear_0_1808)"/>
<path fill-rule="evenodd" clip-rule="evenodd" d="M87.2835 455.229C87.2835 455.229 84.0582 460.948 75.4243 465.798C66.7903 470.649 60.749 467.336 58.4168 468.217C56.0847 469.098 68.1549 462.015 75.1514 458.43C80.1296 455.728 84.8762 452.621 89.3428 449.138L87.2835 455.229Z" fill="url(#paint53_linear_0_1808)"/>
<g style="mix-blend-mode:multiply" opacity="0.8">
<path fill-rule="evenodd" clip-rule="evenodd" d="M85.9914 454.361C85.4332 453.269 74.0453 462.895 71.5147 464.62C68.984 466.344 69.8648 463.131 69.1081 463.218C68.3514 463.305 66.6271 465.327 64.8531 465.873C63.0792 466.418 61.1316 467.113 61.1316 467.113C65.7573 467.775 70.4757 467.081 74.7152 465.116C81.1907 461.878 85.9914 454.361 85.9914 454.361Z" fill="#6D65A9"/>
</g>
<path style="mix-blend-mode:multiply" opacity="0.5" fill-rule="evenodd" clip-rule="evenodd" d="M131.396 246.885C131.396 246.885 119.251 294.335 104.105 310.089C88.958 325.844 75.0146 321.775 75.0146 321.775C75.0146 321.775 93.3494 319.133 107.454 294.285C121.559 269.438 129.076 238.797 129.076 238.797L131.396 246.885Z" fill="url(#paint54_linear_0_1808)"/>
<path style="mix-blend-mode:multiply" opacity="0.8" fill-rule="evenodd" clip-rule="evenodd" d="M57.1137 246.438C57.1137 246.438 47.1896 199.163 46.3089 187.44C45.7073 181.161 45.7073 174.838 46.3089 168.559C46.3089 168.559 54.459 205.564 57.2006 214.024C59.9421 222.484 57.1137 246.438 57.1137 246.438Z" fill="url(#paint55_linear_0_1808)"/>
<g style="mix-blend-mode:multiply" opacity="0.68">
<path fill-rule="evenodd" clip-rule="evenodd" d="M106.609 203.319C101.709 189.003 106.87 157.246 110.629 149.728C114.387 142.211 118.345 160.372 118.555 171.512C118.766 182.652 115.33 202.649 114.834 207.487C114.338 212.325 108.706 209.434 106.609 203.319Z" fill="#EB657C"/>
</g>
<g style="mix-blend-mode:multiply" opacity="0.3">
<path fill-rule="evenodd" clip-rule="evenodd" d="M128.057 158.127C138.911 140.177 145.424 158.226 149.493 174.489C153.562 190.752 150.423 187.812 145.015 178.918C139.606 170.023 139.097 204.075 131.369 217.498C123.641 230.92 119.299 201.88 120.08 184.091C120.862 166.302 128.057 158.127 128.057 158.127Z" fill="#A965A6"/>
</g>
<path fill-rule="evenodd" clip-rule="evenodd" d="M57.1128 349.277C52.1508 349.091 53.6642 340.196 55.4753 338.633C57.2865 337.07 60.7227 343.484 61.1941 345.99C61.6655 348.495 57.9067 349.314 57.1128 349.277Z" fill="#FFC79F"/>
<path fill-rule="evenodd" clip-rule="evenodd" d="M123.591 359.238C123.715 357.204 130.575 360.739 131.431 361.632C132.287 362.525 129.236 365.242 127.896 364.597C126.556 363.952 123.48 360.565 123.591 359.238Z" fill="#FFC79F"/>
<g style="mix-blend-mode:soft-light" opacity="0.3">
<path fill-rule="evenodd" clip-rule="evenodd" d="M70.4619 170.681C81.1675 178.409 99.8992 137.944 109.067 128.652C118.234 119.361 114.351 130.649 107.826 145.697C101.301 160.744 93.3741 187.651 85.1496 187.415C76.925 187.179 70.4619 170.681 70.4619 170.681Z" fill="#FFE3B5"/>
</g>
<path style="mix-blend-mode:multiply" opacity="0.3" fill-rule="evenodd" clip-rule="evenodd" d="M163.586 501.599C162.656 505.841 131.718 513.049 121.099 501.599C115.196 480.641 110.708 459.31 107.664 437.75C103.943 408.598 104.377 388.39 99.4395 363.629C99.6255 357.687 115.492 408.598 123.567 418.472C131.643 428.347 146.914 419.415 151.144 423.881C155.374 428.347 164.529 497.356 163.586 501.599Z" fill="url(#paint56_linear_0_1808)"/>
<path style="mix-blend-mode:multiply" opacity="0.3" fill-rule="evenodd" clip-rule="evenodd" d="M96.7114 375.861C95.719 388.353 94.8755 405.249 94.9871 425.742C94.9871 434.884 95.0615 443.506 95.0615 451.433C95.0615 483.872 94.6646 504.961 94.6646 504.961C76.9749 515.53 55.4768 506.598 53.4548 504.961C51.4328 503.323 55.0054 428.335 54.8442 423.323C54.7697 420.842 54.3976 418.361 54.0627 415.88C62.5106 417.778 63.1556 420.78 72.3974 406.75C84.9018 387.758 97.1456 367.264 96.7362 375.514C96.7362 375.588 96.7238 375.725 96.7114 375.861Z" fill="url(#paint57_linear_0_1808)"/>
<g style="mix-blend-mode:multiply" opacity="0.68">
<path fill-rule="evenodd" clip-rule="evenodd" d="M92.4299 340.072C89.4154 335.656 87.8524 349.203 91.3258 359.697C94.7992 370.192 97.4664 369.262 97.4664 369.262L98.3843 358.829C98.3843 358.829 94.762 343.484 92.4299 340.072Z" fill="#6D65A9"/>
</g>
<path style="mix-blend-mode:multiply" opacity="0.8" fill-rule="evenodd" clip-rule="evenodd" d="M56.8284 502.74C59.9421 507.702 83.1272 505.531 86.8115 501.599C90.4958 497.666 93.8204 464.532 93.8204 464.532C93.8204 464.532 85.4469 489.826 77.9543 497.158C70.4616 504.489 56.8284 502.74 56.8284 502.74Z" fill="url(#paint58_linear_0_1808)"/>
<g style="mix-blend-mode:soft-light" opacity="0.3">
<path fill-rule="evenodd" clip-rule="evenodd" d="M115.082 400.547C115.168 388.849 140.313 408.127 145.015 414.59C149.717 421.053 141.641 425.754 130.054 423.398C118.468 421.041 115.082 400.547 115.082 400.547Z" fill="#A7D9B5"/>
</g>
<g style="mix-blend-mode:soft-light" opacity="0.3">
<path fill-rule="evenodd" clip-rule="evenodd" d="M54.7183 406.625C56.6038 419.676 64.8036 421.412 73.7601 399.678C82.7166 377.945 61.5038 385.487 58.6879 389.01C55.8719 392.533 54.7183 406.625 54.7183 406.625Z" fill="#A7D9B5"/>
</g>
<g style="mix-blend-mode:multiply" opacity="0.5">
<path fill-rule="evenodd" clip-rule="evenodd" d="M106.807 424.018C109.536 411.613 121.284 465.96 131.394 485.808C141.504 505.656 111.36 494.677 106.807 424.018Z" fill="#6D65A9"/>
</g>
<g style="mix-blend-mode:multiply" opacity="0.68">
<path fill-rule="evenodd" clip-rule="evenodd" d="M96.3013 379.682C96.3013 379.682 90.2228 405.298 88.3372 412.121C86.4516 418.944 95.222 450.887 94.9491 453.058C94.6762 455.229 94.0436 414.974 94.9491 403.351C95.8547 391.727 96.3013 379.682 96.3013 379.682Z" fill="#6D65A9"/>
</g>
<path style="mix-blend-mode:multiply" opacity="0.6" fill-rule="evenodd" clip-rule="evenodd" d="M154.952 432.168C147.683 406.403 147.335 467.039 152.012 480.833C156.689 494.628 164.752 501.599 164.752 501.599C164.752 501.599 160.535 452.016 154.952 432.168Z" fill="url(#paint59_linear_0_1808)"/>
<g style="mix-blend-mode:multiply" opacity="0.3">
<path fill-rule="evenodd" clip-rule="evenodd" d="M150.585 424.886C148.922 421.574 136.765 421.76 131.543 431.312C127.561 438.581 134.756 448.977 135.388 450.49C136.021 452.004 142.832 453.095 146.379 448.232C149.927 443.37 151.465 426.648 150.585 424.886Z" fill="#6D65A9"/>
</g>
<g style="mix-blend-mode:multiply" opacity="0.3">
<path fill-rule="evenodd" clip-rule="evenodd" d="M54.1245 415.843C55.1541 413.449 62.6964 419.639 64.52 427.156C66.3435 434.674 59.347 447.141 57.5607 446.905C55.7744 446.669 54.7448 425.606 54.906 423.335C54.8541 420.82 54.5926 418.314 54.1245 415.843Z" fill="#6D65A9"/>
</g>
<g style="mix-blend-mode:multiply" opacity="0.2">
<path fill-rule="evenodd" clip-rule="evenodd" d="M42.4623 346.671C42.6235 348.073 50.6124 353.742 50.141 358.37C49.6696 362.997 46.8537 368.157 44.6579 367.227C42.4622 366.296 32.5878 351.547 32.9103 348.892C34.9447 350.455 41.1845 347.478 42.5739 342.938C43.8144 338.769 46.3699 331.773 47.5359 328.957C47.0025 330.793 42.3258 345.369 42.4623 346.671Z" fill="#E2455E"/>
</g>
<g style="mix-blend-mode:multiply" opacity="0.2">
<path fill-rule="evenodd" clip-rule="evenodd" d="M57.4734 334.192C57.5252 334.715 57.6165 335.234 57.7463 335.743C58.0192 337.095 52.3004 338.981 50.3032 338.658C50.4377 337.552 50.4084 336.432 50.2164 335.334C49.9336 332.97 49.0823 330.71 47.7354 328.747C47.8098 328.56 47.8966 328.387 47.9586 328.25C48.8642 326.352 55.9227 320.224 58.4161 319.219C58.5685 319.369 58.6759 319.558 58.7263 319.765C58.7635 321.266 57.002 329.553 57.4734 334.192Z" fill="#E2455E"/>
</g>
<g style="mix-blend-mode:multiply" opacity="0.5">
<path fill-rule="evenodd" clip-rule="evenodd" d="M127.313 351.125C126.258 350.58 124.968 350.741 124.906 350.071C124.844 349.401 123.566 339.589 123.591 338.137C123.616 336.686 125.787 349.066 126.73 349.674C127.672 350.282 135.773 351.336 135.773 351.336C135.773 351.336 129.558 351.882 127.313 351.125Z" fill="#E2455E"/>
</g>
<g style="mix-blend-mode:multiply" opacity="0.5">
<path fill-rule="evenodd" clip-rule="evenodd" d="M126.631 339.539C126.631 339.539 131.271 348.954 132.102 349.785C132.933 350.617 142.026 351.15 142.026 351.15C139.471 351.518 136.877 351.518 134.322 351.15C131.569 350.468 131.395 350.765 130.601 348.743C129.807 346.721 126.631 339.539 126.631 339.539Z" fill="#E2455E"/>
</g>
<g style="mix-blend-mode:multiply" opacity="0.5">
<path fill-rule="evenodd" clip-rule="evenodd" d="M134.322 338.41C134.322 338.41 136.033 346.82 136.356 347.776C136.679 348.731 149.146 348.21 149.146 348.21C149.146 348.21 139.792 347.776 138.142 347.044C136.492 346.312 134.322 338.41 134.322 338.41Z" fill="#E2455E"/>
</g>
<g style="mix-blend-mode:multiply" opacity="0.2">
<path fill-rule="evenodd" clip-rule="evenodd" d="M151.838 345.196C151.131 348.334 148.898 348.222 148.898 348.222C148.898 348.222 148.426 350.703 147.136 351.125C145.846 351.547 140.673 350.803 136.679 351.249C133.547 351.486 130.4 351.444 127.276 351.125C127.276 351.125 134.099 355.728 133.391 359.586C132.684 363.444 129.434 366.483 126.457 363.195C123.778 360.255 118.443 355.752 117.401 353.383L117.252 352.961C117.252 352.961 123.629 351.473 123.815 350.579C124.001 349.686 123.554 339.254 123.554 339.254L124.869 350.071L126.11 349.513C128.076 349.804 130.066 349.9 132.052 349.798C133.714 349.622 135.297 348.996 136.629 347.987C141.591 347.987 143.564 339.502 143.564 339.502C149.493 339.402 152.545 342.057 151.838 345.196Z" fill="#E2455E"/>
</g>
<g style="mix-blend-mode:multiply" opacity="0.3">
<path fill-rule="evenodd" clip-rule="evenodd" d="M118.109 315.907C123.791 307.484 132.995 316.453 134.596 319.443C136.196 322.432 125.676 333.771 122.538 333.634C119.399 333.498 115.504 321.551 116.583 319.443C117.182 318.305 117.692 317.123 118.109 315.907Z" fill="#EB657C"/>
</g>
<path style="mix-blend-mode:multiply" opacity="0.6" fill-rule="evenodd" clip-rule="evenodd" d="M78.0165 531.52C74.7539 534.15 70.0896 537.214 66.2812 536.991C59.7065 536.581 50.75 523.655 47.9341 527.067C54.2731 520.008 56.7293 513.793 58.6024 517.54C58.6024 517.54 63.9366 528.977 69.9283 530.156C75.92 531.334 76.1309 518.78 76.1309 518.78C76.1309 518.78 77.6815 518.172 78.1529 520.405C78.5002 522.043 76.6643 524.921 78.0165 531.52Z" fill="url(#paint60_linear_0_1808)"/>
<path style="mix-blend-mode:multiply" opacity="0.6" fill-rule="evenodd" clip-rule="evenodd" d="M160.547 525.553C153.215 526.024 141.108 529.535 138.329 528.53C138.563 526.837 138.979 525.173 139.57 523.568C139.57 523.568 140.512 524.151 142.051 522.514C143.589 520.876 153.922 509.116 159.914 524.04L160.547 525.553Z" fill="url(#paint61_linear_0_1808)"/>
<g style="mix-blend-mode:multiply" opacity="0.5">
<path fill-rule="evenodd" clip-rule="evenodd" d="M149.433 412.481C149.433 412.481 149.991 423.943 150.835 429.277C151.678 434.611 157.794 443.059 157.794 443.059L149.433 412.481Z" fill="#6D65A9"/>
</g>
<g style="mix-blend-mode:soft-light" opacity="0.3">
<path fill-rule="evenodd" clip-rule="evenodd" d="M176.525 255.345C170.881 254.105 159.158 279.088 158.426 285.899C157.694 292.709 178.832 305.846 181.897 303.13C184.961 300.413 186.573 259.426 176.525 255.345Z" fill="#FFE3B5"/>
</g>
<g style="mix-blend-mode:soft-light" opacity="0.3">
<path fill-rule="evenodd" clip-rule="evenodd" d="M54.7431 24.8584C54.0608 27.3394 76.3404 20.1692 84.3417 16.4229C92.343 12.6765 96.5855 10.5429 96.5855 10.5429C96.5855 10.5429 78.2384 5.90335 66.2054 9.10387C54.1725 12.3044 54.7431 24.8584 54.7431 24.8584Z" fill="#FFE3B5"/>
</g>
<g style="mix-blend-mode:soft-light" opacity="0.3">
<path fill-rule="evenodd" clip-rule="evenodd" d="M74.9758 6.52367C74.9758 6.52367 95.742 6.85861 115.168 7.97507C134.595 9.09153 138.205 7.97507 138.205 7.97507C138.205 7.97507 127.871 0.631244 108.358 0.246686C96.91 -0.0688207 85.5273 2.07152 74.9758 6.52367Z" fill="#FFE3B5"/>
</g>
<g style="mix-blend-mode:multiply" opacity="0.68">
<path fill-rule="evenodd" clip-rule="evenodd" d="M88.7085 31.5076C88.7085 31.5076 111.286 52.9188 112.799 57.7816L111.757 58.3026C111.757 58.3026 93.1867 44.6074 88.7085 31.5076Z" fill="#BD4A7C"/>
</g>
<path style="mix-blend-mode:multiply" opacity="0.5" fill-rule="evenodd" clip-rule="evenodd" d="M128.689 78.1262C128.689 78.1262 126.928 65.1505 121.246 54.8294C115.565 44.5084 102.8 37.9337 102.8 37.9337C102.8 37.9337 120.167 44.037 125.824 56.256C131.481 68.4751 128.689 78.1262 128.689 78.1262Z" fill="url(#paint62_linear_0_1808)"/>
<path style="mix-blend-mode:multiply" opacity="0.5" fill-rule="evenodd" clip-rule="evenodd" d="M128.69 79.4907C128.69 82.1082 128.206 87.889 125.279 91.5113C121.396 96.3369 107.651 96.9199 112.105 93.9923C112.356 93.8185 112.585 93.6143 112.787 93.3844C112.787 95.1088 123.22 92.1439 125.49 89.2287C127.76 86.3135 128.665 78.1758 128.665 78.1758L128.69 79.4907Z" fill="url(#paint63_linear_0_1808)"/>
<path style="mix-blend-mode:multiply" opacity="0.5" fill-rule="evenodd" clip-rule="evenodd" d="M134.917 87.6533C133.267 91.9579 124.993 96.585 127.077 90.4693C128.026 87.5131 128.569 84.4415 128.69 81.3391V89.3776C128.69 93.9055 133.739 88.6085 134.892 84.552C135.922 80.8305 135.116 74.293 134.979 73.2386C135.997 80.0738 135.699 85.6437 134.917 87.6533Z" fill="url(#paint64_linear_0_1808)"/>
<g style="mix-blend-mode:multiply" opacity="0.8">
<path fill-rule="evenodd" clip-rule="evenodd" d="M96.5851 116.632C98.4831 105.976 101.014 115.391 101.336 120.775C101.659 126.159 92.9256 145.114 82.9519 140.623C84.4162 141.773 86.2295 142.387 88.0909 142.364C89.9523 142.342 91.7501 141.684 93.1861 140.499C98.3714 136.269 104.983 114.027 104.983 114.027C103.413 112.075 102.112 109.923 101.113 107.626C100.071 104.71 99.153 105.145 99.153 105.145C97.8132 108.849 96.9503 112.709 96.5851 116.632Z" fill="#C75EFF"/>
</g>
<g style="mix-blend-mode:soft-light" opacity="0.3">
<path fill-rule="evenodd" clip-rule="evenodd" d="M74.9775 321.775C71.4917 323.015 77.4586 327.159 86.0057 326.588C94.5528 326.017 108.459 311.33 111.349 304.569C114.24 297.808 99.9738 314.493 90.5708 319.132C81.1677 323.772 77.0988 320.993 74.9775 321.775Z" fill="#FFE3B5"/>
</g>
<g style="mix-blend-mode:soft-light" opacity="0.3">
<path fill-rule="evenodd" clip-rule="evenodd" d="M64.4563 298.974C61.3427 304.234 68.9594 317.867 73.9711 320.683C78.9827 323.499 103.743 306.814 106.857 291.543C109.971 276.273 64.4563 298.974 64.4563 298.974Z" fill="#FFE3B5"/>
</g>
<g style="mix-blend-mode:soft-light" opacity="0.3">
<path fill-rule="evenodd" clip-rule="evenodd" d="M136.357 232.694C131.258 216.232 141.728 180.592 145.04 178.918C148.352 177.243 163.152 231.143 163.499 236.787C163.846 242.432 139.718 243.424 136.357 232.694Z" fill="#FFE3B5"/>
</g>
<path d="M49.6213 45.55C52.9086 44.0118 64.0484 41.4439 64.7555 48.4652C65.5246 56.144 65.351 69.7027 56.7294 69.2313C48.3684 68.7724 46.8425 46.8401 49.6213 45.55ZM60.9719 66.2913C64.6935 63.3513 64.3958 54.2956 63.1925 49.532C61.9892 44.7685 50.7874 44.1854 49.6213 47.6465C46.5944 56.9007 53.5537 72.283 60.9719 66.2913Z" fill="#AC002C"/>
<path d="M72.8064 44.1487C76.7884 38.7649 96.5497 40.0799 98.7827 45.2156C101.016 50.3513 96.8103 70.584 84.0702 68.6984C71.9504 66.8997 71.1317 46.4065 72.8064 44.1487ZM85.137 67.3959C94.813 66.5275 100.296 53.7503 96.6366 46.7538C92.9771 39.7573 76.1805 41.0847 74.3074 45.7366C71.814 51.9764 75.7836 68.227 85.137 67.3959Z" fill="#AC002C"/>
<path d="M72.3083 51.4176C72.3083 51.4176 71.8617 48.7381 67.9045 48.9365C65.4235 49.0854 64.8776 51.9758 64.2698 51.9138C63.6619 51.8517 63.8604 47.8945 66.9865 47.237C70.1126 46.5796 74.4544 49.9662 72.3083 51.4176Z" fill="#AC002C"/>
<path d="M99.339 48.1552C99.339 48.1552 113.568 54.6927 114.92 54.9284C116.272 55.1641 117.587 57.4094 117.587 57.4094C115.88 57.2309 114.155 57.4561 112.55 58.0669C110.231 59.0469 99.5126 53.3405 99.0288 52.7079C98.545 52.0752 99.339 48.1552 99.339 48.1552Z" fill="#AC002C"/>
<path opacity="0.3" d="M92.951 62.8429C95.8041 58.9601 98.0247 48.3786 93.4596 44.7439C89.2791 41.4069 78.4742 43.1312 76.4646 44.2352C71.5026 46.9892 75.3481 61.2923 80.8312 65.6341C86.3142 69.9758 92.951 62.8429 92.951 62.8429Z" fill="#6FE5FF"/>
<path opacity="0.3" d="M60.7968 65.324C63.9477 61.7142 64.8905 52.4723 62.3847 49.3214C59.4074 45.5999 51.2201 46.1085 50.2153 47.1133C47.5109 49.9417 49.6942 60.362 52.4978 63.7362C55.3013 67.1104 59.3206 66.9491 60.7968 65.324Z" fill="#6FE5FF"/>
<g style="mix-blend-mode:multiply" opacity="0.68">
<path d="M52.884 67.0857C52.884 67.0857 53.5291 70.2118 55.6504 71.4275C57.7717 72.6432 61.0838 67.4206 61.0838 67.4206C61.0838 67.4206 56.6056 70.4599 52.884 67.0857Z" fill="#EB657C"/>
</g>
<g style="mix-blend-mode:multiply" opacity="0.68">
<path d="M74.1689 59.3817C74.1689 59.3817 76.1661 68.0653 84.3411 70.7944C92.5161 73.5235 97.3417 58.8855 97.3417 58.8855C97.3417 58.8855 94.0915 66.862 85.4824 67.7924C76.8733 68.7227 74.1689 59.3817 74.1689 59.3817Z" fill="#EB657C"/>
</g>
<g style="mix-blend-mode:soft-light" opacity="0.3">
<path fill-rule="evenodd" clip-rule="evenodd" d="M164.752 187.415C159.207 188.743 164.504 214.52 175.098 237.16C185.692 259.799 181.585 222.087 177.641 207.387C173.696 192.687 164.752 187.415 164.752 187.415Z" fill="#FFE3B5"/>
</g>
<g style="mix-blend-mode:multiply" opacity="0.8">
<path fill-rule="evenodd" clip-rule="evenodd" d="M76.4529 116.669C76.9367 115.428 76.18 126.072 81.7127 129.83C82.9752 130.775 84.4817 131.339 86.0544 131.455C86.0544 131.455 70.4612 137.435 76.4529 116.669Z" fill="#BD4A7C"/>
</g>
<g style="mix-blend-mode:multiply" opacity="0.68">
<path fill-rule="evenodd" clip-rule="evenodd" d="M93.8205 178.496C99.8369 165.694 105.841 147.57 107.838 145.696C109.835 143.823 104.427 169.415 104.017 178.88C103.608 188.345 93.1754 179.959 93.8205 178.496Z" fill="#6D4CA9"/>
</g>
<g style="mix-blend-mode:multiply" opacity="0.68">
<path fill-rule="evenodd" clip-rule="evenodd" d="M57.9807 222.286C55.6237 225.573 48.8009 209.372 47.3867 195.541C45.9726 181.709 53.3908 205.874 56.8642 213.131C60.3376 220.388 57.9807 222.286 57.9807 222.286Z" fill="#6D4CA9"/>
</g>
<path fill-rule="evenodd" clip-rule="evenodd" d="M105.542 379.682C105.542 379.682 109.264 385.4 119.089 390.263C128.913 395.126 135.86 391.802 138.515 392.67C141.17 393.538 127.35 386.467 119.399 382.895C113.764 380.217 108.344 377.111 103.185 373.603L105.542 379.682Z" fill="url(#paint65_linear_0_1808)"/>
<g style="mix-blend-mode:multiply">
<path fill-rule="evenodd" clip-rule="evenodd" d="M107.006 378.826C107.651 377.722 120.652 387.36 123.555 389.085C126.457 390.809 125.44 387.596 126.296 387.671C127.152 387.745 129.124 389.792 131.159 390.338C133.193 390.883 135.389 391.578 135.389 391.578C130.131 392.24 124.792 391.557 119.87 389.593C112.502 386.343 107.006 378.826 107.006 378.826Z" fill="#6D65A9"/>
</g>
<path fill-rule="evenodd" clip-rule="evenodd" d="M58.3281 379.682C58.3281 379.682 68.5623 374.149 74.9261 375.861C78.7069 376.856 82.214 378.692 85.1852 381.233C85.1852 381.233 76.0922 382.076 69.6167 383.292C63.1413 384.508 58.3281 379.682 58.3281 379.682Z" fill="url(#paint66_linear_0_1808)"/>
<g style="mix-blend-mode:multiply">
<path fill-rule="evenodd" clip-rule="evenodd" d="M81.7611 380.625C80.1162 379.198 78.1283 378.223 75.9928 377.797C72.8047 377.338 76.6254 379.446 75.5586 379.211C74.4918 378.975 69.691 377.586 67.7186 377.734C65.7461 377.883 62.9054 379.57 62.4836 379.508C62.0618 379.446 63.7241 378.268 63.1163 378.268C61.9001 378.639 60.7174 379.112 59.5808 379.682C62.0351 381.195 64.8378 382.049 67.7186 382.163C73.1892 382.697 81.7611 380.625 81.7611 380.625Z" fill="#6D65A9"/>
</g>
<g style="mix-blend-mode:multiply" opacity="0.3">
<path fill-rule="evenodd" clip-rule="evenodd" d="M116.149 19.0405C112.229 14.004 122.141 9.71187 127.897 11.1881C133.653 12.6643 129.795 18.3458 126.793 21.7944C123.791 25.2431 120.814 25.0818 116.149 19.0405Z" fill="#BD337C"/>
</g>
<g style="mix-blend-mode:multiply" opacity="0.3">
<path fill-rule="evenodd" clip-rule="evenodd" d="M123.344 35.3157C123.79 30.4902 134.955 28.7659 135.637 28.4433C136.319 28.1208 132.796 35.0428 129.434 36.519C128.443 36.9421 127.354 37.0848 126.286 36.9317C125.219 36.7786 124.214 36.3355 123.381 35.6507L123.344 35.3157Z" fill="#BD337C"/>
</g>
<g style="mix-blend-mode:soft-light" opacity="0.5">
<path fill-rule="evenodd" clip-rule="evenodd" d="M114.908 138.998C110.331 150.993 123.592 140.772 131.915 137.199C140.239 133.626 134.397 127.585 130.613 127.275C126.829 126.965 117.389 132.535 114.908 138.998Z" fill="#FFE3B5"/>
</g>
<g style="mix-blend-mode:multiply" opacity="0.68">
<path fill-rule="evenodd" clip-rule="evenodd" d="M115.565 209.906C115.565 209.906 120.726 168.807 128.057 158.127C135.388 147.446 139.718 145.598 139.718 145.598C139.718 145.598 140.958 141.578 134.756 142.434C128.553 143.29 111.012 172.231 115.565 209.906Z" fill="#6D4CA9"/>
</g>
<path style="mix-blend-mode:multiply" opacity="0.8" fill-rule="evenodd" clip-rule="evenodd" d="M175.382 199.77C173.571 194.684 189.76 206.928 192.266 218.986C194.772 231.044 184.265 232.483 184.265 232.483C184.265 232.483 179.017 210.005 175.382 199.77Z" fill="url(#paint67_linear_0_1808)"/>
<g style="mix-blend-mode:multiply" opacity="0.68">
<path fill-rule="evenodd" clip-rule="evenodd" d="M29.7356 540.229C28.3338 543.95 39.486 537.4 44.6217 534.225C49.7574 531.049 52.8835 521.534 52.8835 521.534C52.8835 521.534 46.2344 529.052 43.0711 532.103C39.9078 535.155 29.7356 540.229 29.7356 540.229Z" fill="#B565A9"/>
</g>
<g style="mix-blend-mode:multiply" opacity="0.68">
<path fill-rule="evenodd" clip-rule="evenodd" d="M145.016 523.581C142.423 531.024 144.321 538.963 145.885 539.707C147.448 540.452 152.62 537.04 158.662 539.087C164.703 541.134 162.805 532.736 158.662 524.077C154.518 515.418 146.716 518.755 145.016 523.581Z" fill="#B565A9"/>
</g>
<g style="mix-blend-mode:soft-light" opacity="0.3">
<path fill-rule="evenodd" clip-rule="evenodd" d="M126.63 285.242C127.015 297.808 145.436 270.356 147.347 258.099C149.257 245.843 132.461 247.245 130.724 248.709C128.987 250.172 126.332 275.715 126.63 285.242Z" fill="#FFFFB5"/>
</g>
<g style="mix-blend-mode:soft-light" opacity="0.5">
<path fill-rule="evenodd" clip-rule="evenodd" d="M94.0192 31.706C91.5382 31.5571 99.1301 42.6349 106.61 48.639C114.091 54.643 117.055 51.9511 117.055 51.9511C117.055 51.9511 108.285 39.7073 103.41 37.2883C98.5346 34.8693 112.49 42.0022 116.609 44.905C120.727 47.8078 122.588 45.6989 121.31 43.3172C120.033 40.9354 106.35 32.4131 94.0192 31.706Z" fill="#FFD6A6"/>
</g>
<g style="mix-blend-mode:multiply" opacity="0.3">
<path fill-rule="evenodd" clip-rule="evenodd" d="M148.923 555.152C144.792 554.085 137.584 556.269 136.666 559.171C135.748 562.074 132.101 563.29 133.453 564.133C134.806 564.977 143.849 565.064 146.318 564.133C148.786 563.203 148.923 555.152 148.923 555.152Z" fill="#B565A9"/>
</g>
<g style="mix-blend-mode:multiply" opacity="0.3">
<path fill-rule="evenodd" clip-rule="evenodd" d="M38.2451 564.269C43.2072 564.17 39.4856 559.109 45.4525 557.571C51.4193 556.032 65.189 557.93 67.2234 558.551C69.2579 559.171 69.7044 564.034 69.7044 564.034L38.2451 564.269Z" fill="#B565A9"/>
</g>
<g style="mix-blend-mode:multiply">
<path fill-rule="evenodd" clip-rule="evenodd" d="M138.33 528.58C137.387 533.195 136.209 540.067 135.39 545.029C135.043 547.113 134.646 549.036 134.249 550.748C133.852 552.46 133.381 553.899 132.884 555.499C132.521 556.641 132.21 557.67 131.954 558.588C130.986 559.618 130.379 565.088 130.379 565.088H174.454C174.454 565.088 174.144 558.39 172.109 556.194C172.107 556.169 172.107 556.144 172.109 556.12C171.719 554.817 171.255 553.537 170.72 552.286C168.673 546.642 164.666 535.763 160.622 525.603L160.027 524.114C159.619 523.085 159.129 522.089 158.563 521.137C158.29 519.512 157.695 516.014 157.025 511.97L156.467 508.521C160.363 507.434 163.955 505.459 166.961 502.753C166.961 502.753 161.801 463.677 157.459 442.489L157.868 443.072L156.491 438.11C156.404 437.688 156.305 437.254 156.206 436.869L155.983 435.988C155.673 434.649 155.35 433.396 155.028 432.267C153.539 426.61 151.604 419.862 149.507 412.58L147.572 405.857C134.584 422.132 121.521 435.356 108.645 444.312C111.67 463.632 115.833 482.757 121.112 501.587C121.689 503.837 122.461 506.033 123.419 508.149C124.337 509.6 130.317 510.866 137.76 510.965H138.479H137.747L139.459 515.418C139.923 518.168 140.139 520.954 140.104 523.742C139.941 523.747 139.78 523.713 139.633 523.643C139.023 525.237 138.586 526.892 138.33 528.58ZM53.9756 451.346C53.1444 474.618 52.2388 503.944 53.5042 504.961C55.5317 506.163 57.7147 507.082 59.992 507.69L59.1981 514.376C59.0368 515.431 58.8632 516.485 58.6523 517.49C56.8907 513.967 54.6206 519.252 49.0879 525.752C48.0707 526.868 46.9667 528.072 45.9122 529.188C45.4284 529.684 44.9322 530.168 44.3988 530.652C41.3224 533.468 35.8021 536.854 29.8104 540.216L25.6175 542.573C17.058 547.374 8.49843 552.1 5.38475 555.462C4.77532 556.015 4.34359 556.736 4.14424 557.534C4.14424 557.534 3.12704 559.022 2.10982 560.672C1.21578 561.916 0.524898 563.293 0.0629883 564.753C0.0629883 565.423 17.5666 564.667 38.3203 564.195L69.7921 563.96C76.9994 564.046 83.7354 564.294 89.3797 564.753C89.3797 564.753 88.8339 559.891 86.8987 557.534C86.8987 557.534 86.8367 557.174 86.6754 556.492C85.1532 550.538 83.1195 544.728 80.5969 539.125C80.5101 538.914 80.4108 538.703 80.3364 538.492C79.3711 536.232 78.6234 533.885 78.1035 531.483C76.7513 524.883 78.5873 522.005 78.2399 520.318C77.9546 518.991 77.3096 518.681 76.8134 518.631C76.9746 516.15 77.1359 512.751 77.2723 509.948C83.4266 509.747 89.4338 508.016 94.7511 504.911C94.7511 504.911 95.1357 484.033 95.1481 451.879C80.783 458.392 66.9141 458.801 53.9259 451.346H53.9756Z" fill="#9275BA"/>
</g>
<path fill-rule="evenodd" clip-rule="evenodd" d="M63.1166 333.076L63.0297 333.584L62.8437 334.825C62.6204 336.264 62.3103 338.261 61.9629 340.655C61.7768 341.896 61.5659 343.384 61.355 344.885C59.9153 341.941 58.7083 338.888 57.7452 335.755C57.6154 335.246 57.5241 334.728 57.4723 334.205C57.0009 329.516 58.7128 321.279 58.6384 319.815C58.588 319.607 58.4806 319.418 58.3282 319.269C56.6535 317.309 48.6026 312.607 48.1808 308.588C48.0196 307.025 49.2601 302.758 51.0836 297.213C53.0188 291.308 55.5991 283.964 57.832 276.893C58.229 286.309 58.8244 294.992 59.7052 301.406C61.5659 314.667 61.5659 321.725 61.3302 325.707C61.0697 329.429 60.4991 330.446 60.6976 331.476C60.7844 331.897 61.6528 332.48 63.1166 333.076Z" fill="#C27579"/>
<path fill-rule="evenodd" clip-rule="evenodd" d="M76.4518 112.538C76.4448 112.62 76.4448 112.703 76.4518 112.786C76.4542 112.815 76.4542 112.844 76.4518 112.873V112.538Z" fill="#C27579"/>
<path fill-rule="evenodd" clip-rule="evenodd" d="M141.021 147.483L140.611 146.788C140.785 147.024 140.946 147.272 141.108 147.52L141.021 147.483Z" fill="#C27579"/>
<defs>
<linearGradient id="paint0_linear_0_1808" x1="155.671" y1="317.47" x2="155.671" y2="147.483" gradientUnits="userSpaceOnUse">
<stop stop-color="#CF482A"/>
<stop offset="0.45" stop-color="#D24A27"/>
<stop offset="0.8" stop-color="#DC511E"/>
<stop offset="1" stop-color="#E55816"/>
</linearGradient>
<linearGradient id="paint1_linear_0_1808" x1="135.737" y1="259.204" x2="173.969" y2="259.204" gradientUnits="userSpaceOnUse">
<stop stop-color="#D1A9C7"/>
<stop offset="0.99" stop-color="#B32083"/>
</linearGradient>
<linearGradient id="paint2_linear_0_1808" x1="156.13" y1="198.543" x2="194.065" y2="198.543" gradientUnits="userSpaceOnUse">
<stop stop-color="#D1A9C7"/>
<stop offset="0.99" stop-color="#B32083"/>
</linearGradient>
<linearGradient id="paint3_linear_0_1808" x1="67.9552" y1="532.5" x2="67.9552" y2="504.961" gradientUnits="userSpaceOnUse">
<stop offset="0.03" stop-color="#FF9B86"/>
<stop offset="0.95" stop-color="#FFA670"/>
</linearGradient>
<linearGradient id="paint4_linear_0_1808" x1="147.509" y1="524.115" x2="147.509" y2="492.184" gradientUnits="userSpaceOnUse">
<stop offset="0.03" stop-color="#FF9B86"/>
<stop offset="0.95" stop-color="#FFA670"/>
</linearGradient>
<linearGradient id="paint5_linear_0_1808" x1="76.1307" y1="510.047" x2="76.1307" y2="319.133" gradientUnits="userSpaceOnUse">
<stop stop-color="#596DBD"/>
<stop offset="0.37" stop-color="#5B6ECA"/>
<stop offset="1" stop-color="#6172E8"/>
</linearGradient>
<linearGradient id="paint6_linear_0_1808" x1="125.515" y1="510.977" x2="125.515" y2="295.625" gradientUnits="userSpaceOnUse">
<stop stop-color="#596DBD"/>
<stop offset="0.28" stop-color="#5F72CA"/>
<stop offset="0.79" stop-color="#6D7DEB"/>
<stop offset="1" stop-color="#7483FA"/>
</linearGradient>
<linearGradient id="paint7_linear_0_1808" x1="38.008" y1="573.437" x2="65.9319" y2="513.545" gradientUnits="userSpaceOnUse">
<stop offset="0.01" stop-color="#F5312C"/>
<stop offset="0.4" stop-color="#F63229"/>
<stop offset="0.64" stop-color="#F83521"/>
<stop offset="0.83" stop-color="#FB3A13"/>
<stop offset="1" stop-color="#FF4000"/>
</linearGradient>
<linearGradient id="paint8_linear_0_1808" x1="144.433" y1="564.356" x2="164.306" y2="521.745" gradientUnits="userSpaceOnUse">
<stop offset="0.01" stop-color="#F5312C"/>
<stop offset="0.4" stop-color="#F63229"/>
<stop offset="0.64" stop-color="#F83521"/>
<stop offset="0.83" stop-color="#FB3A13"/>
<stop offset="1" stop-color="#FF4000"/>
</linearGradient>
<linearGradient id="paint9_linear_0_1808" x1="91.3262" y1="508.807" x2="91.3262" y2="302.299" gradientUnits="userSpaceOnUse">
<stop offset="0.06" stop-color="white"/>
<stop offset="0.99" stop-color="#7738AB"/>
</linearGradient>
<linearGradient id="paint10_linear_0_1808" x1="115.083" y1="450.428" x2="115.083" y2="346.684" gradientUnits="userSpaceOnUse">
<stop offset="0.01" stop-color="#7738AB"/>
<stop offset="0.94" stop-color="white"/>
</linearGradient>
<linearGradient id="paint11_linear_0_1808" x1="132.488" y1="508.298" x2="132.488" y2="392.67" gradientUnits="userSpaceOnUse">
<stop offset="0.01" stop-color="#7738AB"/>
<stop offset="0.94" stop-color="white"/>
</linearGradient>
<linearGradient id="paint12_linear_0_1808" x1="68.0541" y1="520.802" x2="68.0541" y2="507.69" gradientUnits="userSpaceOnUse">
<stop stop-color="#D1A9C7"/>
<stop offset="0.99" stop-color="#B331B8"/>
</linearGradient>
<linearGradient id="paint13_linear_0_1808" x1="147.348" y1="515.542" x2="147.348" y2="508.521" gradientUnits="userSpaceOnUse">
<stop stop-color="#D1A9C7"/>
<stop offset="0.99" stop-color="#B331B8"/>
</linearGradient>
<linearGradient id="paint14_linear_0_1808" x1="45.4533" y1="557.571" x2="45.4533" y2="542.561" gradientUnits="userSpaceOnUse">
<stop offset="0.01" stop-color="#B32083"/>
<stop offset="1" stop-color="#D1A9C7"/>
</linearGradient>
<linearGradient id="paint15_linear_0_1808" x1="130.377" y1="552.423" x2="139.073" y2="552.423" gradientUnits="userSpaceOnUse">
<stop offset="0.01" stop-color="#B32083"/>
<stop offset="1" stop-color="#D1A9C7"/>
</linearGradient>
<linearGradient id="paint16_linear_0_1808" x1="49.1254" y1="367.339" x2="49.1254" y2="193.444" gradientUnits="userSpaceOnUse">
<stop offset="0.03" stop-color="#FF9B86"/>
<stop offset="0.95" stop-color="#FFA670"/>
</linearGradient>
<linearGradient id="paint17_linear_0_1808" x1="51.4801" y1="297.2" x2="51.4801" y2="232.607" gradientUnits="userSpaceOnUse">
<stop stop-color="#D1A9C7"/>
<stop offset="0.99" stop-color="#B32083"/>
</linearGradient>
<linearGradient id="paint18_linear_0_1808" x1="36.3213" y1="59.4687" x2="58.0799" y2="59.4687" gradientUnits="userSpaceOnUse">
<stop stop-color="#690A11"/>
<stop offset="0.4" stop-color="#660914"/>
<stop offset="0.7" stop-color="#5C061E"/>
<stop offset="0.98" stop-color="#4C012E"/>
<stop offset="1" stop-color="#4A0030"/>
</linearGradient>
<linearGradient id="paint19_linear_0_1808" x1="82.3957" y1="106.596" x2="82.3957" y2="11.1881" gradientUnits="userSpaceOnUse">
<stop offset="0.03" stop-color="#FF9B86"/>
<stop offset="0.95" stop-color="#FFA670"/>
</linearGradient>
<linearGradient id="paint20_linear_0_1808" x1="86.2648" y1="61.5406" x2="141.033" y2="61.5406" gradientUnits="userSpaceOnUse">
<stop stop-color="#690A11"/>
<stop offset="0.4" stop-color="#660914"/>
<stop offset="0.7" stop-color="#5C061E"/>
<stop offset="0.98" stop-color="#4C012E"/>
<stop offset="1" stop-color="#4A0030"/>
</linearGradient>
<linearGradient id="paint21_linear_0_1808" x1="111.195" y1="85.1557" x2="112.982" y2="59.6259" gradientUnits="userSpaceOnUse">
<stop offset="0.03" stop-color="#FF9B75"/>
<stop offset="0.95" stop-color="#FF7C61"/>
</linearGradient>
<linearGradient id="paint22_linear_0_1808" x1="94.6641" y1="54.6184" x2="112.106" y2="54.6184" gradientUnits="userSpaceOnUse">
<stop stop-color="#690A11"/>
<stop offset="0.4" stop-color="#660914"/>
<stop offset="0.7" stop-color="#5C061E"/>
<stop offset="0.98" stop-color="#4C012E"/>
<stop offset="1" stop-color="#4A0030"/>
</linearGradient>
<linearGradient id="paint23_linear_0_1808" x1="112.634" y1="82.0653" x2="113.782" y2="65.6533" gradientUnits="userSpaceOnUse">
<stop offset="0.3" stop-color="white"/>
<stop offset="0.99" stop-color="#CA00A4"/>
</linearGradient>
<linearGradient id="paint24_linear_0_1808" x1="106.609" y1="37.0778" x2="106.609" y2="0.222231" gradientUnits="userSpaceOnUse">
<stop stop-color="#796A90"/>
<stop offset="0.42" stop-color="#7A6B93"/>
<stop offset="0.68" stop-color="#7D6F9B"/>
<stop offset="0.9" stop-color="#8276A9"/>
<stop offset="1" stop-color="#867AB3"/>
</linearGradient>
<linearGradient id="paint25_linear_0_1808" x1="85.484" y1="42.0273" x2="85.484" y2="6.61076" gradientUnits="userSpaceOnUse">
<stop stop-color="#796A90"/>
<stop offset="0.42" stop-color="#7A6B93"/>
<stop offset="0.68" stop-color="#7D6F9B"/>
<stop offset="0.9" stop-color="#8276A9"/>
<stop offset="1" stop-color="#867AB3"/>
</linearGradient>
<linearGradient id="paint26_linear_0_1808" x1="49.5205" y1="249.75" x2="49.5205" y2="156.935" gradientUnits="userSpaceOnUse">
<stop stop-color="#5E0445"/>
<stop offset="0.28" stop-color="#5F0453"/>
<stop offset="0.66" stop-color="#600361"/>
<stop offset="1" stop-color="#600366"/>
</linearGradient>
<linearGradient id="paint27_linear_0_1808" x1="94.9855" y1="335.743" x2="94.9855" y2="105.008" gradientUnits="userSpaceOnUse">
<stop stop-color="#6D0652"/>
<stop offset="0.04" stop-color="#6C0653"/>
<stop offset="0.55" stop-color="#630461"/>
<stop offset="1" stop-color="#600366"/>
</linearGradient>
<linearGradient id="paint28_linear_0_1808" x1="91.4762" y1="332.034" x2="91.4762" y2="211.853" gradientUnits="userSpaceOnUse">
<stop offset="0.01" stop-color="#7738AB"/>
<stop offset="0.94" stop-color="white"/>
</linearGradient>
<linearGradient id="paint29_linear_0_1808" x1="136.356" y1="364.597" x2="136.356" y2="235.373" gradientUnits="userSpaceOnUse">
<stop offset="0.03" stop-color="#FF9B86"/>
<stop offset="0.95" stop-color="#FFA670"/>
</linearGradient>
<linearGradient id="paint30_linear_0_1808" x1="82.4826" y1="241.477" x2="82.4826" y2="185.865" gradientUnits="userSpaceOnUse">
<stop stop-color="#00FFF6"/>
<stop offset="0.29" stop-color="#00FCF6"/>
<stop offset="0.47" stop-color="#00F4F7"/>
<stop offset="0.62" stop-color="#00E6F8"/>
<stop offset="0.75" stop-color="#00D1FA"/>
<stop offset="0.87" stop-color="#00B7FC"/>
<stop offset="0.98" stop-color="#0097FE"/>
<stop offset="1" stop-color="#0090FF"/>
</linearGradient>
<linearGradient id="paint31_linear_0_1808" x1="141.94" y1="258.149" x2="141.94" y2="235.373" gradientUnits="userSpaceOnUse">
<stop stop-color="#D1A9C7"/>
<stop offset="0.99" stop-color="#B32083"/>
</linearGradient>
<linearGradient id="paint32_linear_0_1808" x1="97.6786" y1="295.625" x2="97.6786" y2="207.449" gradientUnits="userSpaceOnUse">
<stop offset="0.06" stop-color="white"/>
<stop offset="0.99" stop-color="#7738AB"/>
</linearGradient>
<linearGradient id="paint33_linear_0_1808" x1="125.775" y1="215.724" x2="125.775" y2="127.288" gradientUnits="userSpaceOnUse">
<stop stop-color="#CF482A"/>
<stop offset="0.45" stop-color="#D24A27"/>
<stop offset="0.8" stop-color="#DC511E"/>
<stop offset="1" stop-color="#E55816"/>
</linearGradient>
<linearGradient id="paint34_linear_0_1808" x1="141.815" y1="243.61" x2="141.815" y2="147.483" gradientUnits="userSpaceOnUse">
<stop stop-color="#6D0652"/>
<stop offset="0.04" stop-color="#6C0653"/>
<stop offset="0.55" stop-color="#630461"/>
<stop offset="1" stop-color="#600366"/>
</linearGradient>
<linearGradient id="paint35_linear_0_1808" x1="84.2916" y1="43.3174" x2="84.2916" y2="35.3533" gradientUnits="userSpaceOnUse">
<stop stop-color="#C2583C"/>
<stop offset="0.13" stop-color="#BD4C37"/>
<stop offset="0.37" stop-color="#B63C30"/>
<stop offset="0.65" stop-color="#B2322B"/>
<stop offset="1" stop-color="#B12F2A"/>
</linearGradient>
<linearGradient id="paint36_linear_0_1808" x1="58.4662" y1="44.0244" x2="58.4662" y2="36.3704" gradientUnits="userSpaceOnUse">
<stop stop-color="#C2583C"/>
<stop offset="0.13" stop-color="#BD4C37"/>
<stop offset="0.37" stop-color="#B63C30"/>
<stop offset="0.65" stop-color="#B2322B"/>
<stop offset="1" stop-color="#B12F2A"/>
</linearGradient>
<linearGradient id="paint37_linear_0_1808" x1="82.8028" y1="60.2505" x2="82.8028" y2="50.0659" gradientUnits="userSpaceOnUse">
<stop stop-color="#BD4D2A"/>
<stop offset="0.26" stop-color="#BA4A2A"/>
<stop offset="0.47" stop-color="#B0412A"/>
<stop offset="0.65" stop-color="#A03229"/>
<stop offset="0.82" stop-color="#881D28"/>
<stop offset="0.99" stop-color="#6B0327"/>
<stop offset="1" stop-color="#680027"/>
</linearGradient>
<linearGradient id="paint38_linear_0_1808" x1="61.4428" y1="61.3544" x2="61.4428" y2="51.1698" gradientUnits="userSpaceOnUse">
<stop stop-color="#BD4D2A"/>
<stop offset="0.26" stop-color="#BA4A2A"/>
<stop offset="0.47" stop-color="#B0412A"/>
<stop offset="0.65" stop-color="#A03229"/>
<stop offset="0.82" stop-color="#881D28"/>
<stop offset="0.99" stop-color="#6B0327"/>
<stop offset="1" stop-color="#680027"/>
</linearGradient>
<linearGradient id="paint39_linear_0_1808" x1="67.769" y1="80.8304" x2="67.769" y2="45.7983" gradientUnits="userSpaceOnUse">
<stop offset="0.01" stop-color="#CA00A4"/>
<stop offset="1" stop-color="white"/>
</linearGradient>
<linearGradient id="paint40_linear_0_1808" x1="67.6563" y1="79.8502" x2="67.6563" y2="54.581" gradientUnits="userSpaceOnUse">
<stop offset="0.01" stop-color="#CA00A4"/>
<stop offset="0.7" stop-color="white"/>
</linearGradient>
<linearGradient id="paint41_linear_0_1808" x1="72.7196" y1="78.8703" x2="72.7196" y2="76.749" gradientUnits="userSpaceOnUse">
<stop stop-color="#D1A9C7"/>
<stop offset="0.99" stop-color="#B32083"/>
</linearGradient>
<linearGradient id="paint42_linear_0_1808" x1="67.7203" y1="84.9117" x2="67.7203" y2="72.5563" gradientUnits="userSpaceOnUse">
<stop stop-color="#FF9FAE"/>
<stop offset="0.99" stop-color="#B30083"/>
</linearGradient>
<linearGradient id="paint43_linear_0_1808" x1="84.3428" y1="68.1647" x2="84.3428" y2="39.5957" gradientUnits="userSpaceOnUse">
<stop stop-color="white"/>
<stop offset="0.99" stop-color="#CA00A4"/>
</linearGradient>
<linearGradient id="paint44_linear_0_1808" x1="83.6384" y1="85.2387" x2="80.5167" y2="79.7502" gradientUnits="userSpaceOnUse">
<stop stop-color="white"/>
<stop offset="0.99" stop-color="#CA00A4"/>
</linearGradient>
<linearGradient id="paint45_linear_0_1808" x1="86.5369" y1="121.693" x2="86.5369" y2="88.497" gradientUnits="userSpaceOnUse">
<stop stop-color="#D1A9C7"/>
<stop offset="0.99" stop-color="#B32083"/>
</linearGradient>
<linearGradient id="paint46_linear_0_1808" x1="89.504" y1="141.529" x2="89.504" y2="105.008" gradientUnits="userSpaceOnUse">
<stop offset="0.01" stop-color="#D2132C"/>
<stop offset="0.4" stop-color="#D21429"/>
<stop offset="0.64" stop-color="#D41921"/>
<stop offset="0.83" stop-color="#D72113"/>
<stop offset="1" stop-color="#DA2C00"/>
</linearGradient>
<linearGradient id="paint47_linear_0_1808" x1="105.183" y1="36.3702" x2="105.183" y2="11.7709" gradientUnits="userSpaceOnUse">
<stop offset="0.01" stop-color="#A40084"/>
<stop offset="1" stop-color="white"/>
</linearGradient>
<linearGradient id="paint48_linear_0_1808" x1="104.302" y1="175.754" x2="147.348" y2="175.754" gradientUnits="userSpaceOnUse">
<stop stop-color="#D1A9C7"/>
<stop offset="0.99" stop-color="#B32083"/>
</linearGradient>
<linearGradient id="paint49_linear_0_1808" x1="76.4161" y1="193.22" x2="76.4161" y2="143.811" gradientUnits="userSpaceOnUse">
<stop stop-color="white"/>
<stop offset="0.99" stop-color="#7738AB"/>
</linearGradient>
<linearGradient id="paint50_linear_0_1808" x1="134.311" y1="471.79" x2="134.311" y2="450.428" gradientUnits="userSpaceOnUse">
<stop stop-color="#79ACF6"/>
<stop offset="0.45" stop-color="#7AAFF7"/>
<stop offset="0.73" stop-color="#7EB7F9"/>
<stop offset="0.95" stop-color="#84C5FE"/>
<stop offset="1" stop-color="#86C9FF"/>
</linearGradient>
<linearGradient id="paint51_linear_0_1808" x1="121.892" y1="238.797" x2="121.892" y2="160.732" gradientUnits="userSpaceOnUse">
<stop offset="0.06" stop-color="white"/>
<stop offset="0.99" stop-color="#7738AB"/>
</linearGradient>
<linearGradient id="paint52_linear_0_1808" x1="155.534" y1="233.959" x2="155.534" y2="152.246" gradientUnits="userSpaceOnUse">
<stop offset="0.01" stop-color="#7738AB"/>
<stop offset="0.94" stop-color="white"/>
</linearGradient>
<linearGradient id="paint53_linear_0_1808" x1="73.7248" y1="468.515" x2="73.7248" y2="449.138" gradientUnits="userSpaceOnUse">
<stop stop-color="#79ACF6"/>
<stop offset="0.45" stop-color="#7AAFF7"/>
<stop offset="0.73" stop-color="#7EB7F9"/>
<stop offset="0.95" stop-color="#84C5FE"/>
<stop offset="1" stop-color="#86C9FF"/>
</linearGradient>
<linearGradient id="paint54_linear_0_1808" x1="103.187" y1="322.259" x2="103.187" y2="238.797" gradientUnits="userSpaceOnUse">
<stop offset="0.01" stop-color="#7738AB"/>
<stop offset="0.94" stop-color="white"/>
</linearGradient>
<linearGradient id="paint55_linear_0_1808" x1="52.1393" y1="246.389" x2="52.1393" y2="168.51" gradientUnits="userSpaceOnUse">
<stop offset="0.01" stop-color="#7738AB"/>
<stop offset="0.94" stop-color="white"/>
</linearGradient>
<linearGradient id="paint56_linear_0_1808" x1="131.544" y1="507.764" x2="131.544" y2="363.133" gradientUnits="userSpaceOnUse">
<stop offset="0.01" stop-color="#B32083"/>
<stop offset="1" stop-color="#D1A9C7"/>
</linearGradient>
<linearGradient id="paint57_linear_0_1808" x1="74.7916" y1="510.047" x2="74.7916" y2="373.603" gradientUnits="userSpaceOnUse">
<stop offset="0.01" stop-color="#B32083"/>
<stop offset="1" stop-color="#D1A9C7"/>
</linearGradient>
<linearGradient id="paint58_linear_0_1808" x1="56.8284" y1="485.075" x2="93.87" y2="485.075" gradientUnits="userSpaceOnUse">
<stop offset="0.01" stop-color="#7738AB"/>
<stop offset="0.94" stop-color="white"/>
</linearGradient>
<linearGradient id="paint59_linear_0_1808" x1="156.838" y1="501.599" x2="156.838" y2="425.866" gradientUnits="userSpaceOnUse">
<stop offset="0.06" stop-color="white"/>
<stop offset="0.99" stop-color="#7738AB"/>
</linearGradient>
<linearGradient id="paint60_linear_0_1808" x1="47.9341" y1="526.682" x2="78.2025" y2="526.682" gradientUnits="userSpaceOnUse">
<stop offset="0.01" stop-color="#B32083"/>
<stop offset="1" stop-color="#D1A9C7"/>
</linearGradient>
<linearGradient id="paint61_linear_0_1808" x1="138.329" y1="522.7" x2="160.547" y2="522.7" gradientUnits="userSpaceOnUse">
<stop offset="0.01" stop-color="#B32083"/>
<stop offset="1" stop-color="#D1A9C7"/>
</linearGradient>
<linearGradient id="paint62_linear_0_1808" x1="102.837" y1="58.03" x2="129.397" y2="58.03" gradientUnits="userSpaceOnUse">
<stop stop-color="#FFABA4"/>
<stop offset="0.99" stop-color="#600054"/>
</linearGradient>
<linearGradient id="paint63_linear_0_1808" x1="111.224" y1="86.9462" x2="128.69" y2="86.9462" gradientUnits="userSpaceOnUse">
<stop stop-color="#FFABA4"/>
<stop offset="0.99" stop-color="#600054"/>
</linearGradient>
<linearGradient id="paint64_linear_0_1808" x1="126.755" y1="83.3612" x2="135.637" y2="83.3612" gradientUnits="userSpaceOnUse">
<stop stop-color="#FFABA4"/>
<stop offset="0.99" stop-color="#600054"/>
</linearGradient>
<linearGradient id="paint65_linear_0_1808" x1="121.024" y1="392.98" x2="121.024" y2="373.603" gradientUnits="userSpaceOnUse">
<stop stop-color="#79ACF6"/>
<stop offset="0.45" stop-color="#7AAFF7"/>
<stop offset="0.73" stop-color="#7EB7F9"/>
<stop offset="0.95" stop-color="#84C5FE"/>
<stop offset="1" stop-color="#86C9FF"/>
</linearGradient>
<linearGradient id="paint66_linear_0_1808" x1="71.7504" y1="383.49" x2="71.7504" y2="375.526" gradientUnits="userSpaceOnUse">
<stop stop-color="#79ACF6"/>
<stop offset="0.45" stop-color="#7AAFF7"/>
<stop offset="0.73" stop-color="#7EB7F9"/>
<stop offset="0.95" stop-color="#84C5FE"/>
<stop offset="1" stop-color="#86C9FF"/>
</linearGradient>
<linearGradient id="paint67_linear_0_1808" x1="175.246" y1="215.537" x2="192.65" y2="215.537" gradientUnits="userSpaceOnUse">
<stop stop-color="#D1A9C7"/>
<stop offset="0.99" stop-color="#B32083"/>
</linearGradient>
</defs>
</svg>
