<svg width="243" height="437" viewBox="0 0 243 437" fill="none" xmlns="http://www.w3.org/2000/svg">
<g clip-path="url(#clip0_0_105)">
<path d="M205.804 188.263L173.959 193.265L183.512 160.979L175.778 156.886L156.671 196.448L161.221 205.542L191.701 209.635L205.804 188.263Z" fill="#ADB5BD"/>
<path d="M176.861 157.455L178.508 150.975L181.693 148.701L186.697 153.249L185.332 158.251L182.375 160.374L176.861 157.455Z" fill="#EBCEB1"/>
<path d="M157.058 304.41L152.913 353.502L163.04 421.539L176.643 421.976L174.405 354.203L190.337 297.866L157.058 304.41Z" fill="#484F5B"/>
<path d="M188.18 294.106L199.049 363.379L221.727 422.903L233.101 421.994L221.941 359.173L224.338 303.146L188.18 294.106Z" fill="#484F5B"/>
<path d="M164.382 421.612L154.396 427.451L156.216 432.453L175.324 430.634V421.539L164.382 421.612Z" fill="#3A3029"/>
<path d="M222.41 422.885L215.813 432.453L218.998 437L234.01 427.905L232.591 421.612L222.41 422.885Z" fill="#3A3029"/>
<path d="M209.33 187.994C209.33 187.994 206.387 185.803 196.041 195.543C185.696 205.283 152.317 282.046 153.491 310.13C154.174 312.045 187.434 307.711 211.437 313.832C235.439 319.953 232.691 324.959 231.285 310.13C229.88 295.302 252.827 184.566 209.33 187.994Z" fill="#ADB5BD"/>
<path d="M221.563 190.841L200.805 226.46L205.877 188.372L208.084 187.353C208.084 187.353 212.633 186.899 213.088 186.899C213.543 186.899 219.002 189.172 219.002 189.172L221.563 190.841Z" fill="#FFF7D7"/>
<path d="M227.418 165.931C227.196 165.804 226.964 165.676 226.75 165.558C223.49 163.828 219.897 162.816 216.213 162.589C214.859 162.447 213.49 162.578 212.187 162.975C210.295 163.644 208.821 165.217 207.893 166.995C207.026 168.811 206.44 170.747 206.155 172.738C205.39 172.384 204.913 171.615 204.521 170.869C203.375 168.678 202.279 166.022 202.247 163.507C202.215 160.993 203.612 158.246 202.993 155.75C202.711 154.59 201.887 153.658 201.314 152.616C200.702 151.48 200.375 150.211 200.361 148.92C200.346 147.63 200.645 146.354 201.232 145.204C201.596 144.463 202.106 143.803 202.731 143.264C203.357 142.725 204.085 142.318 204.872 142.067C207.51 141.339 210.249 142.867 212.979 142.767C214.344 142.712 215.708 142.24 217.1 142.253C220.026 142.285 222.482 144.44 224.302 146.728C226.122 149.015 227.669 151.621 230.103 153.239C232.054 154.535 234.415 155.058 236.472 156.232C238.164 157.223 239.614 158.58 240.716 160.203C241.818 161.826 242.544 163.674 242.841 165.613C243.519 169.942 242.263 175.003 238.66 177.649C236.902 179.019 235.248 180.516 233.71 182.128C233.164 182.674 227.873 185.807 228.501 183.415C228.983 181.56 230.062 179.9 230.535 178.04C231.668 173.511 231.194 168.155 227.418 165.931Z" fill="#C19D05"/>
<path d="M211.204 158.128C216.277 162.721 224.725 162.134 229.17 167.377C232.059 170.787 232.418 176.017 230.808 180.346C230.057 182.365 228.879 184.284 227.168 185.534C226.048 186.32 224.783 186.876 223.447 187.171C221.697 187.593 219.885 187.685 218.101 187.444C218.101 187.649 218.06 187.849 218.047 188.054C218.005 188.561 217.85 189.052 217.593 189.491C217.337 189.931 216.985 190.308 216.565 190.594C216.144 190.88 215.664 191.069 215.161 191.147C214.658 191.224 214.144 191.188 213.657 191.041L208.393 189.463L210.058 183.82C209.336 183.197 208.679 182.502 208.097 181.746C204.581 177.149 203.912 170.378 206.446 164.967C207.629 162.434 209.421 160.256 211.204 158.128Z" fill="#EBCEB1"/>
<path d="M119.098 217.043L109.417 214.346C109.672 213.437 109.931 212.495 110.19 211.572L112.251 204.178L115.222 193.528C116.38 189.357 117.544 185.186 118.711 181.014C119.924 176.679 121.138 172.346 122.351 168.014C123.476 163.976 124.601 159.938 125.726 155.9L128.456 146.059C129.034 143.995 129.621 141.935 130.185 139.866C131.668 134.409 135.871 129.562 141.199 127.588C143.468 126.777 145.869 126.402 148.278 126.483C151.882 126.52 155.437 127.331 158.7 128.861C160.146 129.621 161.542 130.472 162.881 131.408C165.474 133.099 199.581 167.786 200.25 168.214L193.426 175.276L155.129 138.352C154.374 137.724 151.881 136.414 148.846 136.392C146.947 136.366 145.086 136.925 143.514 137.992C141.679 139.165 140.333 140.963 139.725 143.053C139.525 143.781 139.32 144.513 139.115 145.241L137.041 152.689L134.12 163.148L130.744 175.339C129.571 179.547 128.398 183.752 127.228 187.954C126.13 191.873 125.036 195.792 123.948 199.708L121.273 209.308C120.699 211.363 120.128 213.415 119.557 215.465L119.098 217.043Z" fill="#FCA311"/>
<path d="M130.185 139.861C129.98 140.612 129.766 141.366 129.557 142.135L139.238 144.831C139.397 144.245 139.561 143.658 139.725 143.072C139.779 142.881 139.848 142.699 139.911 142.517L130.203 139.811C130.203 139.811 130.189 139.839 130.185 139.861Z" fill="#FCA311"/>
<path d="M132.432 134.827L140.453 141.28C140.84 140.571 141.325 139.92 141.895 139.347L133.861 132.881C133.346 133.501 132.869 134.15 132.432 134.827Z" fill="#FCA311"/>
<path d="M145.302 137.037L140.612 127.825C139.868 128.132 139.147 128.494 138.456 128.907L143.191 138.215L143.496 137.992C144.061 137.608 144.666 137.287 145.302 137.037Z" fill="#FCA311"/>
<path d="M148.278 126.488C147.773 126.488 147.263 126.488 146.758 126.488L146.635 136.615C147.361 136.45 148.102 136.369 148.846 136.374H149.051L149.174 126.506C148.874 126.51 148.573 126.492 148.278 126.488Z" fill="#FCA311"/>
<path d="M154.783 127.406L150.689 136.569C151.492 136.71 152.278 136.933 153.036 137.233L157.062 128.166C156.322 127.875 155.563 127.621 154.783 127.406Z" fill="#FCA311"/>
<path d="M109.508 435.181L182.33 224.232L45.8486 186.207L0 404.678C0 404.678 45.5483 434.017 109.508 435.181Z" fill="#FCA311"/>
<path d="M195.666 212.168L40.6688 168.999L36.5902 183.629L191.588 226.798L195.666 212.168Z" fill="#E1E0DF"/>
<path d="M192.672 201.244L48.893 161.2L46.2823 170.565L190.061 210.609L192.672 201.244Z" fill="#F1F0F0"/>
<path d="M45.8304 186.207C45.8304 186.207 150.266 219.953 176.188 242.03L182.33 224.232L45.8304 186.207Z" fill="#FCA311"/>
<path d="M0 404.678C0 404.678 45.5483 434.017 109.508 435.181L164.801 275.016C80.2054 409.789 0 404.678 0 404.678Z" fill="#FCA311"/>
<path d="M134.447 370.396L165.429 281.519L30.6491 243.976L11.6191 336.182L134.447 370.396Z" fill="#0D1B2A"/>
<path d="M165.429 281.519C165.429 281.519 136.972 334.772 88.5807 357.622L134.447 370.4L165.429 281.519Z" fill="#0D1B2A"/>
<path d="M14.2168 336.905L132.095 369.741L128.843 379.167L14.2168 336.905Z" fill="#FCA311"/>
<path d="M192.657 201.254L190.045 210.617L122.201 191.719C122.201 191.719 179.395 207.448 192.657 201.254Z" fill="#D8D5D3"/>
<path d="M225.367 194.174L187.152 221.458L144.811 208.385L140.739 215.678L185.787 241.011L234.929 220.417L234.465 205.088L225.367 194.174Z" fill="#4E7574"/>
<path d="M143.937 210.09C144.233 209.808 140.298 202.814 140.298 202.814L132.919 199.545L129.807 202.5L133.064 209.917L141.208 215.092L143.937 210.09Z" fill="#EBCEB1"/>
<path d="M181.238 146.928L184.877 147.337L188.062 151.43L186.697 155.522L181.693 151.884L181.238 146.928Z" fill="#EBCEB1"/>
<path d="M102.761 145.514C109.168 145.514 114.362 140.322 114.362 133.918C114.362 127.514 109.168 122.322 102.761 122.322C96.3541 122.322 91.1602 127.514 91.1602 133.918C91.1602 140.322 96.3541 145.514 102.761 145.514Z" fill="#C1DCE3"/>
<g opacity="0.65">
<path d="M110.486 126.874C110.487 127.115 110.416 127.35 110.283 127.55C110.151 127.75 109.961 127.907 109.739 127.999C109.517 128.092 109.273 128.116 109.037 128.07C108.801 128.024 108.584 127.908 108.414 127.739C108.244 127.569 108.128 127.353 108.08 127.117C108.033 126.882 108.057 126.637 108.149 126.415C108.24 126.193 108.396 126.003 108.596 125.87C108.796 125.736 109.031 125.665 109.271 125.665C109.593 125.665 109.901 125.792 110.129 126.019C110.356 126.245 110.485 126.553 110.486 126.874Z" fill="white"/>
<path d="M95.1591 135.259C95.1591 135.223 95.1591 135.182 95.1591 135.146L95.2001 135.428C95.075 134.472 95.075 133.505 95.2001 132.549L95.1637 132.831C95.2807 131.974 95.5069 131.135 95.837 130.335C95.8006 130.421 95.7642 130.503 95.7324 130.589C96.0281 129.883 96.415 129.218 96.8834 128.611L96.715 128.825C97.1461 128.271 97.6443 127.773 98.1981 127.343L97.9843 127.511C98.5318 127.09 99.1311 126.742 99.7676 126.474L99.5129 126.579C100.221 126.286 100.964 126.085 101.724 125.983L101.442 126.024C102.334 125.906 103.238 125.906 104.13 126.024L103.848 125.987C104.562 126.08 105.267 126.232 105.955 126.442C106.089 126.479 106.23 126.489 106.368 126.472C106.506 126.455 106.64 126.411 106.761 126.342C106.882 126.273 106.989 126.181 107.075 126.071C107.16 125.961 107.223 125.835 107.26 125.701C107.298 125.567 107.308 125.426 107.29 125.288C107.273 125.15 107.229 125.016 107.16 124.895C107.091 124.774 106.999 124.667 106.889 124.582C106.779 124.496 106.653 124.433 106.519 124.396C105.051 123.924 103.509 123.728 101.97 123.818C100.574 123.907 99.2136 124.293 97.9798 124.951C96.8595 125.581 95.8765 126.429 95.0882 127.444C94.3 128.459 93.7225 129.621 93.3894 130.862C92.9537 132.473 92.8653 134.158 93.1301 135.805C93.1635 135.939 93.2239 136.064 93.3076 136.174C93.3913 136.283 93.4966 136.374 93.6169 136.442C93.7397 136.512 93.8753 136.558 94.0159 136.576C94.1564 136.594 94.2991 136.584 94.4358 136.546C94.7019 136.473 94.9288 136.298 95.0681 136.06C95.2034 135.809 95.2422 135.518 95.1773 135.241L95.1591 135.259Z" fill="white"/>
</g>
<path d="M109.817 124.723C111.513 126.956 112.343 129.727 112.153 132.524C111.962 135.32 110.765 137.953 108.782 139.936C106.798 141.918 104.164 143.115 101.366 143.305C98.5681 143.495 95.7958 142.666 93.5623 140.971C94.564 142.289 95.8365 143.378 97.2942 144.164C98.7519 144.95 100.361 145.414 102.013 145.527C103.666 145.639 105.323 145.397 106.874 144.815C108.425 144.234 109.833 143.328 111.004 142.157C112.175 140.987 113.082 139.579 113.663 138.029C114.245 136.479 114.488 134.822 114.375 133.171C114.263 131.519 113.798 129.911 113.012 128.453C112.225 126.996 111.136 125.725 109.817 124.723Z" fill="#89C5DA"/>
<path d="M176.191 10.8683C178.679 8.3821 178.679 4.35124 176.191 1.86507C173.704 -0.62109 169.671 -0.621091 167.184 1.86507C164.697 4.35124 164.697 8.3821 167.184 10.8683C169.671 13.3544 173.704 13.3544 176.191 10.8683Z" fill="#C1DCE3"/>
<g opacity="0.65">
<path d="M175.26 3.16036C175.627 3.16036 175.924 2.86312 175.924 2.49646C175.924 2.12979 175.627 1.83255 175.26 1.83255C174.893 1.83255 174.596 2.12979 174.596 2.49646C174.596 2.86312 174.893 3.16036 175.26 3.16036Z" fill="white"/>
<path d="M167.512 7.10287V7.0392V7.19381C167.444 6.67005 167.444 6.13966 167.512 5.6159V5.77051C167.576 5.30182 167.7 4.84329 167.881 4.40632L167.822 4.54274C167.987 4.15578 168.199 3.79073 168.454 3.45593L168.363 3.57416C168.598 3.27015 168.872 2.99806 169.177 2.76474L169.059 2.85569C169.355 2.62348 169.679 2.42945 170.024 2.27818L169.887 2.3373C170.275 2.17643 170.681 2.06638 171.097 2.00989H170.942C171.433 1.94625 171.93 1.94625 172.421 2.00989H172.266C172.658 2.06437 173.045 2.15107 173.422 2.26909C173.496 2.28939 173.573 2.29497 173.649 2.28551C173.725 2.27604 173.798 2.25172 173.864 2.21393C173.931 2.17613 173.989 2.12561 174.036 2.06525C174.083 2.00488 174.118 1.93585 174.138 1.8621C174.159 1.78835 174.164 1.71133 174.155 1.63542C174.145 1.55952 174.121 1.48622 174.083 1.41971C174.045 1.35321 173.995 1.2948 173.934 1.24782C173.874 1.20084 173.805 1.16621 173.731 1.14591C172.928 0.88822 172.085 0.78032 171.243 0.827592C170.476 0.875802 169.728 1.08826 169.05 1.45057C168.435 1.79525 167.896 2.25921 167.463 2.81519C167.03 3.37118 166.713 4.008 166.53 4.68825C166.291 5.5776 166.243 6.50741 166.389 7.41663C166.407 7.48952 166.441 7.5578 166.487 7.61724C166.533 7.67668 166.591 7.72603 166.657 7.76222C166.725 7.80211 166.8 7.8279 166.878 7.83806C166.957 7.84821 167.036 7.84253 167.112 7.82134C167.259 7.78044 167.384 7.68431 167.462 7.55305C167.537 7.41394 167.558 7.252 167.521 7.09832L167.512 7.10287Z" fill="white"/>
</g>
<path d="M175.569 1.31873C176.514 2.54414 176.979 4.0713 176.879 5.61487C176.779 7.15845 176.12 8.61284 175.026 9.70631C173.931 10.7998 172.476 11.4575 170.932 11.5567C169.387 11.6558 167.86 11.1896 166.634 10.2451C167.187 10.9621 167.886 11.5531 168.685 11.9787C169.484 12.4043 170.365 12.6547 171.269 12.7131C172.172 12.7716 173.078 12.6368 173.925 12.3178C174.773 11.9988 175.542 11.5028 176.183 10.863C176.823 10.2232 177.32 9.4542 177.639 8.60738C177.959 7.76057 178.094 6.85537 178.036 5.95216C177.978 5.04895 177.728 4.16849 177.303 3.36951C176.877 2.57053 176.286 1.87139 175.569 1.31873Z" fill="#89C5DA"/>
<path d="M61.4126 98.4991C64.0775 95.8353 64.0775 91.5165 61.4126 88.8528C58.7476 86.189 54.4268 86.189 51.7619 88.8528C49.0969 91.5165 49.0969 95.8353 51.7619 98.4991C54.4268 101.163 58.7476 101.163 61.4126 98.4991Z" fill="#C1DCE3"/>
<g opacity="0.65">
<path d="M60.4156 90.2411C60.8101 90.2411 61.1299 89.9215 61.1299 89.5272C61.1299 89.1329 60.8101 88.8133 60.4156 88.8133C60.0211 88.8133 59.7014 89.1329 59.7014 89.5272C59.7014 89.9215 60.0211 90.2411 60.4156 90.2411Z" fill="white"/>
<path d="M52.113 94.4656C52.113 94.4429 52.113 94.4201 52.113 94.3974L52.1358 94.5611C52.0605 93.9997 52.0605 93.4308 52.1358 92.8695L52.113 93.0377C52.1804 92.533 52.3135 92.0392 52.5088 91.569L52.4451 91.719C52.6206 91.3038 52.8484 90.9126 53.123 90.5549L53.0274 90.6777C53.2795 90.3529 53.5715 90.0611 53.8964 89.8092L53.7735 89.9047C54.0952 89.6582 54.4468 89.4535 54.8199 89.2953L54.6698 89.359C55.0864 89.1864 55.5238 89.0687 55.9709 89.0088H55.8025C56.3296 88.9406 56.8632 88.9406 57.3903 89.0088L57.222 88.9861C57.6431 89.0428 58.0587 89.1356 58.4639 89.2635C58.6238 89.3069 58.7944 89.2851 58.9381 89.2028C59.0819 89.1205 59.1871 88.9845 59.2305 88.8247C59.2739 88.6649 59.2521 88.4944 59.1698 88.3507C59.0874 88.207 58.9514 88.1019 58.7915 88.0585C57.9311 87.8001 57.0306 87.7015 56.1347 87.7674C54.9624 87.8317 53.841 88.2674 52.9331 89.0114C52.0252 89.7554 51.3778 90.7691 51.0849 91.9055C50.8314 92.8543 50.7787 93.8454 50.9302 94.8157C50.9509 94.8944 50.9874 94.968 51.0375 95.0321C51.0875 95.0962 51.1501 95.1494 51.2213 95.1886C51.2924 95.2314 51.3714 95.2591 51.4536 95.27C51.5357 95.281 51.6193 95.2749 51.699 95.2523C51.8552 95.2074 51.9885 95.1051 52.0721 94.9658C52.154 94.8191 52.1767 94.6467 52.1358 94.4838L52.113 94.4656Z" fill="white"/>
</g>
<path d="M60.7432 88.2631C61.7288 89.5766 62.2073 91.2014 62.0908 92.8392C61.9744 94.4769 61.2708 96.0178 60.1093 97.1788C58.9477 98.3398 57.4062 99.043 55.7677 99.1594C54.1292 99.2758 52.5036 98.7975 51.1895 97.8124C51.7761 98.5942 52.524 99.2409 53.3824 99.7086C54.2408 100.176 55.1898 100.454 56.165 100.524C57.1402 100.593 58.119 100.452 59.035 100.11C59.9509 99.7685 60.7828 99.234 61.4741 98.543C62.1654 97.8519 62.7001 97.0205 63.042 96.1049C63.3839 95.1894 63.5249 94.2111 63.4556 93.2363C63.3863 92.2615 63.1083 91.313 62.6403 90.4549C62.1723 89.5969 61.5253 88.8494 60.7432 88.2631Z" fill="#89C5DA"/>
<path d="M96.7482 36.7075C99.063 22.4535 89.3791 9.02263 75.1186 6.70888C60.8581 4.39513 47.4212 14.0746 45.1064 28.3286C42.7916 42.5826 52.4755 56.0135 66.736 58.3272C80.9965 60.641 94.4334 50.9615 96.7482 36.7075Z" fill="#C1DCE3"/>
<g opacity="0.65">
<path d="M85.5873 19.3533C87.0973 19.3533 88.3215 18.1297 88.3215 16.6204C88.3215 15.111 87.0973 13.8875 85.5873 13.8875C84.0773 13.8875 82.8531 15.111 82.8531 16.6204C82.8531 18.1297 84.0773 19.3533 85.5873 19.3533Z" fill="white"/>
<path d="M53.7735 35.5371L53.7326 35.2734C53.7644 35.4871 53.7917 35.6963 53.819 35.91C53.5271 33.7589 53.5195 31.5787 53.7963 29.4256L53.7144 30.0622C53.9674 28.1273 54.4752 26.2344 55.2248 24.4326L54.9837 25.0056C55.6574 23.4134 56.5302 21.913 57.5814 20.5401L57.2083 21.0267C58.1799 19.7797 59.3031 18.6584 60.5521 17.689L60.0653 18.0619C61.3027 17.1176 62.6538 16.3324 64.087 15.7246L63.5137 15.9656C65.108 15.3015 66.783 14.8504 68.4953 14.6241L67.8584 14.7105C69.8741 14.4574 71.9143 14.4681 73.9272 14.7423L73.2903 14.6559C74.9002 14.8786 76.4889 15.2345 78.0399 15.72C78.6522 15.8888 79.3066 15.8076 79.859 15.4942C80.4114 15.1808 80.8167 14.6609 80.9856 14.0489C81.1545 13.4368 81.0733 12.7828 80.7597 12.2306C80.4462 11.6784 79.926 11.2733 79.3137 11.1045C76.0126 10.0438 72.544 9.60132 69.0822 9.79942C65.9362 10.006 62.8695 10.8754 60.0835 12.3505C54.9518 15.1107 51.3123 20.1081 49.7382 25.6604C48.7576 29.294 48.5576 33.094 49.1514 36.8104C49.2278 37.1108 49.3649 37.3925 49.5542 37.638C49.7436 37.8836 49.9811 38.0878 50.2523 38.2382C50.5238 38.397 50.8239 38.5007 51.1355 38.5434C51.4471 38.5862 51.7641 38.5671 52.0684 38.4873C52.3726 38.4074 52.6581 38.2684 52.9085 38.0782C53.1589 37.888 53.3694 37.6504 53.5279 37.3788C53.831 36.8151 53.9168 36.1598 53.769 35.5371H53.7735Z" fill="white"/>
</g>
<path d="M86.8475 11.7775C90.7097 16.8102 92.6101 23.0745 92.1946 29.4037C91.7791 35.7329 89.076 41.6953 84.5889 46.1803C80.1019 50.6654 74.1367 53.3672 67.8047 53.7825C61.4726 54.1978 55.2054 52.2983 50.1704 48.4378C52.437 51.3912 55.3082 53.8268 58.5922 55.5819C61.8762 57.3369 65.4973 58.3708 69.2132 58.6145C72.9291 58.8583 76.6543 58.3062 80.1396 56.9951C83.6249 55.6841 86.79 53.6444 89.4232 51.0124C92.0564 48.3804 94.097 45.2167 95.4086 41.733C96.7203 38.2493 97.2726 34.5259 97.0288 30.8116C96.785 27.0974 95.7505 23.478 93.9947 20.1955C92.2389 16.913 89.8022 14.043 86.8475 11.7775Z" fill="#89C5DA"/>
<path d="M177.205 79.4181C180.003 62.1893 168.298 45.9555 151.062 43.1589C133.825 40.3623 117.584 52.0618 114.786 69.2906C111.988 86.5194 123.693 102.753 140.93 105.55C158.166 108.346 174.408 96.6468 177.205 79.4181Z" fill="#C1DCE3"/>
<g opacity="0.65">
<path d="M163.709 58.4465C165.536 58.4465 167.016 56.9664 167.016 55.1406C167.016 53.3148 165.536 51.8347 163.709 51.8347C161.882 51.8347 160.402 53.3148 160.402 55.1406C160.402 56.9664 161.882 58.4465 163.709 58.4465Z" fill="white"/>
<path d="M125.258 78.0044C125.258 77.8952 125.226 77.7907 125.212 77.6861L125.317 78.4546C124.962 75.854 124.953 73.218 125.29 70.615C125.253 70.8697 125.221 71.1243 125.185 71.3835C125.49 69.04 126.102 66.7467 127.005 64.5626C126.905 64.7945 126.809 65.0173 126.709 65.2538C127.523 63.3295 128.579 61.5171 129.853 59.8607L129.398 60.4473C130.571 58.9383 131.928 57.5818 133.438 56.4093L132.855 56.864C134.347 55.7198 135.978 54.7694 137.709 54.0356L137.018 54.3266C138.946 53.5257 140.971 52.9814 143.041 52.7078L142.272 52.8078C144.709 52.5054 147.173 52.5191 149.606 52.8487L148.837 52.7487C150.784 53.0145 152.704 53.4434 154.578 54.031C155.319 54.2348 156.11 54.1364 156.777 53.7573C157.445 53.3783 157.934 52.7496 158.138 52.0097C158.342 51.2699 158.244 50.4793 157.865 49.812C157.485 49.1447 156.856 48.6553 156.116 48.4515C152.126 47.171 147.935 46.6361 143.751 46.8736C139.947 47.1206 136.239 48.173 132.873 49.9612C126.673 53.2944 122.273 59.3332 120.367 66.045C119.185 70.4378 118.943 75.0306 119.658 79.5232C119.752 79.8862 119.918 80.2265 120.147 80.5234C120.376 80.8204 120.663 81.0679 120.99 81.2512C121.653 81.6382 122.442 81.7465 123.184 81.552C123.926 81.3576 124.561 80.8764 124.948 80.2144C125.313 79.5317 125.417 78.7396 125.24 77.9862L125.258 78.0044Z" fill="white"/>
</g>
<path d="M165.238 49.2836C169.91 55.3664 172.209 62.9397 171.709 70.5919C171.208 78.2442 167.94 85.4534 162.515 90.8759C157.09 96.2984 149.878 99.5643 142.222 100.065C134.566 100.566 126.99 98.2669 120.904 93.5971C123.644 97.1649 127.115 100.107 131.084 102.227C135.053 104.346 139.429 105.595 143.92 105.888C148.41 106.182 152.912 105.514 157.123 103.929C161.335 102.345 165.159 99.8798 168.341 96.6992C171.523 93.5187 173.989 89.6958 175.575 85.4862C177.16 81.2766 177.828 76.7772 177.535 72.2888C177.241 67.8003 175.992 63.4263 173.871 59.4591C171.751 55.4918 168.807 52.0227 165.238 49.2836Z" fill="#89C5DA"/>
<g clip-path="url(#clip1_0_105)">
<path d="M124.264 295.844L119.071 294.289L116.036 304.421C115.05 307.711 117.743 311.601 122.107 312.908C126.471 314.215 131.164 312.512 132.142 309.245L135.177 299.113L129.986 297.558L127.257 306.67C127.018 307.406 126.496 308.016 125.805 308.367C125.114 308.718 124.31 308.781 123.57 308.543C121.95 308.058 121.024 306.454 121.487 304.906L124.207 295.827L124.264 295.844Z" fill="#ADB5BD"/>
<path d="M43.7431 265.668L37.4564 286.657L32.0645 285.042L39.6514 259.712L49.3406 262.614C53.5423 263.872 56.0004 268.3 54.7586 272.446C54.2508 274.129 53.1839 275.588 51.7326 276.586C50.2812 277.584 48.5313 278.061 46.769 277.939L51.0821 290.738L44.6648 288.816L41.7582 278.912L43.5711 272.86L44.8258 273.235C46.812 273.83 48.876 272.834 49.4179 271.025C49.6721 270.112 49.5515 269.135 49.0826 268.309C48.6136 267.483 47.8347 266.874 46.9171 266.618L43.7431 265.668Z" fill="#ADB5BD"/>
<path d="M86.8993 301.466L94.8507 274.918L89.7576 273.393L86.0036 285.926C85.5422 285.074 84.9146 284.321 84.1576 283.713C83.4006 283.104 82.5295 282.652 81.5955 282.383C77.3938 281.125 72.8843 283.789 71.515 288.361C70.1457 292.933 72.4472 297.64 76.6489 298.899C78.6326 299.493 80.7455 299.299 82.3188 298.229L81.7961 299.974L86.8893 301.499L86.8993 301.466ZM79.4193 295.032C77.371 294.418 76.2255 292.104 76.9055 289.833C77.5855 287.563 79.8147 286.259 81.863 286.872C83.9113 287.486 85.0711 289.805 84.3911 292.075C83.6541 294.292 81.4508 295.64 79.4312 295.035" fill="#ADB5BD"/>
<path d="M112.382 294.115C113.265 293.707 114.051 293.121 114.691 292.393C115.331 291.665 115.811 290.811 116.1 289.886C116.608 288.197 116.443 286.376 115.641 284.801C114.811 283.119 112.925 281.694 110.021 280.825L101.355 278.229L93.7678 303.56L104.98 306.918C109.268 308.13 113.737 305.955 114.929 301.976C115.763 299.07 115.351 296.724 112.382 294.115ZM105.273 302.2L100.414 300.745L105.32 284.362L108.729 285.383C109.086 285.48 109.42 285.647 109.712 285.874C110.005 286.101 110.249 286.383 110.431 286.705C110.613 287.026 110.729 287.38 110.772 287.746C110.816 288.112 110.786 288.483 110.684 288.837C110.464 289.558 109.966 290.164 109.3 290.521C108.633 290.879 107.85 290.96 107.122 290.746L105.335 290.211L103.965 294.783L107.273 295.773C109.058 296.308 109.972 298.196 109.44 299.972C108.842 301.727 107.258 302.686 105.275 302.201" fill="#ADB5BD"/>
<path d="M58.4433 282.405C58.6863 281.593 59.2435 280.912 59.9922 280.511C60.7409 280.11 61.6199 280.022 62.4357 280.266C63.2515 280.511 63.9373 281.067 64.3423 281.814C64.7473 282.56 64.8383 283.436 64.5953 284.247L58.4433 282.405ZM68.8005 288.615C68.9422 288.264 69.0739 287.946 69.1822 287.585C70.8844 282.136 68.1753 278.068 63.5458 276.682C61.3049 276.051 58.9075 276.322 56.8702 277.435C54.8329 278.548 53.3189 280.415 52.6545 282.633C51.9901 284.851 52.2286 287.243 53.3185 289.293C54.4084 291.343 56.2624 292.887 58.481 293.592C62.0182 294.651 65.2806 293.872 67.4518 291.797L63.8788 288.683C63.4092 289.177 62.8086 289.528 62.1463 289.696C61.484 289.864 60.7869 289.843 60.1352 289.634C58.2494 289.069 57.0961 287.146 57.6593 285.266L68.8041 288.604" fill="#ADB5BD"/>
<path d="M146.005 290.273L140.912 288.748L132.96 315.296L138.054 316.821L146.005 290.273Z" fill="#ADB5BD"/>
<path d="M154.671 292.869L149.578 291.344L141.627 317.891L146.72 319.417L154.671 292.869Z" fill="#ADB5BD"/>
<path d="M72.4544 316.277C73.1891 313.824 74.6386 311.645 76.6196 310.016C78.6006 308.386 81.0241 307.38 83.5837 307.124C86.1432 306.867 88.7238 307.373 90.9992 308.576C93.2746 309.779 95.1426 311.625 96.3668 313.882C97.5911 316.139 98.1168 318.704 97.8773 321.254C97.6378 323.804 96.644 326.224 95.0214 328.208C93.3989 330.192 91.2206 331.65 88.7619 332.399C86.3032 333.147 83.6746 333.153 81.2085 332.414C79.5702 331.925 78.0438 331.119 76.7169 330.043C75.3899 328.967 74.2883 327.642 73.4752 326.143C72.6621 324.644 72.1534 323.001 71.9782 321.308C71.8031 319.615 71.9649 317.905 72.4544 316.277Z" fill="#FFD300"/>
<path d="M77.0996 309.637C77.276 309.795 77.4419 309.964 77.5965 310.143C78.3365 311.046 78.7964 311.798 79.8624 313.413C80.1644 313.969 80.4285 314.766 80.666 315.304C81.1412 316.482 81.495 317.345 81.3709 318.168C81.1287 319.641 81.0666 321.138 81.1862 322.628C81.2658 322.885 81.373 323.134 81.506 323.369C81.7547 323.982 81.6931 324.787 82.2605 325.423C82.433 325.594 82.5955 325.774 82.7474 325.963C82.8959 326.189 82.4023 326.637 81.4436 326.22C81.8959 326.641 81.6616 327.179 80.8916 326.985C80.4095 326.873 79.9572 326.658 79.5663 326.355C79.1755 326.052 78.8553 325.668 78.6281 325.229C78.5593 325.102 78.1424 325.408 77.5885 325.457C76.9796 325.559 76.3648 325.09 75.7716 325.019C75.2135 324.96 74.4484 325.089 73.8815 324.955C72.9156 324.702 72.9766 324.003 73.1539 323.411L73.2329 323.147C73.0131 323.443 72.7631 323.715 72.4868 323.96C72.2723 324.251 71.9549 324.45 71.5983 324.518L70.5338 324.341C69.6321 324.465 68.7361 324.448 67.8201 324.497C67.5648 324.479 67.3164 324.406 67.0921 324.283C66.8677 324.159 66.6727 323.989 66.5205 323.784C66.3269 323.494 66.2041 323.162 66.1618 322.817C66.0144 322.7 65.765 322.698 65.5866 322.572C65.4546 322.481 65.3541 322.351 65.2993 322.201L64.9707 320.776C64.9577 320.576 65.0171 320.378 65.138 320.217C65.2432 320.115 65.3743 320.044 65.5174 320.011C65.6604 319.977 65.81 319.983 65.9501 320.028C66.4899 320.156 67.1014 320.158 67.5705 320.513C67.8878 320.323 68.2392 320.454 68.5527 320.486C68.4554 320.271 68.335 320.066 68.1937 319.876C67.1975 319.837 66.2235 319.359 65.3548 318.92C64.587 318.475 63.7106 318.748 62.9157 318.368L62.4854 318.848C61.9605 319.157 61.7198 319.839 61.0675 319.964C60.6098 319.936 60.2323 320.144 59.8003 320.23C59.0635 320.403 58.2188 319.971 57.5648 319.633C57.3285 319.522 57.0656 319.48 56.8067 319.512C56.5178 319.607 56.1838 319.792 55.9117 319.892C55.4323 319.927 54.9943 320.189 54.5206 320.084C54.2553 320.004 54.0392 319.761 53.7905 319.756C53.35 320.018 53.0171 320.53 52.4708 320.545C51.9246 320.56 51.3041 320.232 50.8277 319.944C50.6405 319.961 50.5033 320.062 50.3142 319.972C49.9803 319.781 49.6749 319.545 49.4071 319.27C49.3385 319.117 49.3141 318.948 49.3369 318.783C49.4081 318.545 49.6634 318.414 49.8105 318.279C49.8968 318.024 50.0183 317.783 50.1715 317.561C50.4588 317.28 50.8423 317.117 51.2455 317.106C51.2972 316.983 51.3801 316.875 51.4862 316.794C51.5923 316.712 51.7179 316.66 51.8507 316.642C52.3521 316.533 52.9247 316.186 53.4228 316.61L53.8698 317.283C54.4692 317.203 54.4838 316.677 54.8438 316.318C55.0635 316.063 55.3174 315.815 55.6162 315.904C55.8652 315.943 56.101 316.086 56.3093 316.112C56.671 316.137 57.032 316.059 57.3506 315.888L57.3762 315.68C57.2237 314.989 57.3504 314.201 57.5334 313.468C56.9184 313.357 56.2893 313.274 55.7381 312.967C55.2884 312.741 54.9049 312.403 54.6253 311.986C54.3457 311.569 54.1796 311.087 54.1432 310.588C54.0927 310.066 54.1811 309.541 54.3995 309.065C54.6179 308.589 54.9586 308.18 55.3873 307.877C56.0408 307.45 56.7394 307.094 57.4705 306.817C57.2921 306.691 57.0527 306.656 56.9053 306.539C56.1175 306.161 55.4879 305.185 55.565 304.275C55.6046 303.721 55.863 303.205 56.2839 302.84C56.4135 302.773 56.5414 302.702 56.6863 302.818C57.0674 303.111 57.1322 303.382 57.4364 303.688L57.6362 303.89C58.5861 304.571 60.0081 304.997 60.0422 306.44C60.002 307.539 59.1135 308.097 58.2068 308.481C57.4835 308.731 56.7738 309.057 56.2877 309.593C56.1445 309.78 56.0641 310.008 56.0579 310.244C56.0516 310.48 56.1199 310.713 56.253 310.909C56.5339 311.423 57.1936 311.62 57.7498 311.572C58.7861 311.425 59.7998 311.15 60.768 310.756C61.7084 310.39 62.726 310.48 63.7271 310.746C64.1973 310.782 64.6689 310.702 65.0994 310.512C65.8234 310.086 66.6495 309.863 67.4911 309.865C67.8767 309.908 68.2165 309.974 68.5898 310.049C68.9277 310.008 69.2343 309.706 69.4726 309.632C70.8069 309.029 72.219 309.489 73.5688 309.069C74.331 308.741 75.1883 308.704 75.978 308.964C76.3335 309.098 76.6665 309.286 76.9656 309.519L77.1341 309.678L77.0996 309.637ZM74.8972 320.842C74.3245 320.732 73.7458 320.655 73.1643 320.611C73.0603 321.08 73.2166 321.523 73.3991 322.114C73.8645 321.43 74.5415 321.308 74.8972 320.842Z" fill="#FFD300"/>
<path d="M92.9697 326.442C93.1255 327.006 93.2424 327.581 93.3195 328.161C93.7017 327.759 94.1046 327.377 94.5267 327.017C94.5367 326.984 93.6495 326.824 92.9697 326.442ZM92.9197 329.018C92.8563 329.107 92.7794 329.121 92.6408 329.079C92.603 329.57 92.018 330.289 91.2217 330.087C90.6501 329.952 89.9235 329.125 89.4387 328.944C88.8847 328.742 87.7646 328.872 87.4693 327.815C87.0728 328.1 86.6133 328.287 86.1291 328.359C85.6449 328.431 85.1501 328.387 84.6858 328.23C84.2222 328.091 83.8399 327.689 84.6669 327.328C83.0329 327.375 83.3384 326.355 83.6504 326.27C84.0392 326.144 84.4145 325.981 84.7707 325.782C87.4622 324.256 87.8151 320.313 90.8025 318.521C91.9454 317.827 92.8431 317.482 94.976 316.761C95.6993 316.511 96.5052 316.107 97.195 315.848L97.2092 315.922L97.2185 315.891C97.6632 315.737 98.0386 315.561 98.4546 315.616C99.245 315.765 99.9502 316.207 100.428 316.852C100.677 317.166 100.877 317.516 101.019 317.889C101.158 318.146 101.455 318.235 101.648 318.399C102.31 318.75 102.902 319.219 103.395 319.782C103.746 320.175 103.948 320.702 104.458 320.927C105.03 321.209 105.55 321.583 106 322.034C106.5 322.65 106.948 323.32 107.67 323.682C109.175 324.311 110.209 325.554 111.172 326.772C111.737 327.408 112.459 328.127 113.409 328.087C113.548 328.078 113.683 328.037 113.803 327.967C113.924 327.898 114.027 327.802 114.104 327.687C114.349 327.115 114.114 326.578 113.909 326.051C113.449 324.98 112.375 323.835 112.914 322.644C113.429 321.795 114.612 321.541 115.484 321.515C115.997 321.489 116.508 321.712 117.023 321.437C117.261 321.365 117.497 320.933 117.746 321.189C117.995 321.445 117.895 321.77 117.849 322.044C117.715 322.97 117.25 323.8 116.266 324.078C115.813 324.199 115.339 324.228 114.873 324.163C115.366 324.919 115.864 325.786 116.034 326.661C116.141 327.146 116.138 327.647 116.026 328.13C115.859 328.593 115.575 329.005 115.201 329.327C114.827 329.648 114.376 329.868 113.891 329.965C113.314 330.069 112.719 330.026 112.162 329.841C111.923 329.769 111.752 329.645 111.587 329.596C111.531 330.147 111.371 330.683 111.114 331.174C111.002 331.428 110.748 331.676 110.66 331.971C110.704 332.054 110.768 332.126 110.846 332.181C110.924 332.235 111.013 332.27 111.108 332.284C111.538 332.413 112.042 332.527 112.136 333.058C112.23 333.589 112.169 334.037 112.205 334.514C112.251 334.598 112.232 334.781 112.345 334.771C112.72 334.596 113.117 334.357 113.495 334.54C113.812 334.923 114.087 335.329 114.405 335.709C114.466 335.849 114.482 336.004 114.452 336.153C114.744 336.386 115.072 336.735 115.061 337.126C115.05 337.408 114.938 337.661 114.948 337.869C114.967 338.162 115.134 338.57 114.847 338.808L114.686 338.866L113.344 338.886C113.231 338.837 113.141 338.746 113.094 338.633C112.476 338.411 111.611 338.367 111.271 337.765C111.114 337.506 110.991 337.228 110.904 336.938C110.448 337.016 109.881 336.989 109.562 336.608C108.946 335.779 108.306 334.906 107.206 334.607C106.681 334.559 106.076 334.528 105.642 334.175C105.277 333.708 104.833 333.397 104.603 332.828C104.242 332.111 104.431 331.481 104.462 330.778C103.717 330.733 102.953 330.398 102.267 330.157C101.704 329.969 101.116 329.865 100.523 329.849C99.7849 329.778 99.0577 329.62 98.3562 329.379L97.9132 329.537C98.0791 329.591 98.2234 329.697 98.3254 329.839L98.42 330.01C98.9952 330.254 99.6865 330.355 100.175 330.644C100.24 330.691 100.294 330.75 100.336 330.817C100.377 330.885 100.405 330.96 100.417 331.038C100.43 331.127 100.42 331.218 100.389 331.303C100.358 331.388 100.306 331.463 100.238 331.523C99.8209 331.828 99.5278 332.207 99.0663 332.426C98.926 332.529 98.6795 332.274 98.577 332.494C98.4139 332.762 98.1807 332.979 97.9024 333.124C97.6241 333.269 97.3111 333.335 96.9972 333.316C96.7654 333.28 96.5452 333.19 96.3544 333.054C95.7636 332.618 95.1274 332.22 94.5145 331.858C94.3224 331.686 94.164 331.481 94.0476 331.252C93.7488 331.162 93.3229 331.141 93.2028 330.82C93.1265 330.676 93.0851 330.516 93.082 330.354C92.8903 330.037 92.879 329.466 92.9098 329.007" fill="#FFD300"/>
<path d="M75.5557 313.592C75.5844 314.177 75.4361 314.757 75.1299 315.257C75.1216 315.262 75.1122 315.266 75.1023 315.268C75.0924 315.269 75.0822 315.268 75.0726 315.266C75.063 315.263 75.0541 315.258 75.0466 315.251C75.0392 315.244 75.0334 315.236 75.0295 315.227C75.0758 314.742 75.0895 314.254 75.0707 313.768C75.0493 313.474 74.7879 313.147 74.9984 312.922C75.0503 312.905 75.1059 312.901 75.1599 312.911C75.2139 312.92 75.2645 312.944 75.3071 312.978C75.4215 313.169 75.5054 313.376 75.5557 313.592ZM79.3758 319.611C79.6116 320.146 79.7153 320.643 79.4468 321.174C79.3507 321.251 79.3251 321.459 79.1502 321.443C79.0733 321.456 79.0287 321.37 79.0487 321.303C79.1389 321.019 79.1552 320.717 79.0959 320.424C78.9567 320.167 78.8437 319.701 78.545 319.611C78.286 319.606 78.0493 319.823 77.8687 319.947C77.8587 319.981 77.8252 319.971 77.8018 319.927C77.7686 319.56 78.1129 319.376 78.2871 319.176C78.5446 319.039 78.6657 318.513 79.0595 318.763C79.2757 319.006 79.2437 319.357 79.3829 319.613M77.5446 323.221C77.5189 323.428 77.4307 323.723 77.2024 323.763C76.9682 323.77 76.7354 323.725 76.5204 323.632C76.4634 323.578 76.4089 323.526 76.4599 323.468C76.5633 323.33 76.6978 323.217 76.8527 323.139C77.0076 323.06 77.1788 323.019 77.3526 323.018C77.453 323.048 77.551 323.078 77.5518 323.223M57.5771 304.479C58.2781 304.904 59.1385 305.162 59.5228 305.922C59.6221 306.173 59.6435 306.448 59.5843 306.711C59.525 306.974 59.3877 307.213 59.1903 307.397C58.4995 308.017 57.4898 308.144 56.762 308.644C56.4353 308.788 56.1553 309.02 55.953 309.313C55.7507 309.607 55.634 309.95 55.6157 310.306C55.6352 310.635 55.7518 310.951 55.9508 311.215C56.1497 311.478 56.4223 311.678 56.7343 311.788C57.6804 312.108 58.5591 311.835 59.4473 311.635C60.3754 311.301 61.3109 310.83 62.2403 310.857C62.8946 310.838 63.4939 311.124 64.124 311.064C64.759 311.109 65.4011 310.765 66.0364 310.453C66.692 310.156 67.4379 310.123 68.1193 310.359C68.718 310.647 69.2586 310.164 69.8312 309.939C70.7448 309.498 71.7633 309.741 72.7447 309.594C73.399 309.575 74.0243 309.296 74.7084 309.177C75.3594 309.101 76.0161 309.272 76.5464 309.658C76.8776 309.923 77.1738 310.228 77.4279 310.567L79.3901 313.52C79.4023 313.62 79.452 313.712 79.5294 313.777C79.9801 314.881 80.5176 316.008 80.8165 317.175C80.8951 317.571 80.9201 317.976 80.8909 318.379C80.6258 319.808 80.5523 321.267 80.6723 322.717C80.7447 322.954 80.9608 323.197 81.0325 323.436C81.2854 324.157 81.3007 324.949 81.8757 325.552L82.2133 325.868C82.2242 325.891 82.2263 325.917 82.219 325.941C82.2118 325.965 82.1958 325.986 82.1741 325.999L82.0897 326.046C81.257 325.939 80.7639 325.255 80.5464 324.581C80.4392 323.974 80.2667 323.35 79.7359 322.939C79.7095 322.935 79.6825 322.94 79.659 322.953C79.6668 323.17 79.826 323.36 79.8414 323.543C79.9743 323.957 80.0402 324.388 80.0367 324.822C80.0399 325.289 80.4253 325.69 80.686 326.019L81.1376 326.442C81.1523 326.456 81.1635 326.473 81.1702 326.493C81.177 326.512 81.1791 326.532 81.1763 326.553C81.1736 326.573 81.1661 326.592 81.1545 326.609C81.1429 326.625 81.1275 326.639 81.1096 326.649L81.0351 326.663C80.6106 326.561 80.2132 326.369 79.8707 326.099C79.5282 325.829 79.2489 325.488 79.0523 325.1C79.0124 324.992 78.949 324.895 78.8667 324.815C78.7845 324.735 78.6853 324.674 78.5766 324.636C78.0716 324.879 77.6193 325.067 77.0819 324.94C76.5776 324.662 76.0064 324.529 75.4315 324.554C74.9187 324.579 74.4294 324.648 73.9346 324.5C73.8116 324.471 73.6992 324.408 73.6108 324.319C73.5223 324.229 73.4614 324.116 73.4354 323.993C73.5244 323.695 73.4143 323.341 73.6706 323.094L74.1479 322.701C74.1678 322.634 74.1543 322.558 74.0873 322.538C73.9659 322.465 73.665 322.626 73.6695 322.376C73.848 321.893 74.4341 321.745 74.8311 321.507C75.0146 321.13 75.3088 320.818 75.6748 320.612C75.6807 320.585 75.6767 320.558 75.6636 320.534C75.6505 320.511 75.6291 320.493 75.6036 320.484C75.1527 320.445 74.7055 320.371 74.2662 320.262C74.0522 320.321 73.8283 320.337 73.6079 320.307C73.3875 320.278 73.1751 320.205 72.9834 320.093C72.903 319.996 72.9656 319.909 73.0211 319.845C73.3295 319.609 73.5877 319.315 73.7809 318.979C73.9741 318.643 74.0985 318.272 74.1468 317.887C74.1257 317.845 74.1449 317.78 74.078 317.76C74.011 317.74 73.9918 317.804 73.9484 317.828C73.6563 318.456 73.2317 319.013 72.7034 319.463C72.3157 319.67 71.8855 319.541 71.4595 319.52C71.4021 319.521 71.3463 319.538 71.2985 319.57C71.2508 319.602 71.2131 319.646 71.1899 319.698C71.1109 319.962 71.2291 320.176 71.268 320.403L71.6321 322.196C71.5374 322.634 71.2208 322.969 71.0022 323.334C71.0158 323.41 71.0926 323.397 71.1671 323.383C71.5418 323.213 71.8538 322.93 72.0602 322.576C72.1288 322.41 72.1452 322.228 72.1072 322.053L71.7694 320.051C71.8655 319.973 71.997 320.013 72.1073 320.009C72.3061 320.094 72.4903 320.21 72.6533 320.352C72.6792 320.943 72.7822 321.528 72.9598 322.094C72.9384 322.409 72.9282 322.799 72.6607 322.97C72.3625 323.276 72.0473 323.565 71.7167 323.835C71.4065 324.001 71.0959 323.864 70.7875 323.816L70.6871 323.786C69.8002 323.945 68.8988 324.011 67.9976 323.983C67.7998 323.997 67.6018 323.956 67.4254 323.866C67.249 323.775 67.1011 323.638 66.9979 323.469C66.8197 323.16 66.7014 322.82 66.6491 322.468C66.4984 322.101 66.0633 322.259 65.8813 322.023C65.7423 321.608 65.6406 321.183 65.5774 320.75C65.5828 320.699 65.6024 320.65 65.634 320.608C65.6657 320.567 65.7082 320.535 65.7568 320.517C66.0825 320.53 66.4058 320.579 66.7209 320.663C66.8693 320.683 67.0112 320.737 67.1362 320.819C67.2613 320.901 67.3662 321.01 67.4432 321.138C67.7025 321.716 67.6925 322.358 68.1652 322.823C68.5875 322.971 69.043 322.995 69.4779 322.893C69.7561 322.834 70.0709 322.713 70.1499 322.449C70.2938 321.847 70.0252 321.3 69.6622 320.834C69.2177 320.424 68.8629 319.927 68.6201 319.374C68.5475 319.084 68.516 318.785 68.5266 318.486C68.5113 318.451 68.484 318.422 68.4494 318.405C68.4149 318.388 68.3755 318.384 68.3382 318.393C68.0907 318.498 68.1666 318.845 68.1175 319.009C68.0684 319.173 68.1289 319.336 68.0328 319.413C67.6628 319.562 67.3408 319.315 66.9676 319.239C66.282 318.998 65.6779 318.493 64.929 318.341C64.2259 318.167 63.0986 318.366 62.806 317.49C62.738 316.752 63.0513 315.95 63.3799 315.331C63.3879 315.296 63.3829 315.26 63.3659 315.228C63.3489 315.197 63.3211 315.173 63.2876 315.161C63.2748 315.149 63.2595 315.14 63.2429 315.134C63.2263 315.129 63.2087 315.126 63.1912 315.128C63.1738 315.13 63.1569 315.135 63.1417 315.144C63.1264 315.152 63.1132 315.164 63.1028 315.178C62.7079 315.775 62.4366 316.533 62.0759 317.163C61.6333 317.675 61.0058 318.205 60.2783 318.347C59.6155 318.445 58.9395 318.412 58.2886 318.251C57.0549 317.918 55.8625 317.812 54.787 318.638C54.6909 318.715 54.5606 318.785 54.5549 318.926C54.5784 318.969 54.6688 319.032 54.7099 319.008C55.2235 318.687 55.8063 318.49 56.4111 318.435C57.016 318.379 57.6259 318.466 58.1915 318.689C59.3507 319.036 60.5665 319.185 61.59 318.411C61.8596 318.233 62.0604 318.049 62.2944 317.868C62.4258 317.908 62.4835 318.106 62.553 318.205C62.4782 318.576 62.1128 318.718 61.8999 318.942C61.6367 319.22 61.3629 319.535 61.005 319.643C60.5791 319.621 60.2037 319.796 59.7789 319.884C59.3438 319.946 58.8998 319.863 58.516 319.648C58.017 319.393 57.3635 319.044 56.7641 319.124C56.4497 319.208 56.1289 319.436 55.8698 319.501C55.4543 319.558 55.0696 319.764 54.6494 319.602C54.3699 319.448 54.0991 319.152 53.7555 319.334C53.3367 319.532 53.1224 320.004 52.6665 320.083C52.0927 320.199 51.6747 319.786 51.1892 319.607C51.4018 319.132 51.5969 318.724 52.035 318.461C52.2315 318.502 52.4354 318.488 52.6246 318.423C52.8587 318.303 53.0738 318.15 53.2632 317.969C53.7725 317.834 54.2952 317.775 54.6887 317.427C55.0152 317.058 55.1235 316.697 55.5729 316.396L55.7578 316.379L56.6374 316.573C57.0384 316.525 57.4313 316.426 57.8066 316.278C57.8741 316.235 57.9301 316.176 57.9699 316.107C58.0097 316.038 58.0321 315.96 58.0351 315.88C57.9794 315.458 57.9622 315.033 57.9837 314.608C58.0208 314.119 58.2159 313.711 58.307 313.164C58.2835 313.12 58.2793 313.013 58.2147 312.994C57.5805 312.946 57.0007 312.951 56.3703 312.656C55.5398 312.299 54.7798 311.462 54.749 310.487C54.6638 309.684 55.0426 308.637 55.7987 308.182C56.533 307.748 57.2973 307.367 58.0861 307.041C58.2064 307.004 58.2455 306.873 58.3089 306.784C58.3723 306.694 58.2463 306.506 58.1582 306.417C57.7913 306.198 57.322 306.2 56.9744 305.917C56.6737 305.693 56.4391 305.392 56.2952 305.046C56.1513 304.7 56.1034 304.322 56.1565 303.952C56.2019 303.651 56.3609 303.378 56.6013 303.189C56.8699 303.736 57.1273 304.207 57.5822 304.488M51.3843 318.225L51.3551 318.322C51.0737 318.696 50.8129 319.085 50.5739 319.487C50.3187 319.373 50.0855 319.216 49.885 319.022C49.8373 318.938 49.9242 318.891 49.9441 318.825C50.3212 318.652 50.3198 318.292 50.485 317.984C50.5493 317.89 50.6336 317.812 50.7318 317.755C50.83 317.697 50.9398 317.662 51.0533 317.652C51.2318 317.778 51.2942 318.048 51.3864 318.218M53.1719 317.317C52.9088 317.628 52.5644 317.86 52.1767 317.988C52.0221 317.984 51.8736 317.927 51.7564 317.826C51.7111 317.742 51.5972 317.636 51.6364 317.505C51.6755 317.374 51.6919 317.198 51.8457 317.171C52.1668 317.097 52.478 316.986 52.7731 316.84C52.85 316.827 52.9914 316.833 53.0121 316.912C53.1378 317.092 53.192 317.181 53.1791 317.319M69.3582 322.023C69.3501 322.163 69.5082 322.392 69.328 322.48C69.0164 322.614 68.6651 322.624 68.3452 322.509C68.1414 322.233 68.2742 321.877 68.121 321.58C68.1132 321.362 67.8144 321.273 67.9404 321.096L68.0601 321.061C68.4102 321.178 68.7706 321.262 69.1364 321.311C69.522 321.354 69.2935 321.752 69.3582 322.023Z" fill="#ADB5BD"/>
<path d="M91.2282 322.874C91.3484 323.187 91.4317 323.513 91.4765 323.844C91.4901 323.921 91.4374 323.975 91.3864 324.032C91.3354 324.09 91.2468 324.133 91.1681 324.04C90.949 323.901 91.0955 323.552 90.7899 323.494C90.5915 323.434 90.4102 323.561 90.2137 323.609C89.8383 323.784 89.396 323.939 89.2304 324.283C89.1243 324.394 89.0887 324.634 88.9373 324.662C88.9181 324.662 88.8991 324.659 88.8815 324.651C88.8638 324.643 88.848 324.632 88.8352 324.618C88.8224 324.604 88.8128 324.587 88.8071 324.569C88.8014 324.551 88.7997 324.531 88.8023 324.512C88.8541 324.259 88.9615 324.02 89.1168 323.812C89.2721 323.605 89.4714 323.434 89.7007 323.313C90.1289 323.091 90.5339 322.828 90.9101 322.527C90.9965 322.542 91.0755 322.585 91.1345 322.65C91.1935 322.714 91.2291 322.797 91.2356 322.884M90.096 327.167C90.1238 327.317 90.2054 327.523 90.0583 327.658C89.8953 327.715 89.6826 327.582 89.5177 327.532C89.445 327.437 89.3988 327.325 89.3839 327.207C89.369 327.089 89.3859 326.969 89.4328 326.859C89.4382 326.828 89.4514 326.798 89.4713 326.773C89.4911 326.747 89.517 326.727 89.5465 326.715C89.7737 326.802 89.9664 326.961 90.096 327.167ZM97.8505 318.842C97.9117 319.003 97.7714 319.106 97.6777 319.184C97.0859 319.473 96.4295 319.743 95.9392 320.171C95.758 320.299 95.601 320.458 95.4755 320.641C95.4655 320.674 95.4321 320.664 95.3986 320.654C95.3797 320.361 95.6001 320.103 95.7354 319.895C96.2067 319.337 96.8178 318.913 97.5071 318.666C97.5933 318.622 97.8351 318.658 97.8505 318.842ZM100.293 317.314C100.585 317.661 100.58 318.154 100.948 318.37C101.609 318.721 102.233 319.136 102.811 319.61C103.192 320.002 103.535 320.429 103.835 320.886C104.173 321.202 104.637 321.341 105.025 321.6C105.573 321.945 105.94 322.519 106.394 323.046C106.923 323.813 107.968 324.053 108.662 324.621C109.825 325.436 110.551 326.742 111.578 327.645C112.074 328.151 112.993 328.571 113.699 328.387C113.947 328.331 114.171 328.202 114.343 328.017C114.514 327.831 114.625 327.598 114.659 327.348C114.814 325.961 113.565 324.87 113.228 323.585C113.157 323.27 113.192 322.941 113.329 322.649C113.779 322.102 114.55 321.939 115.214 321.887C115.749 321.788 116.288 322.03 116.798 321.895C116.97 321.845 117.137 321.775 117.293 321.686C117.393 321.716 117.364 321.813 117.377 321.89C117.282 322.685 116.904 323.468 116.114 323.698C115.803 323.786 115.477 323.81 115.156 323.768C114.86 323.789 114.425 323.443 114.33 323.915C114.361 324.153 114.454 324.38 114.6 324.571C115.28 325.552 115.842 326.806 115.567 327.969C115.332 328.865 114.467 329.469 113.598 329.602C112.928 329.672 112.251 329.532 111.663 329.202C111.509 329.119 111.295 328.876 111.092 329.067C110.98 329.318 111.088 329.566 111.028 329.765C110.966 330.248 110.803 330.712 110.548 331.126C110.383 331.435 109.945 331.697 110.142 332.116C110.303 332.665 110.904 332.702 111.381 332.918C111.634 333.03 111.646 333.354 111.654 333.572C111.673 333.865 111.585 334.16 111.639 334.344C111.492 334.837 112.004 335.169 112.137 335.569C112.358 336.029 112.447 336.698 113.018 336.835C113.098 337.264 113.1 337.703 113.025 338.133L112.941 338.18C112.477 338.041 111.843 337.994 111.609 337.566C111.291 337.183 111.366 336.457 110.746 336.484C110.592 336.546 110.425 336.567 110.261 336.543C110.096 336.518 109.942 336.451 109.813 336.347C109.545 336.16 109.426 335.837 109.253 335.606C108.951 335.184 108.559 334.833 108.105 334.579C107.651 334.325 107.146 334.175 106.627 334.139C105.983 334.124 105.681 333.568 105.299 333.166C104.782 332.726 104.804 332.051 104.838 331.45L104.937 330.765C104.953 330.73 104.979 330.7 105.01 330.678C105.042 330.656 105.079 330.643 105.117 330.64L105.218 330.67C105.345 331.568 105.729 332.686 106.51 333.207C107.205 333.773 108.096 333.573 108.905 333.994C109.671 334.333 110.182 335.025 110.63 335.695C110.697 335.715 110.74 335.692 110.793 335.638L110.813 335.571C110.605 335.016 110.259 334.521 109.807 334.135C109.355 333.748 108.812 333.482 108.23 333.362C107.726 333.33 107.242 333.151 106.84 332.846C106.437 332.541 106.134 332.124 105.969 331.649C105.774 331.092 105.717 330.498 105.803 329.915C105.913 329.241 105.948 328.557 105.909 327.875C105.852 327.821 105.807 327.738 105.731 327.749L105.634 327.828C105.557 328.45 105.529 329.266 105.11 329.822C104.787 330.3 104.241 330.315 103.736 330.2C103.231 330.085 102.829 329.856 102.3 329.698C101.154 329.318 99.99 329.472 98.8273 329.015C99.016 328.75 99.3034 328.513 99.2913 328.188C99.2802 328.112 99.1798 328.082 99.1129 328.062C98.8347 328.121 98.7863 328.43 98.6057 328.555C98.4045 328.735 98.1692 328.875 97.9135 328.964C97.6578 329.054 97.3867 329.092 97.1157 329.077C96.6836 329.245 96.2708 329.457 95.8841 329.711C95.8215 329.759 95.7711 329.821 95.7372 329.892C95.7032 329.962 95.6868 330.04 95.689 330.119C95.7507 330.783 96.3956 331.012 96.8747 331.334C96.9851 331.395 97.1131 331.417 97.2374 331.396C97.3617 331.375 97.4748 331.312 97.5581 331.218C97.9061 330.926 98.0997 330.375 98.6137 330.459L99.7394 330.796C99.8303 330.861 99.8943 330.956 99.9193 331.065L99.8367 331.219C99.4831 331.434 99.2669 331.799 98.9091 331.907C98.6907 331.914 98.4789 331.778 98.2976 331.905C98.1124 332.28 97.8962 332.645 97.4404 332.724C97.0633 332.896 96.7057 332.646 96.4051 332.45C95.8812 332.034 95.2903 331.72 94.7543 331.344C94.5082 331.201 94.5068 330.84 94.2632 330.697C94.0195 330.554 93.6623 330.66 93.533 330.37C93.4888 330.082 93.479 329.79 93.5041 329.501C93.4671 329.274 93.4634 329.044 93.493 328.816C93.514 328.64 93.5881 328.474 93.7057 328.341L94.9855 327.077C95.0677 326.989 95.1767 326.931 95.2957 326.911C95.4934 327.018 95.6707 327.159 95.8196 327.327L95.7594 327.415L94.5045 328.474C94.1779 328.843 94.2381 329.363 94.3283 329.784C94.3518 329.827 94.3636 329.901 94.4071 329.878C94.436 329.602 94.5161 329.334 94.6435 329.088C94.7995 328.864 94.9921 328.668 95.2132 328.508L96.1708 327.719C96.2382 327.634 96.2837 327.534 96.3033 327.428C96.323 327.321 96.3162 327.212 96.2836 327.108C96.0738 326.721 95.7063 326.505 95.5547 326.063C95.2066 325.182 95.4423 324.273 95.6534 323.334C95.6611 323.287 95.6551 323.238 95.6359 323.194C95.6167 323.15 95.5852 323.113 95.5452 323.086C95.4906 323.034 95.3945 323.111 95.351 323.135C95.0298 323.717 94.8706 324.375 94.8896 325.04C94.878 325.499 94.9217 325.957 95.0198 326.406C95.0333 326.482 94.9372 326.56 94.8627 326.574C94.4117 326.47 93.9741 326.314 93.5586 326.111C92.9926 325.835 92.734 325.255 92.3351 324.778C92.2806 324.725 92.2272 324.782 92.1845 324.803C92.1287 325.467 92.706 326.07 92.7605 326.732C92.7438 327.265 93.1092 327.732 93.0516 328.29C93.0337 328.329 93.0071 328.364 92.9736 328.391C92.9401 328.419 92.9008 328.438 92.8586 328.447C92.6837 328.431 92.5487 328.282 92.3539 328.333C92.2321 328.617 92.3415 328.974 92.1386 329.164C91.9357 329.355 91.5745 329.604 91.3116 329.526C90.8054 329.127 90.2791 328.754 89.7346 328.408C89.3291 328.274 88.9131 328.173 88.491 328.108C88.1142 327.923 87.9906 327.492 87.7441 327.237C87.7067 327.205 87.6613 327.184 87.6128 327.176C87.5643 327.167 87.5145 327.173 87.4688 327.191C86.6529 327.628 85.7092 328.135 84.7584 327.814C84.6938 327.795 84.6803 327.718 84.7002 327.652L84.7195 327.587C85.2679 327.322 85.8716 327.106 86.2373 326.607C86.5092 326.186 86.9943 326.01 87.2553 325.616C87.3087 325.56 87.2511 325.509 87.1965 325.456L87.0769 325.49C86.487 325.833 85.9317 326.232 85.4183 326.68C85.1845 326.821 84.9173 326.899 84.6436 326.905C84.3698 326.911 84.099 326.846 83.8581 326.715C83.8012 326.662 83.8311 326.562 83.8845 326.506C86.2328 325.883 87.1147 323.782 88.2698 321.977C89.061 320.779 89.7276 319.51 91.1018 318.774C93.1673 317.53 95.382 317.118 97.5465 316.152C97.8806 315.993 98.2128 315.849 98.5116 315.939C99.2717 316.149 99.924 316.639 100.336 317.309M114.442 336.961C114.538 337.249 114.365 337.583 114.362 337.834C114.334 338.04 114.551 338.284 114.36 338.442L113.593 338.471C113.462 338.432 113.579 338.285 113.533 338.194C113.58 337.804 113.589 337.41 113.56 337.018C113.597 336.77 113.876 336.683 114.083 336.602C114.224 336.608 114.297 336.845 114.439 336.968M113.212 335.059C113.403 335.375 113.688 335.632 113.809 335.953C113.792 336.02 113.761 336.083 113.72 336.139C113.678 336.194 113.626 336.241 113.566 336.276C113.498 336.313 113.424 336.336 113.348 336.344C113.271 336.352 113.193 336.344 113.12 336.322C113.041 336.292 112.971 336.244 112.914 336.182C112.858 336.12 112.816 336.046 112.794 335.965C112.68 335.687 112.597 335.397 112.548 335.101C112.764 334.987 113.072 334.794 113.217 335.042M97.7842 330.133C97.6531 330.43 97.4735 330.703 97.2526 330.942C97.0931 331.109 96.8167 330.954 96.6283 330.861C96.4399 330.769 96.1269 330.605 96.1848 330.299C96.2476 330.042 96.4074 329.82 96.631 329.678C96.9386 329.777 97.2512 329.86 97.5676 329.925C97.7325 329.975 97.8236 330.036 97.7937 330.135" fill="#ADB5BD"/>
<path d="M25.5564 330.232L30.021 331.569L30.2965 330.649L26.8573 329.619L27.7936 326.493L31.1014 327.484L31.387 326.53L28.0791 325.54L28.7684 323.238L32.2077 324.268L32.484 323.346L28.0193 322.009L25.5564 330.232Z" fill="#ADB5BD"/>
<path d="M34.3876 332.877L35.4129 333.184L37.255 327.034L41.5539 335.42L44.1259 326.833L43.1005 326.526L41.2777 332.612L36.9787 324.226L34.3876 332.877Z" fill="#ADB5BD"/>
<path d="M46.0964 336.384L50.561 337.721L50.8366 336.801L47.4284 335.781L48.3647 332.654L51.6725 333.645L51.9581 332.692L48.6502 331.701L49.3395 329.4L52.7477 330.421L53.024 329.498L48.5594 328.161L46.0964 336.384Z" fill="#ADB5BD"/>
<path d="M58.3826 336.155C58.9632 336.259 59.5612 336.14 60.0568 335.824C60.5524 335.507 60.9091 335.016 61.0556 334.448C61.1799 334.054 61.1992 333.635 61.1114 333.231C61.0237 332.827 60.8319 332.453 60.5551 332.145C60.0447 331.562 59.2177 331.314 58.4911 331.097L57.234 330.72L54.7596 338.981L55.7849 339.289L56.8295 335.801L57.2597 335.93L58.6625 340.15L59.9197 340.527L58.3826 336.155ZM57.983 331.95L58.2818 332.039C59.3071 332.346 60.4717 332.91 60.0879 334.191C59.6934 335.509 58.4752 335.359 57.4498 335.052L57.12 334.953L57.983 331.95Z" fill="#ADB5BD"/>
<path d="M68.6017 338.609L68.3255 339.532L70.4765 340.176C70.0393 341.514 68.3253 342.185 67.0347 341.798C65.2493 341.263 64.32 339.192 64.8326 337.48C64.9583 337.041 65.17 336.632 65.4557 336.275C65.7414 335.918 66.0954 335.622 66.4971 335.402C66.8989 335.183 67.3406 335.045 67.7968 334.996C68.2529 334.948 68.7144 334.99 69.1547 335.12C69.6603 335.286 70.1218 335.564 70.5044 335.933C70.887 336.302 71.1807 336.752 71.3633 337.25L72.2875 336.773C71.9396 335.908 71.3293 335.171 70.5418 334.667C69.7543 334.163 68.829 333.915 67.895 333.959C66.961 334.003 66.065 334.337 65.3322 334.913C64.5994 335.489 64.0662 336.279 63.8073 337.173C63.1273 339.444 64.3779 342.007 66.7249 342.71C69.072 343.413 71.1833 342.147 71.8633 339.876L71.9622 339.546L68.5962 338.61L68.6017 338.609Z" fill="#ADB5BD"/>
<path d="M77.3995 341.853L76.3257 345.438L77.3486 345.745L78.4224 342.16L82.5243 338.334L81.3341 337.977L78.2623 340.894L77.2662 336.759L76.076 336.402L77.3995 341.853Z" fill="#ADB5BD"/>
<path d="M87.171 348.689L88.8584 349.195C91.4707 349.977 93.9593 349.251 94.8066 346.422C95.634 343.659 93.9209 341.675 91.3755 340.912L89.6546 340.397L87.171 348.689ZM90.3838 341.693L90.747 341.802C92.8646 342.436 94.457 343.737 93.7279 346.171C92.9987 348.606 90.9634 348.784 88.8459 348.149L88.4826 348.041L90.3838 341.693Z" fill="#ADB5BD"/>
<path d="M101.112 348.953C101.692 349.057 102.29 348.938 102.786 348.622C103.282 348.305 103.638 347.814 103.785 347.246C103.909 346.852 103.929 346.434 103.841 346.03C103.754 345.626 103.563 345.252 103.287 344.944C102.776 344.361 101.949 344.113 101.223 343.895L99.9751 343.522L97.5008 351.783L98.5261 352.09L99.5707 348.603L100.001 348.731L101.404 352.952L102.658 353.328L101.112 348.953ZM100.715 344.748L101.011 344.837C102.036 345.144 103.201 345.708 102.817 346.989C102.423 348.307 101.207 348.157 100.181 347.85L99.8492 347.751L100.715 344.748Z" fill="#ADB5BD"/>
<path d="M109.379 346.377L108.354 346.07L105.881 354.327L106.906 354.634L109.379 346.377Z" fill="#ADB5BD"/>
<path d="M111.051 355.839L112.076 356.146L113.918 349.996L118.186 358.372L120.758 349.785L119.733 349.478L117.91 355.564L113.642 347.188L111.051 355.839Z" fill="#ADB5BD"/>
<path d="M124.919 354.902L125.982 351.35L124.957 351.043L122.494 359.266L123.519 359.573L124.544 356.152L125.103 355.853L127.059 360.634L128.448 361.049L126.002 355.371L130.844 352.806L129.489 352.4L124.919 354.902Z" fill="#ADB5BD"/>
<path d="M160.012 294.29C160.285 294.363 160.54 294.493 160.76 294.67C160.98 294.847 161.161 295.068 161.29 295.318C161.426 295.564 161.51 295.835 161.538 296.115C161.566 296.394 161.537 296.676 161.452 296.944C161.379 297.215 161.25 297.468 161.072 297.687C160.895 297.906 160.674 298.085 160.423 298.213C160.179 298.355 159.906 298.443 159.624 298.47C159.343 298.497 159.058 298.463 158.79 298.369C158.514 298.291 158.255 298.16 158.03 297.981C157.805 297.803 157.617 297.582 157.479 297.331C157.342 297.085 157.258 296.814 157.23 296.534C157.202 296.255 157.232 295.973 157.317 295.705C157.39 295.434 157.52 295.181 157.697 294.962C157.874 294.744 158.095 294.565 158.346 294.436C158.863 294.183 159.457 294.131 160.012 294.29ZM161.815 297.053C162.006 296.415 161.94 295.727 161.632 295.135C161.474 294.843 161.259 294.586 160.999 294.379C160.739 294.171 160.441 294.018 160.12 293.929C159.479 293.731 158.785 293.794 158.192 294.105C157.896 294.255 157.634 294.467 157.427 294.726C157.219 294.985 157.069 295.285 156.987 295.607C156.791 296.244 156.856 296.934 157.168 297.526C157.32 297.822 157.534 298.083 157.795 298.29C158.056 298.498 158.358 298.648 158.682 298.731C158.999 298.829 159.332 298.864 159.663 298.834C159.993 298.804 160.314 298.71 160.607 298.556C161.192 298.232 161.626 297.692 161.815 297.053ZM160.177 296.026C160.154 296.121 160.099 296.207 160.022 296.268C159.945 296.329 159.849 296.363 159.75 296.364C159.587 296.363 159.424 296.338 159.267 296.29L158.84 296.161L159.124 295.21L159.521 295.329C159.728 295.379 159.921 295.474 160.086 295.607C160.232 295.721 160.236 295.831 160.176 296.028M158.833 294.74L158.05 297.355L158.511 297.493L158.816 296.473L159.18 296.582C159.367 296.621 159.54 296.709 159.681 296.838C159.754 296.933 159.801 297.045 159.816 297.163C159.832 297.28 159.815 297.4 159.769 297.51L159.67 297.84L160.131 297.978L160.108 297.935C160.118 297.902 160.097 297.859 160.116 297.795L160.234 297.4C160.261 297.245 160.259 297.087 160.229 296.932C160.158 296.755 160.021 296.611 159.846 296.53C159.991 296.552 160.139 296.548 160.282 296.518C160.385 296.486 160.478 296.427 160.552 296.349C160.626 296.27 160.678 296.174 160.703 296.069C160.762 295.932 160.77 295.778 160.728 295.635C160.685 295.491 160.594 295.367 160.47 295.282C160.261 295.138 160.028 295.032 159.782 294.97L158.858 294.693L158.833 294.74Z" fill="#ADB5BD"/>
</g>
</g>
<defs>
<clipPath id="clip0_0_105">
<rect width="243" height="437" fill="white"/>
</clipPath>
<clipPath id="clip1_0_105">
<rect width="127.741" height="73.766" fill="white" transform="translate(40.1641 258) rotate(16.6737)"/>
</clipPath>
</defs>
</svg>
