<svg width="674" height="447" viewBox="0 0 674 447" fill="none" xmlns="http://www.w3.org/2000/svg">
<path d="M259.215 230.992L248.742 119.548L255.516 115.756L265.376 230.287L259.215 230.992Z" fill="#74527F"/>
<path d="M255.516 115.756L395.756 124.166L402.875 231.112L265.377 230.287L255.516 115.756Z" fill="#080024"/>
<path d="M253.254 117.019L263.447 230.286L259.215 230.991L245.044 121.623L253.254 117.019Z" fill="#292F7A"/>
<path d="M259.215 230.991L400.785 232.282L402.875 231.111L263.447 229.089L259.215 230.991Z" fill="#33163B"/>
<path d="M319.443 230.965L318.125 255.529L332.59 255.276L342.131 231.337L319.443 230.965Z" fill="#33163B"/>
<path d="M319.439 230.965L316.525 230.925V255.529H318.122L319.439 230.965Z" fill="#79526D"/>
<path d="M341.395 255.143V250.18L316.525 251.431V255.529L341.395 255.143Z" fill="#79526D"/>
<path d="M341.397 250.18H371.909V255.529L341.397 255.143V250.18Z" fill="#33163B"/>
<g style="mix-blend-mode:soft-light">
<path d="M287.012 117.831L359.933 230.047L402.874 231.111L395.755 124.165L287.012 117.831Z" fill="#D0CDCC"/>
</g>
<path d="M256.568 117.831L266.708 219.801L400.707 224.032L392.736 126.427L256.568 117.831Z" fill="#75E4FF"/>
<path d="M256.568 117.831L256.688 119.055L391.512 128.144L399.056 223.979L400.707 224.032L392.736 126.427L256.568 117.831Z" fill="#4E1F3F"/>
<path fill-rule="evenodd" clip-rule="evenodd" d="M346.175 122.089L349.847 107.012L371.91 110.831L366.401 124.764L346.175 122.089Z" fill="#FFD600"/>
<path fill-rule="evenodd" clip-rule="evenodd" d="M394.025 142.183L395.209 156.647H411.297L413.067 137.831L394.025 142.183Z" fill="#FF57FF"/>
<path fill-rule="evenodd" clip-rule="evenodd" d="M396.672 160.892L415.528 159.202L418.123 167.333L396.672 166.627V160.892Z" fill="#70E500"/>
<path fill-rule="evenodd" clip-rule="evenodd" d="M388.542 134.544L260.624 127.159L272.055 214.105L396.286 219.667L388.542 134.544ZM261.782 128.569L387.664 136.46L393.971 215.17L274.556 210.459L261.782 128.569Z" fill="white"/>
<path fill-rule="evenodd" clip-rule="evenodd" d="M266.242 135.875L303.341 138.124L304.485 142.741L267.426 140.639L266.242 135.875Z" fill="white"/>
<path fill-rule="evenodd" clip-rule="evenodd" d="M268.17 143.074L387.717 148.889V154.691L268.795 146.946L268.17 143.074Z" fill="#FFD5FF"/>
<path fill-rule="evenodd" clip-rule="evenodd" d="M278.005 203.553L278.604 206.081L296.036 206.76V203.553H278.005Z" fill="white"/>
<path fill-rule="evenodd" clip-rule="evenodd" d="M322.276 155.569L302.702 154.691L307.519 186.866L326.361 187.904L322.276 155.569Z" fill="white"/>
<path fill-rule="evenodd" clip-rule="evenodd" d="M344.779 156.66L325.204 155.795L330.021 187.971L348.864 188.995L344.779 156.66Z" fill="#FFD5FF"/>
<path fill-rule="evenodd" clip-rule="evenodd" d="M366.787 158.23L347.213 157.352L352.03 189.528L370.872 190.566L366.787 158.23Z" fill="#B7F1FF"/>
<path d="M281.984 267.359L292.749 439.375H503.86L510.58 267.359H281.984Z" fill="#0E062C"/>
<g style="mix-blend-mode:multiply" opacity="0.4">
<path d="M281.984 267.359H510.58L508.571 318.843L293.255 290.619L281.984 267.359Z" fill="#AE4A89"/>
</g>
<path d="M510.58 267.359H519.15L510.58 439.375H503.86L510.58 267.359Z" fill="url(#paint0_linear_0_2083)"/>
<path d="M185.562 257.911L441.996 253.347V267.359H185.562V257.911Z" fill="#223F8D"/>
<path d="M199.281 267.359L210.046 439.375H421.157L427.877 267.359H199.281Z" fill="#292F7A"/>
<g style="mix-blend-mode:multiply" opacity="0.4">
<path d="M199.281 267.359H427.877L427.385 280.04L199.281 273.693V267.359Z" fill="#1D002A"/>
</g>
<path d="M441.996 253.347L530.752 253.919V267.359H441.996V253.347Z" fill="url(#paint1_linear_0_2083)"/>
<path d="M427.877 267.359H436.46L427.877 439.375H421.157L427.877 267.359Z" fill="url(#paint2_linear_0_2083)"/>
<path d="M185.562 257.911L530.752 253.919L441.996 253.347L185.562 257.911Z" fill="#3890BF"/>
<g style="mix-blend-mode:multiply" opacity="0.3">
<path d="M265.416 439.349L264.751 438.603C265.669 437.792 356.647 357.432 424.538 351.112L424.631 352.096C357.059 358.351 266.321 438.537 265.416 439.349Z" fill="#5479C2"/>
<path d="M230.329 439.668L229.504 439.096C248.535 413.073 269.651 388.641 292.644 366.042C326.869 332.615 377.94 292.642 426.896 292.07V293.068C378.286 293.64 327.441 333.44 293.349 366.734C270.399 389.296 249.323 413.688 230.329 439.668Z" fill="#5479C2"/>
<path d="M313.999 439.242L313.161 438.696C313.72 437.858 369.288 355.476 424.312 358.856L424.245 359.854C369.834 356.607 314.545 438.417 313.999 439.242Z" fill="#5479C2"/>
<path d="M204.473 348.943L204.246 347.971C204.845 347.825 265.457 333.6 308.039 312.775C319.669 307.08 325.151 302.303 324.313 298.603C323.169 293.574 309.676 287.466 251.778 286.92L200.494 286.441V285.443L251.778 285.922C298.764 286.361 323.488 290.553 325.271 298.377C326.242 302.662 320.747 307.692 308.465 313.68C265.83 334.545 205.071 348.796 204.473 348.943Z" fill="#5479C2"/>
<path d="M203.861 338.417L203.541 337.472C204.074 337.286 257.074 319.202 260.028 308.81C260.165 308.406 260.193 307.972 260.109 307.554C260.025 307.136 259.832 306.747 259.549 306.428C251.565 296.807 202.45 308.57 201.958 308.69L201.718 307.718C203.767 307.226 252.018 295.742 260.268 305.789C260.651 306.237 260.914 306.774 261.032 307.352C261.151 307.929 261.121 308.526 260.946 309.089C257.886 319.974 206.056 337.672 203.861 338.417Z" fill="#5479C2"/>
<path d="M221.89 439.655L221.052 439.122C233.839 418.577 261.384 389.222 285.696 363.274C306.295 341.305 325.762 320.573 324.964 316.275C324.947 316.177 324.907 316.085 324.847 316.006C324.787 315.927 324.708 315.864 324.618 315.822C317.738 312.496 243.859 348.211 205.749 367.546L205.297 366.654C209.807 364.365 316.035 310.593 325.057 314.931C325.29 315.036 325.493 315.199 325.647 315.403C325.8 315.608 325.9 315.848 325.935 316.102C326.787 320.653 311.471 337.246 286.414 364.006C262.143 389.874 234.638 419.149 221.89 439.655Z" fill="#5479C2"/>
</g>
<g style="mix-blend-mode:multiply">
<path d="M418.83 290.726L396.981 445.297H386.229L387.453 291.418L418.83 290.726Z" fill="#3E2F50"/>
</g>
<path d="M232.975 292.988L343.434 290.553V445.47H241.039L232.975 292.988Z" fill="#223F8D"/>
<path d="M343.434 290.553H391.751L389.316 445.057L343.434 445.47V290.553Z" fill="url(#paint3_linear_0_2083)"/>
<path d="M347.463 445.469L350.457 425.216H382.234L383.99 445.017L347.463 445.469Z" fill="#0E062C"/>
<path d="M347.463 418.643L349.446 292.908L354.995 292.349L351.229 418.643H347.463Z" fill="#223F8D"/>
<path d="M351.23 418.643H391.749L396.859 292.908L354.996 292.349L351.23 418.643Z" fill="url(#paint4_linear_0_2083)"/>
<g style="mix-blend-mode:multiply" opacity="0.4">
<path d="M351.991 393.241L392.842 391.857V393.241L351.964 394.066H347.852L347.866 392.961L351.991 393.241Z" fill="#1D002A"/>
</g>
<g style="mix-blend-mode:multiply" opacity="0.4">
<path d="M348.704 340.546H353.561L394.865 342.143L394.825 343.061L353.521 341.81L348.704 342.395V340.546Z" fill="#1D002A"/>
</g>
<g style="mix-blend-mode:multiply" opacity="0.4">
<path d="M382.436 362.062L383.474 373.227L370.899 372.468L367.865 357.684H371.857L373.068 370.778L382.595 371.723L379.442 362.062H382.436Z" fill="#AE4A89"/>
</g>
<path d="M388.901 358.164L388.395 362.062H378.602V357.684L388.901 358.164Z" fill="#00001D"/>
<path d="M378.603 357.684H367.865L368.557 362.062H378.603V357.684Z" fill="#110A36"/>
<g style="mix-blend-mode:multiply" opacity="0.4">
<path d="M383.312 321.504L384.363 332.668L371.775 331.91L368.741 317.126H372.733L373.944 330.22L383.485 331.165L380.318 321.504H383.312Z" fill="#AE4A89"/>
</g>
<path d="M389.78 317.605L389.274 321.504H379.494V317.126L389.78 317.605Z" fill="#00001D"/>
<path d="M379.493 317.126H368.741L369.446 321.504H379.493V317.126Z" fill="#110A36"/>
<g style="mix-blend-mode:multiply" opacity="0.4">
<path d="M383.312 402.143L384.363 411.91L371.775 411.165L368.741 397.765H372.733L373.944 409.475L383.485 410.419L380.318 402.143H383.312Z" fill="#AE4A89"/>
</g>
<path d="M389.78 398.244L389.274 402.143H379.494V397.765L389.78 398.244Z" fill="#00001D"/>
<path d="M379.493 397.765H368.741L369.446 402.143H379.493V397.765Z" fill="#110A36"/>
<g style="mix-blend-mode:multiply" opacity="0.4">
<path d="M382.237 425.216V430.672L347.852 440.918L350.461 425.216H382.237Z" fill="#AE4A89"/>
</g>
<path d="M630.393 291.737C630.393 291.737 583.407 263.287 548.756 277.219L549.435 285.523C549.435 285.523 590.686 278.124 630.1 295.636L630.393 291.737Z" fill="#080024"/>
<path d="M548.755 277.22L547.93 264.552C547.93 264.552 610.006 245.177 631.629 275.197L630.392 291.737C630.392 291.737 590.738 269.901 548.755 277.22Z" fill="url(#paint5_linear_0_2083)"/>
<path d="M631.645 275.196L640.76 275.316L636.382 293.613L630.394 291.723L631.645 275.196Z" fill="url(#paint6_linear_0_2083)"/>
<path d="M547.93 264.551C547.93 264.551 606.932 241.012 640.758 275.316L631.629 275.197C631.629 275.197 608.196 248.916 547.93 264.551Z" fill="url(#paint7_linear_0_2083)"/>
<path d="M630.393 291.724L637.313 291.524L635.623 296.74L630.1 295.622L630.393 291.724Z" fill="#33163B"/>
<path d="M549.434 285.523C549.434 285.523 591.031 276.58 630.1 295.636C630.1 295.636 596.58 283.42 549.434 285.523Z" fill="#33163B"/>
<path d="M549.434 285.523L555.728 358.963L562.927 358.803C562.927 358.803 565.216 359.402 563.22 354.811L559.228 354.518L558.496 285.456C558.496 285.456 551.457 284.046 549.434 285.523Z" fill="#6C516F"/>
<path d="M558.511 417.406L519.828 437.007V441.678H524.685L526.228 438.87L564.698 422.103L558.511 417.406Z" fill="#080009"/>
<path fill-rule="evenodd" clip-rule="evenodd" d="M363.977 228.011C363.977 228.011 368.528 232.216 369.526 233.174C370.524 234.132 371.455 240.519 371.455 240.519L363.977 228.011Z" fill="#7E7EB6"/>
<path fill-rule="evenodd" clip-rule="evenodd" d="M327.786 255.476C327.786 255.476 335.876 242.169 346.295 238.284C356.714 234.398 369.489 254.465 369.489 254.465L327.786 255.476Z" fill="#33163B"/>
<path fill-rule="evenodd" clip-rule="evenodd" d="M489.967 254.651C489.967 254.651 489.967 255.529 489.967 256.886C489.967 259.029 489.874 262.355 489.741 265.243C489.737 267.178 489.491 269.104 489.009 270.978L488.89 271.178C488.743 271.47 488.477 271.896 488.158 272.402L488.078 272.508C485.669 276.274 479.721 284.604 478.497 284.87C477.033 285.19 459.522 270.113 459.522 270.113V254.903C459.522 254.903 452.575 254.012 452.575 253.054C452.575 252.096 458.045 220.878 458.045 220.878L461.211 220.532L474.119 219.095L474.265 229.048L474.611 252.881L489.967 254.651Z" fill="url(#paint8_linear_0_2083)"/>
<g style="mix-blend-mode:multiply" opacity="0.68">
<path fill-rule="evenodd" clip-rule="evenodd" d="M489.955 256.886C489.955 259.029 489.862 262.355 489.729 265.243L488.997 270.978L488.877 271.178L488.145 272.402L488.065 272.508C485.657 276.274 479.709 284.604 478.485 284.87C477.034 285.19 459.522 270.113 459.522 270.113V255.622C459.522 255.622 480.321 257.445 487.054 256.767L489.955 256.886Z" fill="#BD4A95"/>
</g>
<g style="mix-blend-mode:multiply" opacity="0.68">
<path fill-rule="evenodd" clip-rule="evenodd" d="M474.613 252.815C469.29 251.205 452.63 253.001 452.63 253.001C452.63 252.043 458.046 220.812 458.046 220.812L461.213 220.466L474.267 228.983L474.613 252.815Z" fill="#BD4A95"/>
</g>
<g style="mix-blend-mode:multiply">
<path fill-rule="evenodd" clip-rule="evenodd" d="M480.787 253.573L489.569 267.918L489.968 254.638L480.787 253.573Z" fill="#BD4A95"/>
</g>
<path fill-rule="evenodd" clip-rule="evenodd" d="M517.447 393.866L516.475 402.955C516.475 402.955 521.798 408.051 528.238 404.419L529.808 400.653C529.808 400.653 520.6 397.712 517.447 393.866Z" fill="#1F3775"/>
<path fill-rule="evenodd" clip-rule="evenodd" d="M432.787 135.051C430.567 138.551 427.825 141.692 424.657 144.365C419.401 148.81 419.813 152.695 422.634 155.011C425.455 157.326 431.19 158.111 431.19 158.111L432.787 135.051Z" fill="url(#paint9_linear_0_2083)"/>
<path fill-rule="evenodd" clip-rule="evenodd" d="M440.014 114.013C436.887 117.352 435.33 127.599 432.256 136.634C429.182 145.669 428.384 151.99 432.256 160.879C436.128 169.768 439.562 179.322 450.207 180.613C460.852 181.903 474.452 163.314 486.135 159.442C484.642 154.102 484.642 148.454 486.135 143.114C488.57 133.573 478.537 116.275 464.312 112.083C450.087 107.891 441.597 112.323 440.014 114.013Z" fill="url(#paint10_linear_0_2083)"/>
<path style="mix-blend-mode:multiply" opacity="0.5" fill-rule="evenodd" clip-rule="evenodd" d="M430.139 144.338C430.139 144.338 432.175 144.883 438.642 143.673C445.109 142.462 447.491 143.473 447.491 143.473C447.491 143.473 447.691 133.905 446.879 130.832C446.067 127.758 436.42 121.517 436.42 121.517C436.42 121.517 434.357 130.565 433.146 134.198C431.935 137.831 430.139 144.338 430.139 144.338Z" fill="url(#paint11_linear_0_2083)"/>
<path style="mix-blend-mode:multiply" opacity="0.3" d="M439.56 174.691C439.56 174.691 449.261 170.832 451.536 165.908C453.812 160.985 452.175 151.843 450.964 147.478C449.753 143.114 457.618 133.014 457.618 133.014L468.396 135.05L481.011 158.11C481.011 158.11 479.8 165.416 467.504 168.57C455.209 171.723 441.037 176.381 441.037 176.381L439.56 174.691Z" fill="url(#paint12_linear_0_2083)"/>
<path fill-rule="evenodd" clip-rule="evenodd" d="M449.434 146.028C449.434 146.028 453.08 138.51 458.043 137.658C463.007 136.806 466.28 143.114 465.921 149.634C465.562 156.154 458.283 157.392 453.679 155.569C449.075 153.746 452.095 150.725 450.645 149.514C450.204 149.054 449.868 148.505 449.659 147.903C449.45 147.302 449.373 146.662 449.434 146.028Z" fill="url(#paint13_linear_0_2083)"/>
<path d="M479.736 111.59C487.029 113.413 492.83 122.129 492.963 125.416C493.043 127.598 492.311 130.632 490.768 135.05C490.009 137.246 489.051 139.801 487.867 142.755C484.354 151.59 485.724 158.177 485.724 158.177C485.724 158.177 467.015 158.869 467.015 154.026C467.015 149.182 465.924 136.926 460.828 136.088C455.731 135.25 449.437 146.028 449.437 146.028L447.547 143.487C446.897 138.279 445.338 133.226 442.943 128.557C441.892 127.053 441.014 125.895 440.282 124.897C437.541 121.331 436.862 121.171 436.862 121.171L436.197 123.047C432.511 118.244 429.916 102.382 436.09 104.325C440.44 105.443 444.983 105.593 449.397 104.764C468.027 102.103 476.09 110.26 478.672 110.326C481.253 110.393 478.898 106.215 484.726 108.038C490.555 109.861 492.511 116.022 492.617 116.527C486.656 109.102 479.736 111.59 479.736 111.59Z" fill="url(#paint14_linear_0_2083)"/>
<path style="mix-blend-mode:multiply" opacity="0.5" fill-rule="evenodd" clip-rule="evenodd" d="M490.765 135.05C490.007 137.246 489.049 139.801 487.864 142.755C484.351 151.591 485.722 158.177 485.722 158.177C485.722 158.177 467.013 158.869 467.013 154.026C467.013 149.182 465.922 136.927 460.825 136.088C455.729 135.25 449.435 146.028 449.435 146.028L447.545 143.487C446.894 138.279 445.336 133.226 442.941 128.557C441.89 127.053 441.011 125.895 440.28 124.897L452.668 125.403C459.953 129.181 467.797 131.765 475.902 133.054C475.902 133.054 480.426 130.539 482.701 123.114C482.592 126.689 481.41 130.147 479.308 133.041C481.185 132.428 482.914 131.432 484.386 130.118C485.859 128.803 487.043 127.198 487.864 125.403C489.052 126.683 489.931 128.218 490.434 129.89C490.936 131.562 491.05 133.327 490.765 135.05Z" fill="url(#paint15_linear_0_2083)"/>
<path d="M437.193 106.986C437.193 106.986 434.638 116.753 437.193 124.924C440.346 135.05 454.891 131.471 454.891 131.471C454.891 131.471 437.193 120.559 437.193 106.986Z" fill="url(#paint16_linear_0_2083)"/>
<path fill-rule="evenodd" clip-rule="evenodd" d="M426.122 142.116L428.849 141.996L429.581 127.585L426.614 127.359L426.122 142.116Z" fill="url(#paint17_radial_0_2083)"/>
<path d="M426.028 129.78L457.685 136.793L456.474 137.578C452.473 136.288 448.302 135.601 444.099 135.542L426.028 132.88V129.78Z" fill="#39153D"/>
<path fill-rule="evenodd" clip-rule="evenodd" d="M369.38 252.216C366.092 253.416 362.464 253.273 359.281 251.816C354.344 249.315 342.221 241.544 342.221 241.544C342.221 241.544 336.805 249.142 333.253 248.09C332.245 247.784 331.341 247.208 330.637 246.425C329.934 245.641 329.458 244.68 329.26 243.646C331.922 243.353 338.203 239.029 341.729 236.287C342.62 235.643 343.452 234.921 344.217 234.132C345.208 232.991 346.506 232.159 347.956 231.736C352.015 230.406 351.948 228.796 353.479 228.676C354.704 228.626 355.932 228.666 357.151 228.796L351.829 224.351C349.412 224.045 347.048 223.409 344.803 222.462C341.936 221.446 339.522 219.447 337.99 216.82C337.277 215.505 336.911 214.03 336.925 212.535C336.926 209.855 337.868 207.26 339.587 205.203C342.815 210.6 347.403 215.056 352.893 218.124C357.444 224.112 362.9 225.629 364.111 226.786C365.322 227.944 371.988 240.359 371.988 240.359C369.3 244.218 369.38 252.216 369.38 252.216Z" fill="url(#paint18_linear_0_2083)"/>
<path fill-rule="evenodd" clip-rule="evenodd" d="M506.772 159.667C506.772 159.667 494.171 154.424 489.314 154.105C484.457 153.786 471.536 164.75 471.536 164.75C471.536 164.75 492.867 159.255 506.772 159.667Z" fill="#424D9F"/>
<path d="M533.32 400.732C531.673 401.341 529.918 401.601 528.166 401.496C526.413 401.39 524.702 400.922 523.14 400.12C519.947 398.63 515.755 394.292 512.681 390.726C510.219 387.918 508.463 385.589 508.463 385.589C515.036 373.267 514.717 349.661 513.786 335.795V335.09C513.666 333.453 513.546 331.95 513.44 330.632L513.306 329.155V328.743C513.067 326.214 512.881 324.751 512.881 324.751L543.207 331.79C545.083 360.599 533.32 400.732 533.32 400.732Z" fill="url(#paint19_linear_0_2083)"/>
<path fill-rule="evenodd" clip-rule="evenodd" d="M484.724 233.32C484.724 245.19 481.318 247.572 481.318 247.572L459.082 227.984C459.082 227.984 451.644 232.988 445.469 238.004C439.295 243.021 422.395 253.972 421.424 254.398C420.453 254.824 379.361 254.651 376.181 254.398C373.799 254.066 371.491 253.332 369.355 252.229C366.401 248.583 369.035 240.346 369.035 240.346L371.377 239.521L371.816 234.651C374.451 234.845 377.096 234.473 379.574 233.56C382.608 232.096 393.759 223.247 395.09 222.768C396.695 222.518 398.329 222.518 399.934 222.768C399.934 222.768 440.665 175.982 443.34 174.159C446.015 172.336 461.65 167.119 461.65 167.119C466.215 172.389 470.178 178.151 473.467 184.298C474.065 185.403 474.664 186.56 475.236 187.745C481.224 200.067 484.724 221.424 484.724 233.32Z" fill="url(#paint20_linear_0_2083)"/>
<path d="M555.224 331.896C551.202 332.064 547.173 332.02 543.155 331.763C534.24 331.271 523.195 330.153 513.548 328.783H513.361C504.047 327.452 495.969 325.922 492.337 324.524C486.338 322.283 480.077 320.816 473.707 320.16L474.093 321.384C478.072 334.829 480.623 348.656 481.705 362.635C482.737 376.569 482.492 390.568 480.973 404.458C478.948 404.361 476.936 404.09 474.958 403.646C469.473 402.351 464.102 400.616 458.897 398.457C452.962 396.101 448.504 393.919 448.504 393.919C459.15 373.786 446.934 315.409 446.455 307.425C445.976 299.441 445.244 293.972 448.039 292.389C450.833 290.805 471.299 289.608 482.636 290.938C493.973 292.269 508.943 297.126 508.943 297.126L548.079 326.494L555.224 331.896Z" fill="url(#paint21_linear_0_2083)"/>
<path style="mix-blend-mode:multiply" opacity="0.8" fill-rule="evenodd" clip-rule="evenodd" d="M555.222 331.897C551.199 332.065 547.17 332.02 543.153 331.764C534.237 331.271 523.192 330.154 513.545 328.783H513.359C504.044 327.452 495.967 325.922 492.334 324.525C486.335 322.283 480.075 320.816 473.705 320.16L474.091 321.384C471.945 320.871 469.749 320.599 467.544 320.573C467.544 320.573 474.916 319.455 477.471 319.868C480.025 320.28 504.496 325.603 516.14 326.933C523.175 327.744 530.26 328.033 537.337 327.798L528.422 321.145L548.116 326.468L555.222 331.897Z" fill="url(#paint22_linear_0_2083)"/>
<path fill-rule="evenodd" clip-rule="evenodd" d="M509.688 299.508C509.688 299.508 518.896 315.755 529.328 321.81C535.817 325.538 542.77 328.392 550.007 330.299C550.007 330.299 536.421 322.315 529.874 314.904C523.327 307.492 509.688 299.508 509.688 299.508Z" fill="#424D9F"/>
<path fill-rule="evenodd" clip-rule="evenodd" d="M574.346 317.206C574.013 318.537 573.694 322.875 572.243 324.312C570.793 325.749 570.912 331.431 559.482 332.083C548.051 332.735 533.693 323.487 526.814 314.904C521.725 308.91 515.981 303.505 509.688 298.79C509.688 298.79 505.483 295.383 505.696 293.6C505.909 291.817 509.249 293.281 509.688 292.15C510.127 291.019 501.278 273.879 494.119 266.122C489.355 260.919 483.181 253.667 479.668 249.462L476.821 246.082L476.98 243.979C476.98 243.979 480.972 246.72 482.476 245.922C483.98 245.124 485.137 230.167 482.21 210.885C481.055 204.536 478.965 198.392 476.009 192.655C471.623 183.903 466.4 175.597 460.413 167.851L456.86 168.743C456.86 168.743 455.982 163.42 456.86 163.314C457.739 163.207 465.017 165.975 465.017 165.975C465.017 165.975 490.234 158.803 504.938 158.124C519.642 157.446 534.838 162.462 537.26 164.778C539.681 167.093 563.807 197.499 571.232 221.424C571.836 223.404 572.325 225.416 572.696 227.452C577.499 253.267 570.833 298.909 572.017 303.301C573.348 308.104 577.34 313.028 577.672 314.851C578.005 316.674 574.665 315.902 574.346 317.206Z" fill="url(#paint23_linear_0_2083)"/>
<path fill-rule="evenodd" clip-rule="evenodd" d="M464.685 400.612L466.774 411.258C466.774 411.258 474.292 414.411 479.256 411.99V404.245L464.685 400.612Z" fill="#1F3775"/>
<path fill-rule="evenodd" clip-rule="evenodd" d="M466.574 410.287C466.574 410.287 462.289 412.509 461.917 412.948C461.544 413.387 467.985 420.16 467.985 420.16L466.521 421.132C466.521 421.132 473.068 427.439 474.292 427.439C475.516 427.439 478.284 422.955 481.677 420.892C481.436 419.282 481.436 417.645 481.677 416.035C482.05 412.762 483.261 411.364 483.261 410.313C483.261 409.262 479.269 408.038 479.269 408.038L478.67 410.46C478.67 410.46 471.71 413.64 466.574 410.287Z" fill="#18003B"/>
<path fill-rule="evenodd" clip-rule="evenodd" d="M516.474 402.915C516.474 402.915 512.841 404.738 512.602 405.469C512.362 406.201 515.263 409.102 515.263 410.193C515.263 411.285 511.138 413.946 511.377 415.41C511.61 416.526 511.935 417.621 512.349 418.683C512.349 418.683 512.469 423.647 513.081 423.886C513.693 424.126 517.924 416.381 521.57 415.902C522.483 415.688 523.443 415.831 524.253 416.304C525.063 416.777 525.66 417.543 525.922 418.444C525.922 418.444 530.18 412.748 529.807 411.79C529.435 410.832 527.026 408.889 527.026 408.038C527.026 407.186 529.807 403.553 529.807 403.553C529.807 403.553 522.409 406.521 516.474 402.915Z" fill="#18003B"/>
<path d="M481.676 420.866C482.999 424.544 484.522 428.147 486.24 431.658C488.173 435.671 488.903 440.159 488.343 444.578H448.422C439.041 444.578 423.685 445.55 414.317 441.345C414.317 441.345 418.682 438.923 423.206 436.821C427.73 434.718 461.796 428.757 468.21 422.689C470.019 423.92 471.944 424.972 473.958 425.829C475.488 426.149 481.676 420.866 481.676 420.866Z" fill="#080024"/>
<path style="mix-blend-mode:multiply" opacity="0.5" d="M484.724 233.32C484.724 245.19 481.318 247.572 481.318 247.572L459.082 227.984C459.082 227.984 451.644 232.988 445.47 238.004C439.295 243.021 422.396 253.972 421.424 254.398C421.424 254.398 408.65 253.866 405.097 252.881C401.544 251.896 398.736 234.944 400.466 232.429C402.196 229.914 399.934 227.252 399.934 227.252C399.934 227.252 405.576 219.907 407.612 217.326C409.648 214.744 433.187 185.256 433.187 185.256C433.187 185.256 448.184 178.297 451.537 176.381C454.891 174.465 463.074 171.377 463.074 171.377L473.454 184.298C474.052 185.403 474.651 186.56 475.223 187.745C481.225 200.067 484.724 221.424 484.724 233.32Z" fill="url(#paint24_linear_0_2083)"/>
<path d="M527.307 419.043C526.641 417.864 525.675 416.882 524.506 416.2C523.337 415.517 522.007 415.157 520.653 415.157C515.876 415.157 516.235 419.748 514.306 420.679C512.376 421.611 512.403 418.683 512.403 418.683C512.403 418.683 501.651 429.222 496.808 432.376C491.964 435.53 490.021 443.288 490.021 443.288L529.941 442.476C530.285 438.647 530.115 434.789 529.436 431.006C528.198 425.19 527.307 419.043 527.307 419.043Z" fill="#080024"/>
<path style="mix-blend-mode:multiply" opacity="0.5" d="M423.793 155.117C424.992 154.872 426.227 154.872 427.426 155.117C427.95 155.264 428.428 155.541 428.817 155.923C429.205 156.304 429.491 156.778 429.648 157.299C427.508 157.244 425.447 156.476 423.793 155.117Z" fill="url(#paint25_linear_0_2083)"/>
<path style="mix-blend-mode:multiply" opacity="0.3" d="M423.008 145.975C424.701 145.323 426.44 144.798 428.211 144.405C430.193 144.072 430.712 138.044 430.712 138.044C429.071 139.907 427.334 141.683 425.509 143.367C424.573 144.132 423.733 145.008 423.008 145.975Z" fill="url(#paint26_linear_0_2083)"/>
<path style="mix-blend-mode:multiply" opacity="0.5" d="M451.538 148.37C452.214 147.097 453.195 146.01 454.393 145.207C455.591 144.404 456.969 143.909 458.404 143.766C463.66 142.954 464.631 147.958 463.979 150.14C463.798 150.771 463.47 151.35 463.021 151.829C462.572 152.308 462.016 152.673 461.398 152.894C461.398 152.894 464.139 150.619 463.088 148.277C462.037 145.935 460.267 145.137 458.803 145.496C457.339 145.855 458.244 148.29 456.874 150.712C455.503 153.134 453.56 152.655 453.88 151.271C454.199 149.887 455.011 148.61 453.8 148.277C453.053 148.089 452.267 148.121 451.538 148.37Z" fill="url(#paint27_linear_0_2083)"/>
<path style="mix-blend-mode:multiply" opacity="0.5" d="M452.377 154.93C452.377 154.93 457.793 160.253 461.32 159.441C464.846 158.63 465.671 151.258 465.671 151.258C465.671 151.258 462.105 157.765 452.377 154.93Z" fill="url(#paint28_linear_0_2083)"/>
<path d="M451.537 104.511C451.537 104.511 446.92 102.142 445.43 102.621C443.939 103.1 436.9 112.322 439.561 116.926C442.223 121.53 451.537 122.382 451.537 122.382C451.537 122.382 443.899 109.94 445.43 104.152C447.45 103.603 449.595 103.729 451.537 104.511Z" fill="url(#paint29_linear_0_2083)"/>
<path d="M478.655 110.326C479.136 108.811 479.225 107.198 478.914 105.638C478.602 104.079 477.899 102.624 476.872 101.411L478.655 110.326Z" fill="url(#paint30_linear_0_2083)"/>
<path d="M472.176 164.245C472.176 164.245 492.788 157.233 499.441 156.115C503.848 155.584 508.315 156.332 512.309 158.271C512.309 158.271 482.475 161.824 472.176 164.245Z" fill="url(#paint31_linear_0_2083)"/>
<path d="M509.688 298.776C509.688 298.776 534.744 317.858 550.938 323.181C567.133 328.503 572.229 324.312 572.229 324.312C572.229 324.312 573.134 333.72 553.44 331.604C533.746 329.488 526.454 312.695 521.384 308.902C516.314 305.11 509.688 298.776 509.688 298.776Z" fill="url(#paint32_linear_0_2083)"/>
<path d="M477.033 243.979L476.873 246.082C476.873 246.082 481.078 251.617 484.099 251.99C487.119 252.362 487.785 232.828 486.454 213.267C485.123 193.706 468.144 168.104 465.07 166.028C461.996 163.953 458.417 161.863 456.913 163.367C455.409 164.871 456.913 168.796 456.913 168.796L461.677 167.173C461.677 167.173 480.107 196.022 482.688 212.841C485.27 229.661 483.008 244.352 481.078 245.163C479.149 245.975 477.033 243.979 477.033 243.979Z" fill="url(#paint33_linear_0_2083)"/>
<path d="M531.751 162.116C531.751 162.116 539.322 164.046 542.981 167.119C547.439 170.845 556.781 191.737 556.781 191.737C556.781 191.737 542.383 170.965 531.751 162.116Z" fill="url(#paint34_linear_0_2083)"/>
<path style="mix-blend-mode:multiply" opacity="0.5" d="M445.815 176.967C445.815 176.967 425.855 218.217 423.008 225.51C420.16 232.802 420.586 252.03 420.586 252.03C420.586 252.03 428.916 231.524 432.336 220.386C435.755 209.249 445.815 176.967 445.815 176.967Z" fill="url(#paint35_linear_0_2083)"/>
<path style="mix-blend-mode:multiply" opacity="0.5" d="M426.852 250.992C426.852 250.992 451.975 229.914 454.89 226.201C457.804 222.489 468.622 192.575 468.622 192.575L461.357 223.939C461.357 223.939 472.108 224.099 473.798 224.831C475.488 225.562 484.71 233.307 484.71 233.307C484.71 233.307 483.739 243.819 481.077 245.11C480.394 245.47 479.598 245.554 478.855 245.343C478.112 245.133 477.478 244.644 477.085 243.979L459.148 228.011C459.148 228.011 434.717 246.161 426.852 250.992Z" fill="url(#paint36_linear_0_2083)"/>
<path style="mix-blend-mode:multiply" opacity="0.5" d="M399.972 222.768C399.972 222.768 390.657 233.8 388.768 236.381C386.878 238.963 385.055 246.893 386.027 247.705C386.998 248.517 399.972 253.839 399.972 253.839C399.972 253.839 384.736 250.153 381.662 248.024C378.588 245.895 387.703 232.988 390.511 230.726C393.319 228.464 399.972 222.768 399.972 222.768Z" fill="url(#paint37_linear_0_2083)"/>
<path d="M371.405 239.508C371.405 239.508 370.886 248.636 371.405 250.978C371.924 253.32 376.208 254.398 376.208 254.398C373.813 254.117 371.496 253.376 369.382 252.216C366.082 250.326 369.049 240.333 369.049 240.333L371.405 239.508Z" fill="#424D9F"/>
<path style="mix-blend-mode:multiply" opacity="0.3" d="M373.428 234.678C373.492 235.485 373.789 236.257 374.282 236.899C374.776 237.541 375.445 238.027 376.209 238.297C378.75 238.976 387.706 228.011 387.706 228.011C387.706 228.011 380.214 233.334 378.112 233.959C376.584 234.38 375.012 234.621 373.428 234.678Z" fill="url(#paint38_linear_0_2083)"/>
<g style="mix-blend-mode:multiply" opacity="0.68">
<path d="M380.559 254.518C380.559 254.518 396.141 252.256 398.057 253.055C399.974 253.853 421.424 254.385 421.424 254.385L380.559 254.518Z" fill="#A683DB"/>
</g>
<g style="mix-blend-mode:multiply" opacity="0.68">
<path d="M459.094 227.971L461.357 223.926L466.666 224.085L472.188 239.508L459.094 227.971Z" fill="#A683DB"/>
</g>
<path style="mix-blend-mode:multiply" opacity="0.5" d="M392.655 241.331C392.655 241.331 397.179 231.87 398.629 229.115C400.08 226.361 434.757 183.3 434.757 183.3C434.757 183.3 400.492 232.216 399.973 233.174C399.455 234.132 392.655 241.331 392.655 241.331Z" fill="url(#paint39_linear_0_2083)"/>
<path style="mix-blend-mode:multiply" opacity="0.8" fill-rule="evenodd" clip-rule="evenodd" d="M550.287 316.234C543.634 313.906 523.035 306.587 519.389 304.352C515.024 301.69 509.688 292.149 509.688 292.149C510.167 291.018 501.278 273.879 494.159 266.121C489.395 260.918 483.221 253.666 479.708 249.461L479.375 248.929C480.44 250.007 514.279 284.365 517.14 287.519C520.001 290.672 536.169 310.579 550.287 316.234Z" fill="url(#paint40_linear_0_2083)"/>
<path style="mix-blend-mode:multiply" opacity="0.8" fill-rule="evenodd" clip-rule="evenodd" d="M550.818 316.434C551.071 316.541 551.324 316.607 551.577 316.7L550.818 316.434Z" fill="url(#paint41_linear_0_2083)"/>
<path style="mix-blend-mode:multiply" opacity="0.8" fill-rule="evenodd" clip-rule="evenodd" d="M500.521 261.358C500.521 261.358 520.681 286.494 537.168 293.294C553.655 300.094 561.413 299.601 564.966 299.521C568.519 299.441 573.868 271.857 573.868 271.857C573.868 271.857 564.806 294.478 559.962 295.556C555.119 296.634 537.461 288.903 525.924 281.983C514.387 275.064 500.521 261.358 500.521 261.358Z" fill="url(#paint42_linear_0_2083)"/>
<path style="mix-blend-mode:multiply" opacity="0.8" fill-rule="evenodd" clip-rule="evenodd" d="M575.037 316.567C575.037 316.567 562.555 316.9 557.365 316.9C552.176 316.9 540.971 311.87 540.971 311.87C540.971 311.87 555.609 319.854 559.601 320.599C563.593 321.344 573.839 319.92 573.839 319.92C573.828 318.696 574.252 317.507 575.037 316.567Z" fill="url(#paint43_linear_0_2083)"/>
<path style="mix-blend-mode:multiply" opacity="0.8" fill-rule="evenodd" clip-rule="evenodd" d="M574.346 317.206C574.013 318.536 573.694 322.874 572.243 324.312C570.793 325.749 570.912 331.431 559.482 332.083C548.052 332.735 533.694 323.486 526.814 314.904C521.725 308.909 515.981 303.504 509.688 298.789C509.688 298.789 505.483 295.383 505.696 293.6C505.909 291.817 509.249 293.28 509.688 292.149C510.127 291.018 501.278 273.879 494.119 266.121C489.356 260.918 483.181 253.666 479.668 249.461L476.821 246.081L476.98 243.979C476.98 243.979 480.972 246.72 482.476 245.922C483.98 245.123 485.137 230.166 482.21 210.885C481.055 204.535 478.965 198.392 476.009 192.655L481.332 193.679C481.332 193.679 517.26 223.473 540.932 229.115C559.948 233.653 569.635 229.341 572.722 227.452C577.526 253.267 570.859 298.909 572.044 303.3C573.374 308.104 577.366 313.027 577.699 314.85C578.032 316.673 574.665 315.902 574.346 317.206Z" fill="url(#paint44_linear_0_2083)"/>
<path style="mix-blend-mode:multiply" opacity="0.8" fill-rule="evenodd" clip-rule="evenodd" d="M480.812 404.379C478.788 404.282 476.775 404.011 474.798 403.567L458.736 398.377C460.558 383.365 460.844 368.205 459.588 353.134C458.424 365.959 456.103 378.652 452.655 391.059C454.733 379.542 456.031 367.899 456.541 356.208C457.206 338.098 458.776 322.742 458.776 322.742C460.7 321.609 462.768 320.741 464.924 320.16C467.797 319.812 470.701 319.812 473.573 320.16C477.781 333.97 480.459 348.201 481.557 362.595C482.583 376.517 482.334 390.503 480.812 404.379Z" fill="url(#paint45_linear_0_2083)"/>
<path style="mix-blend-mode:multiply" opacity="0.8" fill-rule="evenodd" clip-rule="evenodd" d="M533.319 400.732C531.673 401.341 529.918 401.601 528.165 401.496C526.413 401.39 524.701 400.922 523.14 400.12C519.946 398.63 515.755 394.292 512.681 390.725C515.227 384.22 516.732 377.354 517.138 370.379C517.644 359.388 513.812 335.782 513.812 335.782V335.077L513.466 330.619L513.333 329.142V328.743H513.559L543.166 331.723C545.083 360.599 533.319 400.732 533.319 400.732Z" fill="url(#paint46_linear_0_2083)"/>
<g style="mix-blend-mode:multiply" opacity="0.68">
<path fill-rule="evenodd" clip-rule="evenodd" d="M462.595 320.838C462.595 320.838 466.095 326.414 476.368 330.299L473.56 320.12L462.595 320.838Z" fill="#A683BB"/>
</g>
<g style="mix-blend-mode:multiply">
<path fill-rule="evenodd" clip-rule="evenodd" d="M513.335 368.13C513.335 368.13 516.303 381.344 538.019 384.098C538.019 384.098 544.845 351.603 543.155 331.763L513.295 329.102L513.335 368.13Z" fill="#90658E"/>
</g>
<path style="mix-blend-mode:screen" opacity="0.8" fill-rule="evenodd" clip-rule="evenodd" d="M446.534 293.879C446.534 293.879 467.093 295.21 486.455 296.833C505.816 298.457 509.688 299.495 509.688 299.495L507.426 296.62C507.426 296.62 493.121 291.75 480.813 290.725C468.224 289.674 448.69 292.056 448.69 292.056L446.534 293.879Z" fill="url(#paint47_linear_0_2083)"/>
<path style="mix-blend-mode:multiply" opacity="0.5" fill-rule="evenodd" clip-rule="evenodd" d="M449.423 294.984C449.423 294.984 464.247 300.559 480.774 308.477C497.301 316.394 519.23 316.567 519.23 316.567C519.23 316.567 479.376 305.243 449.423 294.984Z" fill="url(#paint48_linear_0_2083)"/>
<path fill-rule="evenodd" clip-rule="evenodd" d="M414.279 441.344L416.567 440.12C416.567 440.12 442.422 444.418 452.602 443.939C462.782 443.46 469.901 440.812 476.022 440.12C480.172 439.712 484.353 439.712 488.504 440.12L488.304 444.578H445.722C432.908 444.604 425.31 445.23 414.279 441.344Z" fill="#080009"/>
<path fill-rule="evenodd" clip-rule="evenodd" d="M530.046 439.801C530.046 439.801 526.573 439.282 512.747 441.717C505.379 442.908 497.867 442.908 490.498 441.717L490.032 443.247L531.802 442.409L530.046 439.801Z" fill="#080009"/>
<g style="mix-blend-mode:soft-light" opacity="0.5">
<path fill-rule="evenodd" clip-rule="evenodd" d="M435.488 437.778C441.263 437.178 446.992 436.205 452.641 434.864C462.647 432.562 464.617 432.083 464.617 432.083C460.365 433.98 455.963 435.521 451.456 436.687C446.213 437.778 435.488 437.778 435.488 437.778Z" fill="white"/>
</g>
<path style="mix-blend-mode:multiply" opacity="0.3" fill-rule="evenodd" clip-rule="evenodd" d="M369.38 252.216C366.092 253.417 362.464 253.273 359.281 251.817C354.344 249.315 342.221 241.544 342.221 241.544C342.221 241.544 336.805 249.142 333.253 248.091C332.245 247.784 331.341 247.208 330.637 246.425C329.934 245.642 329.458 244.681 329.26 243.646C331.922 243.354 338.203 239.029 341.729 236.288C341.662 236.461 346.306 237.233 346.812 236.647C347.81 235.879 348.912 235.256 350.086 234.798C350.418 234.718 351.855 233.121 352.268 233.161C353.472 232.677 354.58 231.983 355.541 231.112C355.714 230.792 357.151 228.783 357.151 228.783L351.829 224.338C349.412 224.032 347.048 223.396 344.803 222.449C341.936 221.433 339.522 219.434 337.99 216.807C339.126 218.255 340.585 219.416 342.252 220.197C343.918 220.978 345.744 221.358 347.584 221.305C350.817 221.305 352.907 218.098 352.907 218.098C357.457 224.086 362.913 225.603 364.124 226.76C365.335 227.918 372.002 240.333 372.002 240.333C369.3 244.219 369.38 252.216 369.38 252.216Z" fill="url(#paint49_linear_0_2083)"/>
<path style="mix-blend-mode:multiply" opacity="0.3" fill-rule="evenodd" clip-rule="evenodd" d="M350.035 234.797L354.932 238.323L351.193 233.839L350.035 234.797Z" fill="url(#paint50_linear_0_2083)"/>
<path style="mix-blend-mode:multiply" opacity="0.3" fill-rule="evenodd" clip-rule="evenodd" d="M353.946 232.283L356.141 233.347L354.771 231.724L353.946 232.283Z" fill="url(#paint51_linear_0_2083)"/>
<path style="mix-blend-mode:multiply" opacity="0.3" fill-rule="evenodd" clip-rule="evenodd" d="M342.22 241.543L340.371 241.331L340.876 243.247L342.22 241.543Z" fill="url(#paint52_linear_0_2083)"/>
<path style="mix-blend-mode:multiply" opacity="0.3" fill-rule="evenodd" clip-rule="evenodd" d="M357.098 228.782L361.542 227.997L353.438 225.748L357.098 228.782Z" fill="url(#paint53_linear_0_2083)"/>
<path fill-rule="evenodd" clip-rule="evenodd" d="M337.1 210.3C338.034 211.911 339.422 213.212 341.092 214.039C341.89 214.27 342.735 214.286 343.541 214.085C344.347 213.884 345.086 213.473 345.682 212.895L339.468 205.177C338.331 206.701 337.524 208.446 337.1 210.3Z" fill="#FFCAA1"/>
<path fill-rule="evenodd" clip-rule="evenodd" d="M329.53 244.737C331.013 244.207 332.308 243.254 333.256 241.996L328.958 243.326L329.53 244.737Z" fill="#A49AB0"/>
<g style="mix-blend-mode:multiply" opacity="0.68">
<path d="M470.234 181.81C470.234 181.81 479.296 204.737 480.64 214.451C481.984 224.165 481.784 244.232 481.784 244.232C481.784 244.232 486.149 235.13 483.315 215.888C481.343 203.751 476.89 192.15 470.234 181.81Z" fill="#A683DB"/>
</g>
<path style="mix-blend-mode:multiply" opacity="0.8" d="M476.819 162.981C476.819 162.981 497.884 169.142 513.519 172.468C529.155 175.795 532.508 170.845 532.508 170.845C532.508 170.845 510.286 168.183 500.811 166.307C491.337 164.431 476.819 162.981 476.819 162.981Z" fill="url(#paint54_linear_0_2083)"/>
<path style="mix-blend-mode:multiply" opacity="0.8" fill-rule="evenodd" clip-rule="evenodd" d="M462.594 320.839L456.233 368.077C458.646 358.2 460.56 348.207 461.969 338.137C463.512 325.403 462.594 320.839 462.594 320.839Z" fill="url(#paint55_linear_0_2083)"/>
<g style="mix-blend-mode:multiply">
<path fill-rule="evenodd" clip-rule="evenodd" d="M461.917 412.921C466.449 415.718 471.455 417.662 476.687 418.657L467.985 420.134L461.917 412.921Z" fill="#90658E"/>
</g>
<g style="mix-blend-mode:multiply">
<path fill-rule="evenodd" clip-rule="evenodd" d="M481.529 418.616L473.851 421.704H478.508L481.529 418.616Z" fill="#90658E"/>
</g>
<g style="mix-blend-mode:multiply">
<path fill-rule="evenodd" clip-rule="evenodd" d="M512.603 405.457L524.845 410.353L515.065 409.528L512.603 405.457Z" fill="#90658E"/>
</g>
<g style="mix-blend-mode:multiply">
<path fill-rule="evenodd" clip-rule="evenodd" d="M529.806 411.763C526.341 412.839 522.773 413.553 519.161 413.893C516.679 413.975 514.212 414.319 511.802 414.917C515.32 415.152 518.85 415.152 522.368 414.917C525.036 414.384 527.567 413.311 529.806 411.763Z" fill="#90658E"/>
</g>
<path d="M559.548 344.724C559.548 344.724 508.903 325.895 492.802 334.584C476.701 343.274 476.687 360.892 476.687 360.892L556.528 357.738L559.548 344.724Z" fill="url(#paint56_linear_0_2083)"/>
<path d="M476.687 360.892C476.687 360.892 583.46 368.477 633.853 357.738C633.84 357.738 548.743 356.128 476.687 360.892Z" fill="url(#paint57_linear_0_2083)"/>
<path d="M498.111 332.841C498.111 332.841 514.598 327.891 562.622 332.296L559.548 344.724C559.548 344.724 537.219 334.824 498.111 332.841Z" fill="url(#paint58_linear_0_2083)"/>
<path d="M555.821 357.739C555.821 357.739 568.689 325.483 572.428 241.571C572.428 241.571 530.166 157.406 584.91 134.917L671.257 137.406C671.257 137.406 679.241 280.905 633.852 357.739H555.821Z" fill="url(#paint59_linear_0_2083)"/>
<path d="M584.909 134.917C584.909 134.917 587.916 259.561 564.589 357.712H633.784C633.784 357.712 685.188 265.23 671.189 137.379L584.909 134.917Z" fill="url(#paint60_linear_0_2083)"/>
<g style="mix-blend-mode:multiply" opacity="0.4">
<path d="M566.574 306.773L573.919 310.646L577.765 288.995L569.023 288.25L566.574 306.773Z" fill="#AE4A89"/>
</g>
<path d="M482.143 361.251V364.218C482.143 364.218 592.869 367.119 625.523 363.499L627.453 358.962C627.453 358.962 563.567 366.294 482.143 361.251Z" fill="#080024"/>
<path d="M554.558 365.31L556.9 407.146H562.13L566.401 365.31H554.558Z" fill="#080024"/>
<path d="M551.538 392.096L567.572 390.06V422.728L551.538 420.679V392.096Z" fill="#080024"/>
<g style="mix-blend-mode:multiply" opacity="0.8">
<path d="M509.752 352.974L526.945 358.523L507.81 358.962V357.019L509.752 352.974Z" fill="#AE4A89"/>
</g>
<path d="M566.922 417.406L636.356 437.007V441.678H627.64L624.873 438.87L555.837 422.103L566.922 417.406Z" fill="#080024"/>
<path d="M561.24 416.328L584.646 440.865L585.738 445.363L578.738 445.017L578.658 440.865L555.837 423.753L561.24 416.328Z" fill="#080024"/>
<path d="M557.046 417.406L561.238 416.328L584.644 440.865H580.067L557.046 417.406Z" fill="#100F4D"/>
<path d="M572.002 285.097C572.002 285.097 523.006 260.253 489.5 276.74L490.831 284.977C490.831 284.977 531.416 274.504 572.002 288.969V285.097Z" fill="#080024"/>
<path d="M489.512 276.767L487.743 264.205C487.743 264.205 548.182 240.253 572.001 268.543V285.123C572.001 285.123 530.83 266.294 489.512 276.767Z" fill="url(#paint61_linear_0_2083)"/>
<path d="M572.003 268.503L581.118 267.944L578.124 286.521L572.003 285.083V268.503Z" fill="url(#paint62_linear_0_2083)"/>
<path d="M487.743 264.178C487.743 264.178 544.802 236.234 581.103 267.944L572.001 268.516C572.001 268.516 546.652 244.072 487.743 264.178Z" fill="url(#paint63_linear_0_2083)"/>
<path d="M572.003 285.083L578.896 284.378L577.592 289.701L572.003 288.995V285.083Z" fill="black"/>
<path d="M490.818 284.977C490.818 284.977 531.616 273.001 571.989 288.969C572.002 289.009 537.671 279.295 490.818 284.977Z" fill="black"/>
<path d="M490.818 284.977L502.594 357.738L509.753 357.033C509.753 357.033 512.082 357.458 509.753 353.041H505.761L499.853 284.231C499.853 284.231 492.787 283.42 490.818 284.977Z" fill="#080024"/>
<path d="M499.8 284.165L502.94 283.805L506.413 352.974H505.708L499.8 284.165Z" fill="black"/>
<path style="mix-blend-mode:multiply" opacity="0.5" d="M564.644 357.711C564.644 357.711 577.95 319.361 590.06 277.245C602.169 235.13 659.095 235.17 664.098 241.317C669.102 247.465 651.257 327.332 633.839 357.738L564.644 357.711Z" fill="url(#paint64_linear_0_2083)"/>
<path d="M584.911 134.917C613.688 132.257 642.682 133.093 671.258 137.405C671.258 137.405 600.453 133.413 567.705 146.786C567.705 146.786 576.701 138.949 584.911 134.917Z" fill="url(#paint65_linear_0_2083)"/>
<path d="M566.574 354.624C566.574 354.624 592.788 229.887 583.154 141.81C583.154 141.81 597.379 212.043 566.574 354.624Z" fill="url(#paint66_linear_0_2083)"/>
<g style="mix-blend-mode:multiply">
<path d="M515.009 330.753L560.478 340.946L562.661 331.458C562.661 331.458 531.709 330.3 515.009 330.753Z" fill="#3E2F50"/>
</g>
<path d="M551.539 417.406L482.104 442.33V447H490.82L493.588 444.192L560.481 421.824L551.539 417.406Z" fill="#080024"/>
<path d="M551.539 417.406L551.991 417.606L554.56 418.697L482.104 442.33L551.539 417.406Z" fill="#100F4D"/>
<g style="mix-blend-mode:multiply" opacity="0.5">
<path d="M459.417 228.077L458.778 227.878C458.778 227.665 465.139 205.576 457.754 192.375C450.368 179.175 443.263 174.478 443.196 174.438L443.555 173.879C443.622 173.879 450.847 178.656 458.339 192.056C465.831 205.456 459.523 227.851 459.417 228.077Z" fill="#8B8EFF"/>
<path d="M371.698 236.7V236.035C374.231 235.863 376.733 235.385 379.15 234.611C381.658 233.928 383.833 232.358 385.271 230.193C385.804 229.488 386.176 228.982 386.602 228.863C388.146 228.264 393.402 230.419 393.455 230.446C394.267 230.446 401.439 224.658 403.222 222.382C404.924 220.562 406.746 218.859 408.678 217.286C410.632 215.733 412.456 214.024 414.134 212.176C415.611 210.113 444.007 176.966 445.218 175.636L445.724 176.075C445.431 176.421 416.13 210.553 414.732 212.549C413.024 214.44 411.164 216.189 409.17 217.778C407.287 219.321 405.509 220.988 403.848 222.768C402.517 224.458 394.44 231.564 393.282 231.032C392.124 230.499 387.959 229.062 386.935 229.461C386.496 229.774 386.124 230.172 385.844 230.632C384.317 232.917 382.015 234.572 379.363 235.29C376.875 236.07 374.301 236.544 371.698 236.7Z" fill="#8B8EFF"/>
<path d="M371.529 240.839L371.396 240.187C371.489 240.187 380.245 238.483 382.906 235.742C385.567 233.001 389.213 234.292 389.932 234.584C390.983 234.239 399.154 231.431 403.239 226.6C405.355 224.112 410.212 220.227 415.361 216.101C421.323 211.324 428.082 205.909 432.035 201.531C439.367 193.427 450.531 181.504 450.664 181.384L451.143 181.85C451.037 181.97 439.886 193.826 432.514 201.983C428.522 206.401 421.735 211.83 415.747 216.62C410.637 220.719 405.794 224.604 403.771 227.04C399.247 232.362 390.371 235.157 389.985 235.276H389.866H389.759C389.599 235.276 385.927 233.6 383.359 236.248C380.564 239.095 371.888 240.839 371.529 240.839Z" fill="#8B8EFF"/>
<path d="M370.902 249.395C370.839 248.811 370.995 248.224 371.339 247.748C371.683 247.271 372.19 246.938 372.765 246.814C375.721 246.137 378.604 245.175 381.374 243.94C382.878 243.253 384.527 242.942 386.178 243.035C391.241 241.742 396.149 239.904 400.815 237.552C403.623 235.956 411.354 230.127 417.555 225.443C420.895 222.941 423.769 220.773 425.127 219.828C428.34 217.654 431.428 215.299 434.375 212.775C436.544 210.859 456.996 191.192 457.236 190.992L457.702 191.471C457.489 191.671 436.996 211.338 434.827 213.268C431.857 215.807 428.747 218.179 425.513 220.373C424.182 221.305 421.281 223.474 417.954 225.975C411.74 230.673 403.996 236.514 401.135 238.125C396.361 240.551 391.325 242.422 386.125 243.7C384.59 243.622 383.059 243.904 381.654 244.525C378.814 245.801 375.854 246.79 372.818 247.479C371.487 247.652 371.487 249.315 371.487 249.382L370.902 249.395Z" fill="#8B8EFF"/>
<path d="M371.407 251.324V250.659C371.407 250.659 377.635 250.419 380.881 248.477L381.081 248.357C383.21 247.026 383.25 247.026 384.368 247.026C385.214 247.01 386.058 246.944 386.896 246.827C391.141 246.281 405.007 240.533 411.846 236.101C419.271 231.271 425.246 228.117 430.103 226.494C434.96 224.871 460.709 202.049 461.001 201.823L461.44 202.316C460.376 203.26 435.452 225.376 430.316 227.119C425.512 228.743 419.591 231.857 412.206 236.66C405.313 241.131 391.287 246.933 386.923 247.492C386.067 247.609 385.205 247.675 384.341 247.692C383.383 247.692 383.383 247.692 381.374 248.942L381.174 249.049C377.821 251.085 371.7 251.324 371.407 251.324Z" fill="#8B8EFF"/>
<path d="M374.868 254.265L374.735 253.613C375.108 253.533 384.05 251.697 385.274 251.644C386.288 251.487 387.28 251.21 388.228 250.819C389.146 250.5 390.171 250.127 391.209 249.861C393.341 249.606 395.493 249.552 397.636 249.701C401.921 249.781 407.257 249.874 410.291 249.062C414.058 247.85 417.667 246.193 421.042 244.126C421.867 243.647 422.533 243.274 422.959 243.061L423.358 242.875C435.6 237.047 441.588 233.121 444.462 230.899C451.036 225.696 460.856 214.398 460.949 214.279L461.455 214.718C461.362 214.824 451.502 226.175 444.875 231.418C441.974 233.706 435.946 237.659 423.584 243.527L423.198 243.713C422.786 243.899 422.134 244.272 421.309 244.738C417.888 246.837 414.229 248.521 410.41 249.754C407.283 250.593 401.894 250.486 397.583 250.406C395.498 250.267 393.405 250.312 391.328 250.539C390.317 250.806 389.306 251.165 388.401 251.484C387.391 251.907 386.331 252.198 385.247 252.349C384.329 252.349 378.048 253.6 374.868 254.265Z" fill="#8B8EFF"/>
<path d="M397.476 254.265L397.383 253.6C397.609 253.6 420.164 250.114 425.327 247.479C428.907 245.669 438.634 238.643 445.726 233.52C449.04 231.112 451.661 229.222 452.752 228.504C456.132 226.321 459.792 223.793 459.832 223.766L460.204 224.312C460.204 224.312 456.505 226.867 453.125 229.062C452.034 229.768 449.426 231.724 446.112 234.053C438.993 239.189 429.253 246.241 425.62 248.078C420.377 250.752 398.421 254.146 397.476 254.265Z" fill="#8B8EFF"/>
<path d="M447.642 178.071L447.389 177.445C447.389 177.445 452.033 175.596 455.373 174.172C458.439 173.106 461.618 172.4 464.847 172.069L464.914 172.735C461.74 173.057 458.615 173.744 455.599 174.784C452.286 176.221 447.682 178.044 447.642 178.071Z" fill="#8B8EFF"/>
<path d="M455.679 188.317L455.412 187.705L469.81 181.278L470.09 181.89L455.679 188.317Z" fill="#8B8EFF"/>
<path d="M458.355 192.988L458.235 192.322L474.403 189.661L474.509 190.326L458.355 192.988Z" fill="#8B8EFF"/>
<path d="M479.991 201.669L461.246 204.782L461.355 205.439L480.1 202.325L479.991 201.669Z" fill="#8B8EFF"/>
<path d="M481.997 210.001L461.116 216.111L461.303 216.75L482.184 210.64L481.997 210.001Z" fill="#8B8EFF"/>
<path d="M483.663 226.6C483.663 226.6 482.692 226.081 476.824 225.044C470.703 223.966 460.39 223.101 460.283 223.101V222.435C460.39 222.435 470.743 223.3 476.877 224.391C483.011 225.483 483.89 226.002 483.969 226.055L483.663 226.6Z" fill="#8B8EFF"/>
<path d="M464.317 232.855L464.224 232.189C464.915 232.11 480.977 230.114 484.09 230.779L483.957 231.431C480.95 230.805 464.476 232.855 464.317 232.855Z" fill="#8B8EFF"/>
</g>
<path d="M194.199 218.284C191.087 206.496 190.14 194.242 191.404 182.116L195.529 218.217L194.199 218.284Z" fill="#08002E"/>
<path d="M200.32 217.991C200.32 217.991 196.062 190.579 203.78 177.193C206.204 190.79 205.614 204.753 202.05 218.097L200.32 217.991Z" fill="#08002E"/>
<path d="M203.779 217.832C203.779 217.832 202.449 191.032 207.625 179.921L204.338 218.098L203.779 217.832Z" fill="#08002E"/>
<path d="M207.623 217.485C207.623 217.485 212.054 189.142 217.922 184.724L207.623 217.485Z" fill="#08002E"/>
<path d="M197.166 218.417C197.166 218.417 194.292 196.035 200.732 182.116C201.038 182.01 199.295 201.252 197.898 218.417H197.166Z" fill="#08002E"/>
<path d="M193.2 218.217C193.2 218.217 192.734 194.558 187.877 180.958L193.2 218.217Z" fill="#08002E"/>
<path d="M196.289 218.097C196.289 218.097 192.296 198.629 195.53 184.724C196.94 195.789 197.438 206.951 197.02 218.097H196.289Z" fill="url(#paint67_linear_0_2083)"/>
<path d="M200.133 218.097C200.133 218.097 197.831 198.004 201.038 184.099C201.038 184.099 201.676 201.158 200.865 218.097H200.133Z" fill="url(#paint68_linear_0_2083)"/>
<path d="M206.252 218.416C206.252 218.416 203.963 198.323 207.17 184.418C207.17 184.418 207.796 201.464 206.997 218.416H206.252Z" fill="#223F8D"/>
<path d="M201.037 184.099L200.305 214.079C201.352 204.121 201.596 194.095 201.037 184.099Z" fill="#223F8D"/>
<path d="M195.527 184.724L196.272 213.679C196.272 213.679 198.255 197.206 195.527 184.724Z" fill="#223F8D"/>
<path d="M217.926 184.724C214.366 193.206 211.599 201.999 209.662 210.991L217.926 184.724Z" fill="url(#paint69_linear_0_2083)"/>
<path d="M207.398 218.284C204.287 206.496 203.34 194.242 204.604 182.116L208.742 218.217L207.398 218.284Z" fill="#08002E"/>
<path d="M213.533 217.991C213.533 217.991 209.275 190.579 216.98 177.193C219.412 190.789 218.826 204.753 215.263 218.097L213.533 217.991Z" fill="#08002E"/>
<path d="M216.981 217.832C216.981 217.832 215.651 191.032 220.827 179.921L217.553 218.098L216.981 217.832Z" fill="#08002E"/>
<path d="M220.825 217.485C220.825 217.485 225.256 189.142 231.124 184.724L220.825 217.485Z" fill="#08002E"/>
<path d="M210.379 218.417C210.379 218.417 207.505 196.035 213.945 182.116C214.238 182.01 212.495 201.252 211.111 218.417H210.379Z" fill="#08002E"/>
<path d="M206.413 218.217C206.413 218.217 205.947 194.558 201.09 180.958L206.413 218.217Z" fill="#08002E"/>
<path d="M209.502 218.097C209.502 218.097 205.51 198.629 208.743 184.724C210.145 195.789 210.644 206.951 210.234 218.097H209.502Z" fill="url(#paint70_linear_0_2083)"/>
<path d="M213.345 218.097C213.345 218.097 211.056 198.004 214.263 184.099C214.263 184.099 214.888 201.158 214.09 218.097H213.345Z" fill="url(#paint71_linear_0_2083)"/>
<path d="M219.467 218.416C219.467 218.416 217.165 198.323 220.372 184.418C220.372 184.418 221.01 201.464 220.199 218.416H219.467Z" fill="#223F8D"/>
<path d="M214.25 184.099L213.505 214.079C214.559 204.122 214.808 194.096 214.25 184.099Z" fill="#223F8D"/>
<path d="M208.741 184.724L209.486 213.679C209.486 213.679 211.455 197.206 208.741 184.724Z" fill="#223F8D"/>
<path d="M231.126 184.724C227.573 193.207 224.811 202 222.876 210.991L231.126 184.724Z" fill="url(#paint72_linear_0_2083)"/>
<path d="M192.204 255.941L190.367 218.19L223.328 217.285L221.345 255.649L192.204 255.941Z" fill="url(#paint73_linear_0_2083)"/>
<path d="M192.202 254.318V257.685H195.648L196.646 256.354L202.781 256.434L203.526 257.685H207.93L208.755 256.434H216.62L217.498 257.113L221.357 257.02L221.45 253.214L192.202 254.318Z" fill="#080024"/>
<g style="mix-blend-mode:soft-light" opacity="0.5">
<path d="M220.814 219.681C219.044 219.508 216.822 246.454 218.791 249.914C220.76 253.373 220.814 219.681 220.814 219.681Z" fill="white"/>
</g>
<g style="mix-blend-mode:soft-light" opacity="0.5">
<path d="M215.491 220.639C213.761 217.764 206.043 218.283 203.807 219.774C201.572 221.264 203.887 247.997 207.147 250.379C210.407 252.761 215.131 249.967 215.491 248.769C216.01 246.866 216.608 222.502 215.491 220.639Z" fill="white"/>
</g>
<path fill-rule="evenodd" clip-rule="evenodd" d="M247.81 256.048L242.408 216.195H273.891L270.844 256.78L247.81 256.048Z" fill="url(#paint74_linear_0_2083)"/>
<path d="M240.119 218.483H277.471L278.749 214.105H275.768V210.912L242.408 209.435L241.822 215.17H238.522L240.119 218.483Z" fill="url(#paint75_linear_0_2083)"/>
<path d="M246.334 255.902L272.056 255.09V256.78H246.334V255.902Z" fill="#08002E"/>
<g style="mix-blend-mode:multiply" opacity="0.4">
<path d="M243.181 221.983C253.196 220.187 263.423 219.905 273.521 221.145L273.72 218.483H242.822L243.181 221.983Z" fill="#D44A7C"/>
</g>
<g style="mix-blend-mode:soft-light">
<path d="M249.142 215.17H245.31V218.484H249.142V215.17Z" fill="#D0CDCC"/>
</g>
<g style="mix-blend-mode:soft-light">
<path d="M249.142 209.727L248.503 214.531H252.535L252.961 209.9L249.142 209.727Z" fill="#D0CDCC"/>
</g>
<path d="M258.43 243.114C258.43 243.114 247.718 235.529 257.339 227.944C257.193 228.211 255.556 231.431 258.43 235.516C259.295 236.588 259.767 237.924 259.767 239.302C259.767 240.679 259.295 242.015 258.43 243.087C258.75 242.781 261.877 239.774 260.413 236.434C258.949 233.094 256.261 232.282 257.313 227.865C257.352 227.918 273.933 234.584 258.43 243.114Z" fill="#08002E"/>
<path d="M241.929 214.105H275.768L238.522 215.17L241.929 214.105Z" fill="#3890BF"/>
<path d="M14.0099 280.626V269.382L104.19 268.371V280.626H14.0099Z" fill="#2B2F7A"/>
<path fill-rule="evenodd" clip-rule="evenodd" d="M104.193 268.37L165.404 265.549L164.259 280.626H104.193V268.37Z" fill="#0E061B"/>
<path d="M77.0061 270.898H29.3015V278.23H77.0061V270.898Z" fill="#4D43A2"/>
<path fill-rule="evenodd" clip-rule="evenodd" d="M165.19 268.371L107.439 270.899V277.033L164.445 278.231L165.19 268.371Z" fill="#1A3065"/>
<path fill-rule="evenodd" clip-rule="evenodd" d="M22.7141 269.289L27.1852 237.073L107.438 238.51L104.191 268.37L22.7141 269.289Z" fill="#191D5B"/>
<path fill-rule="evenodd" clip-rule="evenodd" d="M107.44 238.51L165.191 253.174L163.913 256.634L160.014 255.45L159.362 263.021L163.714 263.248L163.315 265.55L104.193 268.371L107.44 238.51Z" fill="#0E061B"/>
<path fill-rule="evenodd" clip-rule="evenodd" d="M160.013 255.45L109.022 241.704L107.439 265.55L159.361 263.021L160.013 255.45Z" fill="#1A3065"/>
<path fill-rule="evenodd" clip-rule="evenodd" d="M39.1618 263.46C39.1618 263.46 33.9589 250.659 43.5664 244.006C43.5664 244.046 50.1 253.533 39.1618 263.46Z" fill="#4D43A2"/>
<path fill-rule="evenodd" clip-rule="evenodd" d="M39.8133 260.932C39.8133 260.932 35.9943 251.484 43.0203 246.614C43.0203 246.614 47.8506 253.6 39.8133 260.932Z" fill="#0E061B"/>
<path fill-rule="evenodd" clip-rule="evenodd" d="M83.1262 262.329C83.1262 262.329 77.9366 249.515 87.5441 242.861C87.5441 242.861 94.0644 252.349 83.1262 262.329Z" fill="#4D43A2"/>
<path fill-rule="evenodd" clip-rule="evenodd" d="M83.7793 259.747C83.7793 259.747 79.9603 250.326 87.0261 245.429C87.0261 245.429 91.8299 252.415 83.7793 259.747Z" fill="#0E061B"/>
<path fill-rule="evenodd" clip-rule="evenodd" d="M20.3309 280.626V295.33L107.437 292.948L109.938 280.626H20.3309Z" fill="#191D5B"/>
<path fill-rule="evenodd" clip-rule="evenodd" d="M107.439 292.948H165.403L166.507 280.626H109.94L107.439 292.948Z" fill="#0E061B"/>
<path fill-rule="evenodd" clip-rule="evenodd" d="M166.361 282.263H111.79L109.94 291.617H165.403L166.361 282.263Z" fill="#1A3065"/>
<path fill-rule="evenodd" clip-rule="evenodd" d="M43.0087 291.617V285.456L93.3347 283.926V291.617H43.0087Z" fill="#3A2F98"/>
<g style="mix-blend-mode:multiply" opacity="0.4">
<path fill-rule="evenodd" clip-rule="evenodd" d="M20.3309 280.626H109.938L108.195 289.208L20.3309 283.699V280.626Z" fill="#954A89"/>
</g>
<path d="M14.4774 436.687L3.79211 292.961L125.469 291.564L122.941 436.687H116.913L113.08 423.58H26.2539L21.2106 436.687H14.4774Z" fill="#2A3489"/>
<path d="M125.47 291.564H176.741L166.721 436.687H122.942L125.47 291.564Z" fill="url(#paint76_linear_0_2083)"/>
<path d="M21.2096 436.687L81.6621 436.833L87.8896 423.58H26.2528L21.2096 436.687Z" fill="#0E062C"/>
<g style="mix-blend-mode:multiply" opacity="0.4">
<path d="M24.8036 427.359L81.6633 436.833L87.8909 423.58H26.2541L24.8036 427.359Z" fill="#AE4A89"/>
</g>
<path d="M113.295 415.968L114.972 294.531H120.241L116.569 415.968H113.295Z" fill="url(#paint77_linear_0_2083)"/>
<path d="M114.97 294.531L0 297.418L6.56022 415.968H113.294L114.97 294.531Z" fill="#2A3489"/>
<g style="mix-blend-mode:multiply" opacity="0.4">
<path d="M4.43176 381.198L113.946 381.677L113.773 382.382L4.53822 381.784L4.43176 381.198Z" fill="#1D002A"/>
</g>
<g style="mix-blend-mode:multiply" opacity="0.4">
<path d="M1.7959 334.518L114.57 330.553V332.216L1.7959 335.117V334.518Z" fill="#1D002A"/>
</g>
<g style="mix-blend-mode:multiply" opacity="0.4">
<path d="M12.8536 415.969L13.1198 419.362L116.766 421.251L116.566 415.969H12.8536Z" fill="#1D002A"/>
</g>
<g style="mix-blend-mode:multiply" opacity="0.4">
<path d="M39.7469 348.703L42.7542 356.434L76.2339 355.596L73.892 344.711L72.1621 345.722L73.892 352.083L45.7748 352.242L44.2579 348.703H39.7469Z" fill="#AE4A89"/>
</g>
<path d="M35.0625 345.722V348.703H70.4318V344.711L35.0625 345.722Z" fill="#180F36"/>
<path d="M70.4323 344.711H73.892L73.1734 348.703H70.4323V344.711Z" fill="#00001D"/>
<g style="mix-blend-mode:multiply" opacity="0.4">
<path d="M39.7469 312.296L42.7542 320.013L76.2339 319.175L73.892 308.304L72.1621 309.302L73.892 315.662L45.7748 315.835L44.2579 312.296H39.7469Z" fill="#AE4A89"/>
</g>
<path d="M35.0625 309.302V312.296H70.4318V308.304L35.0625 309.302Z" fill="#180F36"/>
<path d="M70.4323 308.304H73.892L73.1734 312.296H70.4323V308.304Z" fill="#00001D"/>
<g style="mix-blend-mode:multiply" opacity="0.4">
<path d="M42.2758 394.758L45.2964 402.489L78.7628 401.65L76.4208 390.766L74.691 391.777L76.4208 398.137L48.3037 398.297L46.8 394.758H42.2758Z" fill="#AE4A89"/>
</g>
<path d="M37.5913 391.777V394.758H72.9739V390.766L37.5913 391.777Z" fill="#180F36"/>
<path d="M72.9747 390.766H76.4212L75.7026 394.758H72.9747V390.766Z" fill="#00001D"/>
<path d="M0 297.419L120.24 294.531L114.97 294.132L0 297.419Z" fill="#3863BF"/>
<path d="M3.79211 292.961H125.469L176.74 291.564H125.469L3.79211 292.961Z" fill="#3863BF"/>
<path d="M201.677 257.698C201.677 257.698 224.538 234.278 250.407 256.633L201.677 257.698Z" fill="url(#paint78_linear_0_2083)"/>
<path d="M222.942 247.292L201.677 173.733L206.601 169.475L225.31 247L222.942 247.292Z" fill="url(#paint79_linear_0_2083)"/>
<path d="M227.013 246.773L209.981 170.898L206.601 169.475L225.31 247L227.013 246.773Z" fill="#2489BF"/>
<path d="M208.784 170.393L229.875 147.026L233.628 150.313L209.915 175.17L208.784 170.393Z" fill="url(#paint80_linear_0_2083)"/>
<path d="M232.92 150.313H235.967L210.937 175.17H209.913L232.92 150.313Z" fill="#2489BF"/>
<path d="M229.873 147.026H232.241L235.967 150.313H232.92L229.873 147.026Z" fill="#2489BF"/>
<path d="M252.203 187.904C252.203 187.904 219.03 164.178 233.827 146.986C248.624 129.794 278.551 158.576 278.551 158.576C278.551 158.576 267.759 165.828 252.203 187.904Z" fill="url(#paint81_linear_0_2083)"/>
<path d="M252.202 187.904C252.202 187.904 265.509 178.909 278.603 158.63C278.549 158.576 267.824 162.728 252.202 187.904Z" fill="#2489BF"/>
<path d="M255.275 184.498C255.275 184.498 265.042 168.051 277.218 159.668C277.218 159.668 266.932 175.795 255.275 184.498Z" fill="#383A70"/>
<path d="M230.646 152.668C230.646 152.668 226.041 147.225 228.969 143.22C231.896 139.215 240.799 142.275 240.799 142.275C240.799 142.275 233.613 149.461 230.646 152.668Z" fill="url(#paint82_linear_0_2083)"/>
<path opacity="0.2" d="M247.493 142.741C247.493 142.741 254.466 149.395 260.613 147.891C260.613 147.891 254.519 143.047 247.493 142.741Z" fill="white"/>
<path opacity="0.2" d="M243.393 178.297C243.393 178.297 247.133 184.804 252.056 185.097C249.851 182.075 246.853 179.721 243.393 178.297Z" fill="white"/>
<path d="M204.804 173.959C204.804 173.959 201.89 178.616 206.6 180.213C206.6 180.213 208.117 175.635 204.804 173.959Z" fill="#223F8D"/>
<path d="M339.415 205.177L348.729 213.759L353.985 218.324C353.985 218.324 358.15 223.287 361.597 224.551C365.043 225.815 369.581 233.174 369.581 233.174L365.709 229.688C365.007 228.472 364.196 227.323 363.287 226.254C360.958 225.197 358.731 223.927 356.633 222.462C355.079 221.462 353.799 220.09 352.908 218.47C349.888 216.698 347.053 214.63 344.444 212.296C342.456 210.159 340.764 207.765 339.415 205.177Z" fill="white"/>
<path opacity="0.68" d="M430.139 144.339C430.139 144.339 432.986 162.742 436.379 169.901C433.688 165.203 431.63 160.169 430.258 154.931C428.608 147.572 430.139 144.339 430.139 144.339Z" fill="#72FFFF"/>
<path opacity="0.68" d="M421.396 153.719C421.396 153.719 421.17 148.131 423.791 145.363C423.791 145.363 418.562 148.61 421.396 153.719Z" fill="#72FFFF"/>
<path d="M399.934 221.982L442.369 175.076C442.369 175.076 413.041 212.202 399.934 221.982Z" fill="#72FFFF"/>
<path d="M242.408 209.435L275.768 210.912V214.105L278.003 209.728L242.408 209.435Z" fill="#75E4FF"/>
<path d="M252.202 187.904C262.777 179.906 271.736 169.972 278.603 158.63C278.603 158.63 271.031 178.297 252.202 187.904Z" fill="#75E4FF"/>
<path d="M565.216 224.032C565.216 224.032 540.08 157.751 584.91 134.877C584.91 134.917 538.682 142.169 565.216 224.032Z" fill="#275BFF"/>
<path d="M432.907 105.11C432.907 105.11 433.932 118.111 436.327 122.409L433.812 131.537L429.394 130.553L429.541 127.612L426.587 127.386L426.254 142.742L423.499 145.403L425.628 141.091L425.708 126.76L430.139 126.68L430.459 128.863L433.12 128.61L435.01 123.114C433.743 120.424 432.822 117.585 432.269 114.664C431.459 111.493 431.682 108.146 432.907 105.11Z" fill="#45E0FF"/>
<path d="M436.061 112.468C436.061 112.468 433.732 124.444 438.017 129.328C442.302 134.212 452.375 131.896 452.375 131.896C452.375 131.896 443.606 132.189 439.254 128.57C434.903 124.95 436.061 112.468 436.061 112.468Z" fill="#45E0FF"/>
<path d="M456.859 163.313C456.859 163.313 460.079 167.026 463.898 172.468C467.718 177.911 473.719 188.636 473.719 188.636L459.76 168.011L456.859 168.743C456.859 168.743 455.236 164.551 456.859 163.313Z" fill="#72AEFF"/>
<path d="M397.432 227.159C397.432 227.159 417.685 219.867 423.607 214.451C429.528 209.035 440.985 181.583 440.985 181.583L421.158 202.049L397.432 227.159Z" fill="#72AEFF"/>
<path style="mix-blend-mode:screen" d="M336.29 326.441C439.919 326.441 523.928 253.364 523.928 163.22C523.928 73.0762 439.919 0 336.29 0C232.66 0 148.651 73.0762 148.651 163.22C148.651 253.364 232.66 326.441 336.29 326.441Z" fill="url(#paint83_radial_0_2083)"/>
<defs>
<linearGradient id="paint0_linear_0_2083" x1="511.512" y1="439.375" x2="511.512" y2="267.359" gradientUnits="userSpaceOnUse">
<stop stop-color="#201E56"/>
<stop offset="0.53" stop-color="#121046"/>
<stop offset="0.96" stop-color="#0C093E"/>
<stop offset="0.97" stop-color="#0C0C40"/>
<stop offset="1" stop-color="#0C1345"/>
</linearGradient>
<linearGradient id="paint1_linear_0_2083" x1="441.996" y1="260.346" x2="530.752" y2="260.346" gradientUnits="userSpaceOnUse">
<stop stop-color="#201E56"/>
<stop offset="0.53" stop-color="#121046"/>
<stop offset="0.96" stop-color="#0C093E"/>
<stop offset="0.97" stop-color="#0C0C40"/>
<stop offset="1" stop-color="#0C1345"/>
</linearGradient>
<linearGradient id="paint2_linear_0_2083" x1="428.809" y1="439.375" x2="428.809" y2="267.359" gradientUnits="userSpaceOnUse">
<stop stop-color="#201E56"/>
<stop offset="0.53" stop-color="#121046"/>
<stop offset="0.96" stop-color="#0C093E"/>
<stop offset="0.97" stop-color="#0C0C40"/>
<stop offset="1" stop-color="#0C1345"/>
</linearGradient>
<linearGradient id="paint3_linear_0_2083" x1="367.599" y1="445.47" x2="367.599" y2="290.553" gradientUnits="userSpaceOnUse">
<stop stop-color="#201E56"/>
<stop offset="0.53" stop-color="#121046"/>
<stop offset="0.96" stop-color="#0C093E"/>
<stop offset="0.97" stop-color="#0C0C40"/>
<stop offset="1" stop-color="#0C1345"/>
</linearGradient>
<linearGradient id="paint4_linear_0_2083" x1="374.038" y1="418.643" x2="374.038" y2="292.349" gradientUnits="userSpaceOnUse">
<stop stop-color="#201E56"/>
<stop offset="0.53" stop-color="#121046"/>
<stop offset="0.96" stop-color="#0C093E"/>
<stop offset="0.97" stop-color="#0C0C40"/>
<stop offset="1" stop-color="#0C1345"/>
</linearGradient>
<linearGradient id="paint5_linear_0_2083" x1="588.4" y1="288.577" x2="590.679" y2="258.257" gradientUnits="userSpaceOnUse">
<stop stop-color="#1A002C"/>
<stop offset="0.48" stop-color="#150735"/>
<stop offset="1" stop-color="#362F60"/>
</linearGradient>
<linearGradient id="paint6_linear_0_2083" x1="634.844" y1="293.483" x2="636.237" y2="274.959" gradientUnits="userSpaceOnUse">
<stop stop-color="#A40036"/>
<stop offset="1" stop-color="#BF0021"/>
</linearGradient>
<linearGradient id="paint7_linear_0_2083" x1="594.182" y1="272.371" x2="595.358" y2="256.727" gradientUnits="userSpaceOnUse">
<stop stop-color="#FF4855"/>
<stop offset="0.99" stop-color="#FF726D"/>
</linearGradient>
<linearGradient id="paint8_linear_0_2083" x1="471.298" y1="284.884" x2="471.298" y2="219.082" gradientUnits="userSpaceOnUse">
<stop stop-color="#1A021F"/>
<stop offset="0.38" stop-color="#130520"/>
<stop offset="1" stop-color="#0B0822"/>
</linearGradient>
<linearGradient id="paint9_linear_0_2083" x1="426.679" y1="158.178" x2="426.679" y2="135.051" gradientUnits="userSpaceOnUse">
<stop offset="0.03" stop-color="#FF898D"/>
<stop offset="0.95" stop-color="#FF9A73"/>
</linearGradient>
<linearGradient id="paint10_linear_0_2083" x1="429.648" y1="145.496" x2="486.454" y2="145.496" gradientUnits="userSpaceOnUse">
<stop offset="0.05" stop-color="#FFA670"/>
<stop offset="0.97" stop-color="#815B9A"/>
</linearGradient>
<linearGradient id="paint11_linear_0_2083" x1="438.828" y1="144.458" x2="438.828" y2="121.543" gradientUnits="userSpaceOnUse">
<stop stop-color="#FFC2D8"/>
<stop offset="0.99" stop-color="#CA00A4"/>
</linearGradient>
<linearGradient id="paint12_linear_0_2083" x1="439.534" y1="154.691" x2="481.077" y2="154.691" gradientUnits="userSpaceOnUse">
<stop stop-color="white"/>
<stop offset="0.99" stop-color="#CA00A4"/>
</linearGradient>
<linearGradient id="paint13_linear_0_2083" x1="457.684" y1="156.367" x2="457.684" y2="137.578" gradientUnits="userSpaceOnUse">
<stop offset="0.03" stop-color="#FF6D72"/>
<stop offset="0.95" stop-color="#BD8498"/>
</linearGradient>
<linearGradient id="paint14_linear_0_2083" x1="462.651" y1="158.204" x2="462.651" y2="104.152" gradientUnits="userSpaceOnUse">
<stop stop-color="#1A002C"/>
<stop offset="0.78" stop-color="#230632"/>
<stop offset="1" stop-color="#362F60"/>
</linearGradient>
<linearGradient id="paint15_linear_0_2083" x1="465.602" y1="158.204" x2="465.602" y2="123.074" gradientUnits="userSpaceOnUse">
<stop stop-color="white"/>
<stop offset="0.99" stop-color="#CA00A4"/>
</linearGradient>
<linearGradient id="paint16_linear_0_2083" x1="445.469" y1="132.083" x2="445.469" y2="106.986" gradientUnits="userSpaceOnUse">
<stop stop-color="#221B4D"/>
<stop offset="0.48" stop-color="#241444"/>
<stop offset="1" stop-color="#362F60"/>
</linearGradient>
<radialGradient id="paint17_radial_0_2083" cx="0" cy="0" r="1" gradientUnits="userSpaceOnUse" gradientTransform="translate(425.075 135.659) rotate(16.2604) scale(5.70854 5.70859)">
<stop stop-color="#C9F2BF"/>
<stop offset="1" stop-color="#83BDB7"/>
</radialGradient>
<linearGradient id="paint18_linear_0_2083" x1="350.525" y1="253.054" x2="350.525" y2="205.176" gradientUnits="userSpaceOnUse">
<stop offset="0.03" stop-color="#6885DD"/>
<stop offset="0.95" stop-color="#FFA670"/>
</linearGradient>
<linearGradient id="paint19_linear_0_2083" x1="525.921" y1="401.504" x2="525.921" y2="324.724" gradientUnits="userSpaceOnUse">
<stop stop-color="#07052A"/>
<stop offset="0.49" stop-color="#0A0736"/>
<stop offset="1" stop-color="#0C093E"/>
</linearGradient>
<linearGradient id="paint20_linear_0_2083" x1="367.971" y1="210.885" x2="484.724" y2="210.885" gradientUnits="userSpaceOnUse">
<stop offset="0.02" stop-color="#BBDEFF"/>
<stop offset="0.38" stop-color="#6081EC"/>
<stop offset="0.97" stop-color="#5349C9"/>
</linearGradient>
<linearGradient id="paint21_linear_0_2083" x1="500.52" y1="404.378" x2="500.52" y2="290.326" gradientUnits="userSpaceOnUse">
<stop stop-color="#110341"/>
<stop offset="0.47" stop-color="#190E4B"/>
<stop offset="1" stop-color="#1E1651"/>
</linearGradient>
<linearGradient id="paint22_linear_0_2083" x1="467.397" y1="325.869" x2="555.222" y2="325.869" gradientUnits="userSpaceOnUse">
<stop stop-color="white"/>
<stop offset="0.99" stop-color="#753CA4"/>
</linearGradient>
<linearGradient id="paint23_linear_0_2083" x1="517.14" y1="332.11" x2="517.14" y2="158.111" gradientUnits="userSpaceOnUse">
<stop stop-color="#00003D"/>
<stop offset="1" stop-color="#160924"/>
</linearGradient>
<linearGradient id="paint24_linear_0_2083" x1="399.934" y1="212.894" x2="484.724" y2="212.894" gradientUnits="userSpaceOnUse">
<stop stop-color="#D4D6FF"/>
<stop offset="0.99" stop-color="#9A68BF"/>
</linearGradient>
<linearGradient id="paint25_linear_0_2083" x1="423.793" y1="156.115" x2="429.648" y2="156.115" gradientUnits="userSpaceOnUse">
<stop stop-color="white"/>
<stop offset="0.99" stop-color="#CA00A4"/>
</linearGradient>
<linearGradient id="paint26_linear_0_2083" x1="423.008" y1="142.01" x2="430.712" y2="142.01" gradientUnits="userSpaceOnUse">
<stop stop-color="white"/>
<stop offset="0.99" stop-color="#CA00A4"/>
</linearGradient>
<linearGradient id="paint27_linear_0_2083" x1="451.578" y1="148.277" x2="464.192" y2="148.277" gradientUnits="userSpaceOnUse">
<stop offset="0.01" stop-color="#CA00A4"/>
<stop offset="1" stop-color="white"/>
</linearGradient>
<linearGradient id="paint28_linear_0_2083" x1="452.377" y1="155.396" x2="465.671" y2="155.396" gradientUnits="userSpaceOnUse">
<stop offset="0.01" stop-color="#CA00A4"/>
<stop offset="1" stop-color="white"/>
</linearGradient>
<linearGradient id="paint29_linear_0_2083" x1="445.27" y1="122.382" x2="445.27" y2="102.555" gradientUnits="userSpaceOnUse">
<stop stop-color="#221B4D"/>
<stop offset="0.48" stop-color="#241444"/>
<stop offset="1" stop-color="#362F60"/>
</linearGradient>
<linearGradient id="paint30_linear_0_2083" x1="477.976" y1="110.326" x2="477.976" y2="101.411" gradientUnits="userSpaceOnUse">
<stop stop-color="#221B4D"/>
<stop offset="0.48" stop-color="#241444"/>
<stop offset="1" stop-color="#362F60"/>
</linearGradient>
<linearGradient id="paint31_linear_0_2083" x1="492.216" y1="164.245" x2="492.216" y2="155.876" gradientUnits="userSpaceOnUse">
<stop stop-color="#09021F"/>
<stop offset="1" stop-color="#0B0822"/>
</linearGradient>
<linearGradient id="paint32_linear_0_2083" x1="540.972" y1="331.91" x2="540.972" y2="298.776" gradientUnits="userSpaceOnUse">
<stop stop-color="#09021F"/>
<stop offset="1" stop-color="#0B0822"/>
</linearGradient>
<linearGradient id="paint33_linear_0_2083" x1="471.67" y1="251.99" x2="471.67" y2="162.835" gradientUnits="userSpaceOnUse">
<stop stop-color="#09021F"/>
<stop offset="1" stop-color="#0B0822"/>
</linearGradient>
<linearGradient id="paint34_linear_0_2083" x1="544.272" y1="191.737" x2="544.272" y2="162.116" gradientUnits="userSpaceOnUse">
<stop stop-color="#09021F"/>
<stop offset="1" stop-color="#0B0822"/>
</linearGradient>
<linearGradient id="paint35_linear_0_2083" x1="433.187" y1="251.99" x2="433.187" y2="176.927" gradientUnits="userSpaceOnUse">
<stop offset="0.01" stop-color="#9A68BF"/>
<stop offset="1" stop-color="white"/>
</linearGradient>
<linearGradient id="paint36_linear_0_2083" x1="455.781" y1="250.992" x2="455.781" y2="192.575" gradientUnits="userSpaceOnUse">
<stop offset="0.01" stop-color="#9A68BF"/>
<stop offset="1" stop-color="white"/>
</linearGradient>
<linearGradient id="paint37_linear_0_2083" x1="390.498" y1="253.839" x2="390.498" y2="222.768" gradientUnits="userSpaceOnUse">
<stop stop-color="white"/>
<stop offset="0.99" stop-color="#9A68BF"/>
</linearGradient>
<linearGradient id="paint38_linear_0_2083" x1="380.56" y1="238.337" x2="380.56" y2="228.011" gradientUnits="userSpaceOnUse">
<stop stop-color="white"/>
<stop offset="0.99" stop-color="#9A68BF"/>
</linearGradient>
<linearGradient id="paint39_linear_0_2083" x1="392.655" y1="212.322" x2="434.757" y2="212.322" gradientUnits="userSpaceOnUse">
<stop stop-color="white"/>
<stop offset="0.99" stop-color="#9A68BF"/>
</linearGradient>
<linearGradient id="paint40_linear_0_2083" x1="514.838" y1="316.234" x2="514.838" y2="248.929" gradientUnits="userSpaceOnUse">
<stop stop-color="white"/>
<stop offset="0.99" stop-color="#CA00A4"/>
</linearGradient>
<linearGradient id="paint41_linear_0_2083" x1="551.191" y1="316.7" x2="551.191" y2="316.434" gradientUnits="userSpaceOnUse">
<stop stop-color="white"/>
<stop offset="0.99" stop-color="#CA00A4"/>
</linearGradient>
<linearGradient id="paint42_linear_0_2083" x1="537.195" y1="299.548" x2="537.195" y2="261.358" gradientUnits="userSpaceOnUse">
<stop offset="0.01" stop-color="#CA00A4"/>
<stop offset="1" stop-color="white"/>
</linearGradient>
<linearGradient id="paint43_linear_0_2083" x1="558.004" y1="320.839" x2="558.004" y2="311.87" gradientUnits="userSpaceOnUse">
<stop offset="0.01" stop-color="#CA00A4"/>
<stop offset="1" stop-color="white"/>
</linearGradient>
<linearGradient id="paint44_linear_0_2083" x1="526.92" y1="332.109" x2="526.92" y2="192.655" gradientUnits="userSpaceOnUse">
<stop offset="0.01" stop-color="#CA00A4"/>
<stop offset="1" stop-color="white"/>
</linearGradient>
<linearGradient id="paint45_linear_0_2083" x1="467.399" y1="404.379" x2="467.399" y2="319.828" gradientUnits="userSpaceOnUse">
<stop offset="0.01" stop-color="#A184BB"/>
<stop offset="1" stop-color="white"/>
</linearGradient>
<linearGradient id="paint46_linear_0_2083" x1="528.023" y1="401.504" x2="528.023" y2="328.756" gradientUnits="userSpaceOnUse">
<stop offset="0.01" stop-color="#A184BB"/>
<stop offset="1" stop-color="white"/>
</linearGradient>
<linearGradient id="paint47_linear_0_2083" x1="446.534" y1="294.984" x2="509.688" y2="294.984" gradientUnits="userSpaceOnUse">
<stop stop-color="#00275B"/>
<stop offset="0.14" stop-color="#001D44"/>
<stop offset="0.37" stop-color="#001026"/>
<stop offset="0.58" stop-color="#000711"/>
<stop offset="0.8" stop-color="#000204"/>
<stop offset="1"/>
</linearGradient>
<linearGradient id="paint48_linear_0_2083" x1="449.423" y1="305.776" x2="519.23" y2="305.776" gradientUnits="userSpaceOnUse">
<stop offset="0.01" stop-color="#A184BB"/>
<stop offset="1" stop-color="white"/>
</linearGradient>
<linearGradient id="paint49_linear_0_2083" x1="350.525" y1="253.054" x2="350.525" y2="216.807" gradientUnits="userSpaceOnUse">
<stop stop-color="#FFC2D8"/>
<stop offset="0.99" stop-color="#CA00A4"/>
</linearGradient>
<linearGradient id="paint50_linear_0_2083" x1="352.484" y1="238.323" x2="352.484" y2="233.839" gradientUnits="userSpaceOnUse">
<stop stop-color="white"/>
<stop offset="0.99" stop-color="#CA00A4"/>
</linearGradient>
<linearGradient id="paint51_linear_0_2083" x1="355.037" y1="233.347" x2="355.037" y2="231.724" gradientUnits="userSpaceOnUse">
<stop stop-color="white"/>
<stop offset="0.99" stop-color="#CA00A4"/>
</linearGradient>
<linearGradient id="paint52_linear_0_2083" x1="341.289" y1="243.247" x2="341.289" y2="241.331" gradientUnits="userSpaceOnUse">
<stop stop-color="white"/>
<stop offset="0.99" stop-color="#CA00A4"/>
</linearGradient>
<linearGradient id="paint53_linear_0_2083" x1="357.483" y1="228.782" x2="357.483" y2="225.748" gradientUnits="userSpaceOnUse">
<stop offset="0.01" stop-color="#CA00A4"/>
<stop offset="1" stop-color="white"/>
</linearGradient>
<linearGradient id="paint54_linear_0_2083" x1="476.872" y1="168.303" x2="532.561" y2="168.303" gradientUnits="userSpaceOnUse">
<stop offset="0.01" stop-color="#CA00A4"/>
<stop offset="1" stop-color="white"/>
</linearGradient>
<linearGradient id="paint55_linear_0_2083" x1="456.233" y1="344.458" x2="462.86" y2="344.458" gradientUnits="userSpaceOnUse">
<stop stop-color="white"/>
<stop offset="0.99" stop-color="#A184BB"/>
</linearGradient>
<linearGradient id="paint56_linear_0_2083" x1="518.124" y1="360.892" x2="518.124" y2="332.296" gradientUnits="userSpaceOnUse">
<stop stop-color="#1F0A43"/>
<stop offset="0.43" stop-color="#191348"/>
<stop offset="1" stop-color="#362F60"/>
</linearGradient>
<linearGradient id="paint57_linear_0_2083" x1="555.277" y1="363.5" x2="555.277" y2="357.472" gradientUnits="userSpaceOnUse">
<stop stop-color="#1A021F"/>
<stop offset="0.38" stop-color="#130520"/>
<stop offset="1" stop-color="#0B0822"/>
</linearGradient>
<linearGradient id="paint58_linear_0_2083" x1="530.366" y1="344.724" x2="530.366" y2="330.473" gradientUnits="userSpaceOnUse">
<stop stop-color="#0C2575"/>
<stop offset="0.19" stop-color="#0E297D"/>
<stop offset="0.47" stop-color="#133692"/>
<stop offset="0.81" stop-color="#1B49B4"/>
<stop offset="1" stop-color="#2056CA"/>
</linearGradient>
<linearGradient id="paint59_linear_0_2083" x1="613.812" y1="357.739" x2="613.812" y2="134.917" gradientUnits="userSpaceOnUse">
<stop stop-color="#1F0A43"/>
<stop offset="0.43" stop-color="#191348"/>
<stop offset="1" stop-color="#362F60"/>
</linearGradient>
<linearGradient id="paint60_linear_0_2083" x1="619.134" y1="357.739" x2="619.134" y2="134.917" gradientUnits="userSpaceOnUse">
<stop stop-color="#1A021F"/>
<stop offset="0.38" stop-color="#130520"/>
<stop offset="1" stop-color="#0B0822"/>
</linearGradient>
<linearGradient id="paint61_linear_0_2083" x1="529.872" y1="285.097" x2="529.872" y2="254.704" gradientUnits="userSpaceOnUse">
<stop stop-color="#1F0A43"/>
<stop offset="0.43" stop-color="#191348"/>
<stop offset="1" stop-color="#362F60"/>
</linearGradient>
<linearGradient id="paint62_linear_0_2083" x1="576.567" y1="286.521" x2="576.567" y2="267.944" gradientUnits="userSpaceOnUse">
<stop stop-color="#1A021F"/>
<stop offset="0.38" stop-color="#130520"/>
<stop offset="1" stop-color="#0B0822"/>
</linearGradient>
<linearGradient id="paint63_linear_0_2083" x1="534.423" y1="268.516" x2="534.423" y2="252.828" gradientUnits="userSpaceOnUse">
<stop stop-color="#0C2575"/>
<stop offset="0.19" stop-color="#0E297D"/>
<stop offset="0.47" stop-color="#133692"/>
<stop offset="0.81" stop-color="#1B49B4"/>
<stop offset="1" stop-color="#2056CA"/>
</linearGradient>
<linearGradient id="paint64_linear_0_2083" x1="614.744" y1="357.738" x2="614.744" y2="238.39" gradientUnits="userSpaceOnUse">
<stop offset="0.02" stop-color="white"/>
<stop offset="0.14" stop-color="#FBFAFC"/>
<stop offset="0.28" stop-color="#EEEBF2"/>
<stop offset="0.44" stop-color="#D9D3E2"/>
<stop offset="0.6" stop-color="#BCB1CB"/>
<stop offset="0.77" stop-color="#9785AE"/>
<stop offset="0.95" stop-color="#6A508C"/>
<stop offset="1" stop-color="#5C4081"/>
</linearGradient>
<linearGradient id="paint65_linear_0_2083" x1="619.482" y1="146.786" x2="619.482" y2="133.413" gradientUnits="userSpaceOnUse">
<stop stop-color="#0C2575"/>
<stop offset="0.19" stop-color="#0E297D"/>
<stop offset="0.47" stop-color="#133692"/>
<stop offset="0.81" stop-color="#1B49B4"/>
<stop offset="1" stop-color="#2056CA"/>
</linearGradient>
<linearGradient id="paint66_linear_0_2083" x1="576.501" y1="354.624" x2="576.501" y2="141.81" gradientUnits="userSpaceOnUse">
<stop stop-color="#1A002C"/>
<stop offset="0.48" stop-color="#150735"/>
<stop offset="1" stop-color="#362F60"/>
</linearGradient>
<linearGradient id="paint67_linear_0_2083" x1="195.743" y1="218.097" x2="195.743" y2="184.724" gradientUnits="userSpaceOnUse">
<stop stop-color="#0C1345"/>
<stop offset="0.03" stop-color="#0C0C40"/>
<stop offset="0.04" stop-color="#0C093E"/>
<stop offset="0.22" stop-color="#0E0F46"/>
<stop offset="0.49" stop-color="#131E5B"/>
<stop offset="0.82" stop-color="#1B377D"/>
<stop offset="1" stop-color="#204793"/>
</linearGradient>
<linearGradient id="paint68_linear_0_2083" x1="200.306" y1="218.097" x2="200.306" y2="184.099" gradientUnits="userSpaceOnUse">
<stop stop-color="#0C1345"/>
<stop offset="0.03" stop-color="#0C0C40"/>
<stop offset="0.04" stop-color="#0C093E"/>
<stop offset="0.22" stop-color="#0E0F46"/>
<stop offset="0.49" stop-color="#131E5B"/>
<stop offset="0.82" stop-color="#1B377D"/>
<stop offset="1" stop-color="#204793"/>
</linearGradient>
<linearGradient id="paint69_linear_0_2083" x1="213.788" y1="210.991" x2="213.788" y2="184.724" gradientUnits="userSpaceOnUse">
<stop stop-color="#0C1345"/>
<stop offset="0.03" stop-color="#0C0C40"/>
<stop offset="0.04" stop-color="#0C093E"/>
<stop offset="0.22" stop-color="#0E0F46"/>
<stop offset="0.49" stop-color="#131E5B"/>
<stop offset="0.82" stop-color="#1B377D"/>
<stop offset="1" stop-color="#204793"/>
</linearGradient>
<linearGradient id="paint70_linear_0_2083" x1="208.943" y1="218.097" x2="208.943" y2="184.724" gradientUnits="userSpaceOnUse">
<stop stop-color="#0C1345"/>
<stop offset="0.03" stop-color="#0C0C40"/>
<stop offset="0.04" stop-color="#0C093E"/>
<stop offset="0.22" stop-color="#0E0F46"/>
<stop offset="0.49" stop-color="#131E5B"/>
<stop offset="0.82" stop-color="#1B377D"/>
<stop offset="1" stop-color="#204793"/>
</linearGradient>
<linearGradient id="paint71_linear_0_2083" x1="213.504" y1="218.097" x2="213.504" y2="184.099" gradientUnits="userSpaceOnUse">
<stop stop-color="#0C1345"/>
<stop offset="0.03" stop-color="#0C0C40"/>
<stop offset="0.04" stop-color="#0C093E"/>
<stop offset="0.22" stop-color="#0E0F46"/>
<stop offset="0.49" stop-color="#131E5B"/>
<stop offset="0.82" stop-color="#1B377D"/>
<stop offset="1" stop-color="#204793"/>
</linearGradient>
<linearGradient id="paint72_linear_0_2083" x1="227.001" y1="210.991" x2="227.001" y2="184.724" gradientUnits="userSpaceOnUse">
<stop stop-color="#0C1345"/>
<stop offset="0.03" stop-color="#0C0C40"/>
<stop offset="0.04" stop-color="#0C093E"/>
<stop offset="0.22" stop-color="#0E0F46"/>
<stop offset="0.49" stop-color="#131E5B"/>
<stop offset="0.82" stop-color="#1B377D"/>
<stop offset="1" stop-color="#204793"/>
</linearGradient>
<linearGradient id="paint73_linear_0_2083" x1="190.367" y1="236.62" x2="223.328" y2="236.62" gradientUnits="userSpaceOnUse">
<stop stop-color="#0C1345"/>
<stop offset="0.03" stop-color="#0C0C40"/>
<stop offset="0.04" stop-color="#0C093E"/>
<stop offset="0.22" stop-color="#0E0F46"/>
<stop offset="0.49" stop-color="#131E5B"/>
<stop offset="0.82" stop-color="#1B377D"/>
<stop offset="1" stop-color="#204793"/>
</linearGradient>
<linearGradient id="paint74_linear_0_2083" x1="242.408" y1="236.487" x2="273.891" y2="236.487" gradientUnits="userSpaceOnUse">
<stop stop-color="#0C1345"/>
<stop offset="0.03" stop-color="#0C0C40"/>
<stop offset="0.04" stop-color="#0C093E"/>
<stop offset="0.19" stop-color="#0D0E46"/>
<stop offset="0.41" stop-color="#111D5B"/>
<stop offset="0.68" stop-color="#17367D"/>
<stop offset="0.99" stop-color="#2057AD"/>
<stop offset="1" stop-color="#2059AF"/>
</linearGradient>
<linearGradient id="paint75_linear_0_2083" x1="238.522" y1="213.959" x2="278.749" y2="213.959" gradientUnits="userSpaceOnUse">
<stop stop-color="#1A002C"/>
<stop offset="0.17" stop-color="#1A0633"/>
<stop offset="0.4" stop-color="#1C1646"/>
<stop offset="0.69" stop-color="#1D3065"/>
<stop offset="1" stop-color="#205490"/>
</linearGradient>
<linearGradient id="paint76_linear_0_2083" x1="149.835" y1="436.687" x2="149.835" y2="291.564" gradientUnits="userSpaceOnUse">
<stop stop-color="#201E56"/>
<stop offset="0.53" stop-color="#121046"/>
<stop offset="0.96" stop-color="#0C093E"/>
<stop offset="0.97" stop-color="#0C0C40"/>
<stop offset="1" stop-color="#0C1345"/>
</linearGradient>
<linearGradient id="paint77_linear_0_2083" x1="116.768" y1="415.968" x2="116.768" y2="294.531" gradientUnits="userSpaceOnUse">
<stop stop-color="#201E56"/>
<stop offset="0.53" stop-color="#121046"/>
<stop offset="0.96" stop-color="#0C093E"/>
<stop offset="0.97" stop-color="#0C0C40"/>
<stop offset="1" stop-color="#0C1345"/>
</linearGradient>
<linearGradient id="paint78_linear_0_2083" x1="226.042" y1="257.698" x2="226.042" y2="246.959" gradientUnits="userSpaceOnUse">
<stop stop-color="#1A002C"/>
<stop offset="0.48" stop-color="#150735"/>
<stop offset="1" stop-color="#362F60"/>
</linearGradient>
<linearGradient id="paint79_linear_0_2083" x1="213.494" y1="247.306" x2="213.494" y2="169.475" gradientUnits="userSpaceOnUse">
<stop stop-color="#1A002C"/>
<stop offset="0.48" stop-color="#150735"/>
<stop offset="1" stop-color="#362F60"/>
</linearGradient>
<linearGradient id="paint80_linear_0_2083" x1="221.212" y1="175.17" x2="221.212" y2="147.026" gradientUnits="userSpaceOnUse">
<stop stop-color="#1A002C"/>
<stop offset="0.48" stop-color="#150735"/>
<stop offset="1" stop-color="#362F60"/>
</linearGradient>
<linearGradient id="paint81_linear_0_2083" x1="265.31" y1="173.355" x2="234.804" y2="145.906" gradientUnits="userSpaceOnUse">
<stop stop-color="#1A002C"/>
<stop offset="0.48" stop-color="#150735"/>
<stop offset="1" stop-color="#362F60"/>
</linearGradient>
<linearGradient id="paint82_linear_0_2083" x1="234.423" y1="152.635" x2="234.419" y2="141.14" gradientUnits="userSpaceOnUse">
<stop stop-color="#1A002C"/>
<stop offset="0.48" stop-color="#150735"/>
<stop offset="1" stop-color="#362F60"/>
</linearGradient>
<radialGradient id="paint83_radial_0_2083" cx="0" cy="0" r="1" gradientUnits="userSpaceOnUse" gradientTransform="translate(336.525 163.234) scale(187.703 163.22)">
<stop stop-color="#004FD6"/>
<stop offset="0.49" stop-color="#002566"/>
<stop offset="0.84" stop-color="#000B1D"/>
<stop offset="1"/>
</radialGradient>
</defs>
</svg>
